SplineFontDB: 3.0
FontName: FabricExternalMDL2Assets
FullName: Fabric External MDL2 Assets
FamilyName: Fabric External MDL2 Assets
Weight: Book
Copyright: (c) 2017 Microsoft Corporation. All Rights Reserved.
Version: 2.48i
ItalicAngle: 0
UnderlinePosition: -237
UnderlineWidth: 119
Ascent: 2048
Descent: 0
InvalidEm: 0
sfntRevision: 0x00027ae1
LayerCount: 2
Layer: 0 1 "Back" 1
Layer: 1 1 "Fore" 0
XUID: [1021 623 1472866181 5080]
StyleMap: 0x0040
FSType: 8
OS2Version: 3
OS2_WeightWidthSlopeOnly: 0
OS2_UseTypoMetrics: 0
CreationTime: 1138233600
ModificationTime: 1508363495
PfmFamily: 81
TTFWeight: 400
TTFWidth: 5
LineGap: 0
VLineGap: 0
Panose: 5 10 1 2 1 1 1 1 1 1
OS2TypoAscent: 2048
OS2TypoAOffset: 0
OS2TypoDescent: 0
OS2TypoDOffset: 0
OS2TypoLinegap: 0
OS2WinAscent: 2048
OS2WinAOffset: 0
OS2WinDescent: 0
OS2WinDOffset: 0
HheadAscent: 2048
HheadAOffset: 0
HheadDescent: 0
HheadDOffset: 0
OS2SubXSize: 1434
OS2SubYSize: 1331
OS2SubXOff: 0
OS2SubYOff: 283
OS2SupXSize: 1434
OS2SupYSize: 1331
OS2SupXOff: 0
OS2SupYOff: 977
OS2StrikeYSize: 102
OS2StrikeYPos: 530
OS2CapHeight: 2048
OS2XHeight: 1024
OS2FamilyClass: 2053
OS2Vendor: 'MS  '
OS2CodePages: 00000001.00000000
OS2UnicodeRanges: 00000000.10000000.00000000.00000000
DEI: 91125
TtTable: prep
PUSHB_1
 0
CALL
SVTCA[y-axis]
PUSHB_3
 1
 9
 2
CALL
SVTCA[x-axis]
PUSHB_3
 10
 9
 2
CALL
SVTCA[x-axis]
PUSHB_8
 10
 133
 109
 85
 61
 37
 0
 8
CALL
PUSHB_8
 11
 101
 83
 64
 46
 28
 0
 8
CALL
PUSHB_8
 12
 88
 72
 56
 40
 25
 0
 8
CALL
PUSHB_8
 13
 67
 55
 43
 31
 19
 0
 8
CALL
PUSHB_8
 14
 44
 36
 28
 20
 12
 0
 8
CALL
PUSHB_8
 15
 30
 24
 19
 14
 8
 0
 8
CALL
PUSHB_8
 16
 14
 12
 9
 7
 4
 0
 8
CALL
PUSHB_8
 17
 17
 17
 17
 17
 17
 0
 8
CALL
PUSHB_8
 18
 176
 144
 112
 80
 48
 0
 8
CALL
SVTCA[y-axis]
PUSHB_8
 1
 133
 109
 85
 61
 37
 0
 8
CALL
PUSHB_8
 2
 101
 83
 64
 46
 28
 0
 8
CALL
PUSHB_8
 3
 88
 72
 56
 40
 25
 0
 8
CALL
PUSHB_8
 4
 67
 55
 43
 31
 19
 0
 8
CALL
PUSHB_8
 5
 44
 36
 28
 20
 12
 0
 8
CALL
PUSHB_8
 6
 30
 25
 19
 14

StartChar: .notdef
Encoding: 65536 -1 0
Width: 1322
Flags: W
LayerCount: 2
Fore
SplineSet
166 0 m 1,0,-1
 166 1398 l 1,1,-1
 1156 1398 l 1,2,-1
 1156 0 l 1,3,-1
 166 0 l 1,0,-1
314 148 m 1,4,-1
 1008 148 l 1,5,-1
 1008 1250 l 1,6,-1
 314 1250 l 1,7,-1
 314 148 l 1,4,-1
EndSplineSet
EndChar

StartChar: uniE700
Encoding: 59136 59136 4
Width: 2048
Flags: W
LayerCount: 2
Fore
SplineSet
2048 1408 m 1,0,-1
 0 1408 l 1,1,-1
 0 1536 l 1,2,-1
 2048 1536 l 1,3,-1
 2048 1408 l 1,4,-1
 2048 1408 l 1,0,-1
2048 384 m 1,5,-1
 0 384 l 1,6,-1
 0 512 l 1,7,-1
 2048 512 l 1,8,-1
 2048 384 l 1,9,-1
 2048 384 l 1,5,-1
2048 897 m 1,10,-1
 0 897 l 1,11,-1
 0 1024 l 1,12,-1
 2048 1024 l 1,13,-1
 2048 897 l 1,14,-1
 2048 897 l 1,10,-1
EndSplineSet
EndChar

StartChar: uniE70D
Encoding: 59149 59149 5
Width: 2048
Flags: W
LayerCount: 2
Fore
SplineSet
1939 1581 m 1,0,-1
 2029 1491 l 1,1,-1
 1024 486 l 1,2,-1
 19 1491 l 1,3,-1
 109 1581 l 1,4,-1
 1024 666 l 1,5,-1
 1939 1581 l 1,0,-1
EndSplineSet
EndChar

StartChar: uniE710
Encoding: 59152 59152 6
Width: 2048
Flags: W
LayerCount: 2
Fore
SplineSet
2048 1088 m 1,0,-1
 2048 960 l 1,1,-1
 1088 960 l 1,2,-1
 1088 0 l 1,3,-1
 960 0 l 1,4,-1
 960 960 l 1,5,-1
 0 960 l 1,6,-1
 0 1088 l 1,7,-1
 960 1088 l 1,8,-1
 960 2048 l 1,9,-1
 1088 2048 l 1,10,-1
 1088 1088 l 1,11,-1
 2048 1088 l 1,0,-1
EndSplineSet
EndChar

StartChar: uniE711
Encoding: 59153 59153 7
Width: 2048
Flags: W
LayerCount: 2
Fore
SplineSet
1115 1024 m 1,0,-1
 1805 333 l 1,1,-1
 1715 243 l 1,2,-1
 1024 933 l 1,3,-1
 333 243 l 1,4,-1
 243 333 l 1,5,-1
 933 1024 l 1,6,-1
 243 1715 l 1,7,-1
 333 1805 l 1,8,-1
 1024 1115 l 1,9,-1
 1715 1805 l 1,10,-1
 1805 1715 l 1,11,-1
 1115 1024 l 1,0,-1
EndSplineSet
EndChar

StartChar: uniE713
Encoding: 59155 59155 8
Width: 2048
Flags: W
LayerCount: 2
Fore
SplineSet
1783 1060 m 1,0,1
 1783 1051 1783 1051 1783.5 1042 c 128,-1,2
 1784 1033 1784 1033 1784 1024 c 256,3,4
 1784 1015 1784 1015 1783.5 1006 c 128,-1,5
 1783 997 1783 997 1783 988 c 1,6,-1
 2042 827 l 1,7,-1
 1883 444 l 1,8,-1
 1586 512 l 1,9,10
 1562 486 1562 486 1536 462 c 1,11,-1
 1604 165 l 1,12,-1
 1221 6 l 1,13,-1
 1060 265 l 1,14,15
 1051 265 1051 265 1042 264.5 c 128,-1,16
 1033 264 1033 264 1024 264 c 256,17,18
 1015 264 1015 264 1006 264.5 c 128,-1,19
 997 265 997 265 988 265 c 1,20,-1
 827 6 l 1,21,-1
 444 165 l 1,22,-1
 512 462 l 1,23,24
 486 486 486 486 462 512 c 1,25,-1
 165 444 l 1,26,-1
 6 827 l 1,27,-1
 265 988 l 1,28,29
 265 997 265 997 264.5 1006 c 128,-1,30
 264 1015 264 1015 264 1024 c 256,31,32
 264 1033 264 1033 264.5 1042 c 128,-1,33
 265 1051 265 1051 265 1060 c 1,34,-1
 6 1221 l 1,35,-1
 165 1604 l 1,36,-1
 462 1536 l 1,37,38
 486 1562 486 1562 512 1586 c 1,39,-1
 444 1883 l 1,40,-1
 827 2042 l 1,41,-1
 988 1783 l 1,42,43
 997 1783 997 1783 1006 1783.5 c 128,-1,44
 1015 1784 1015 1784 1024 1784 c 256,45,46
 1033 1784 1033 1784 1042 1783.5 c 128,-1,47
 1051 1783 1051 1783 1060 1783 c 1,48,-1
 1221 2042 l 1,49,-1
 1604 1883 l 1,50,-1
 1536 1586 l 1,51,52
 1562 1562 1562 1562 1586 1536 c 1,53,-1
 1883 1604 l 1,54,-1
 2042 1221 l 1,55,-1
 1783 1060 l 1,0,1
1666 930 m 1,56,57
 1668 954 1668 954 1670 977.5 c 128,-1,58
 1672 1001 1672 1001 1672 1025 c 0,59,60
 1672 1048 1672 1048 1670 1072 c 128,-1,61
 1668 1096 1668 1096 1666 1119 c 1,62,-1
 1902 1266 l 1,63,-1
 1816 1474 l 1,64,-1
 1545 1411 l 1,65,66
 1514 1449 1514 1449 1481.5 1481 c 128,-1,67
 1449 1513 1449 1513 1411 1545 c 1,68,-1
 1474 1816 l 1,69,-1
 1266 1902 l 1,70,-1
 1118 1666 l 1,71,72
 1095 1668 1095 1668 1071 1670 c 128,-1,73
 1047 1672 1047 1672 1024 1672 c 0,74,75
 1000 1672 1000 1672 976.5 1670 c 128,-1,76
 953 1668 953 1668 929 1666 c 1,77,-1
 782 1902 l 1,78,-1
 574 1816 l 1,79,-1
 637 1545 l 1,80,81
 599 1514 599 1514 567 1481.5 c 128,-1,82
 535 1449 535 1449 503 1411 c 1,83,-1
 232 1474 l 1,84,-1
 146 1266 l 1,85,-1
 382 1118 l 1,86,87
 380 1094 380 1094 378 1070.5 c 128,-1,88
 376 1047 376 1047 376 1023 c 0,89,90
 376 1000 376 1000 378 976 c 128,-1,91
 380 952 380 952 382 929 c 1,92,-1
 146 782 l 1,93,-1
 232 574 l 1,94,-1
 503 637 l 1,95,96
 534 599 534 599 566.5 567 c 128,-1,97
 599 535 599 535 637 503 c 1,98,-1
 574 232 l 1,99,-1
 782 146 l 1,100,-1
 930 382 l 1,101,102
 953 380 953 380 977 378 c 128,-1,103
 1001 376 1001 376 1024 376 c 0,104,105
 1048 376 1048 376 1071.5 378 c 128,-1,106
 1095 380 1095 380 1119 382 c 1,107,-1
 1266 146 l 1,108,-1
 1474 232 l 1,109,-1
 1411 503 l 1,110,111
 1449 534 1449 534 1481 566.5 c 128,-1,112
 1513 599 1513 599 1545 637 c 1,113,-1
 1816 574 l 1,114,-1
 1902 782 l 1,115,-1
 1666 930 l 1,56,57
1024 1400 m 256,116,117
 1102 1400 1102 1400 1170.5 1370.5 c 128,-1,118
 1239 1341 1239 1341 1290 1290 c 128,-1,119
 1341 1239 1341 1239 1370.5 1170.5 c 128,-1,120
 1400 1102 1400 1102 1400 1024 c 256,121,122
 1400 946 1400 946 1370.5 877.5 c 128,-1,123
 1341 809 1341 809 1290 758 c 128,-1,124
 1239 707 1239 707 1170.5 677.5 c 128,-1,125
 1102 648 1102 648 1024 648 c 256,126,127
 946 648 946 648 877.5 677.5 c 128,-1,128
 809 707 809 707 758 758 c 128,-1,129
 707 809 707 809 677.5 877.5 c 128,-1,130
 648 946 648 946 648 1024 c 256,131,132
 648 1102 648 1102 677.5 1170.5 c 128,-1,133
 707 1239 707 1239 758 1290 c 128,-1,134
 809 1341 809 1341 877.5 1370.5 c 128,-1,135
 946 1400 946 1400 1024 1400 c 256,116,117
1024 760 m 256,136,137
 1079 760 1079 760 1127 780.5 c 128,-1,138
 1175 801 1175 801 1211 837 c 128,-1,139
 1247 873 1247 873 1267.5 921 c 128,-1,140
 1288 969 1288 969 1288 1024 c 256,141,142
 1288 1079 1288 1079 1267.5 1127 c 128,-1,143
 1247 1175 1247 1175 1211 1211 c 128,-1,144
 1175 1247 1175 1247 1127 1267.5 c 128,-1,145
 1079 1288 1079 1288 1024 1288 c 256,146,147
 969 1288 969 1288 921 1267.5 c 128,-1,148
 873 1247 873 1247 837 1211 c 128,-1,149
 801 1175 801 1175 780.5 1127 c 128,-1,150
 760 1079 760 1079 760 1024 c 256,151,152
 760 969 760 969 780.5 921 c 128,-1,153
 801 873 801 873 837 837 c 128,-1,154
 873 801 873 801 921 780.5 c 128,-1,155
 969 760 969 760 1024 760 c 256,136,137
EndSplineSet
EndChar

StartChar: uniE715
Encoding: 59157 59157 9
Width: 2048
Flags: W
LayerCount: 2
Fore
SplineSet
2048 1664 m 1,0,-1
 2048 384 l 1,1,-1
 0 384 l 1,2,-1
 0 1664 l 1,3,-1
 2048 1664 l 1,0,-1
143 1536 m 1,4,-1
 1024 1095 l 1,5,-1
 1905 1536 l 1,6,-1
 143 1536 l 1,4,-1
1920 512 m 1,7,-1
 1920 1400 l 1,8,-1
 1024 953 l 1,9,-1
 128 1400 l 1,10,-1
 128 512 l 1,11,-1
 1920 512 l 1,7,-1
EndSplineSet
EndChar

StartChar: uniE718
Encoding: 59160 59160 10
Width: 2048
Flags: W
LayerCount: 2
Fore
SplineSet
2048 1536 m 1,0,-1
 2048 640 l 1,1,-1
 1984 640 l 2,2,3
 1906 640 1906 640 1841 673.5 c 128,-1,4
 1776 707 1776 707 1729 768 c 1,5,-1
 1235 768 l 1,6,7
 1207 709 1207 709 1165 661.5 c 128,-1,8
 1123 614 1123 614 1070.5 581 c 128,-1,9
 1018 548 1018 548 957.5 530 c 128,-1,10
 897 512 897 512 832 512 c 2,11,-1
 768 512 l 1,12,-1
 768 1024 l 1,13,-1
 128 1024 l 1,14,-1
 0 1088 l 1,15,-1
 128 1152 l 1,16,-1
 768 1152 l 1,17,-1
 768 1664 l 1,18,-1
 832 1664 l 2,19,20
 897 1664 897 1664 957.5 1646 c 128,-1,21
 1018 1628 1018 1628 1070.5 1595 c 128,-1,22
 1123 1562 1123 1562 1165 1514.5 c 128,-1,23
 1207 1467 1207 1467 1235 1408 c 1,24,-1
 1729 1408 l 1,25,26
 1776 1469 1776 1469 1841 1502.5 c 128,-1,27
 1906 1536 1906 1536 1984 1536 c 2,28,-1
 2048 1536 l 1,0,-1
1920 1397 m 1,29,30
 1896 1389 1896 1389 1879 1377 c 128,-1,31
 1862 1365 1862 1365 1848.5 1350.5 c 128,-1,32
 1835 1336 1835 1336 1823.5 1318 c 128,-1,33
 1812 1300 1812 1300 1800 1280 c 1,34,-1
 1147 1280 l 1,35,-1
 1132 1323 l 2,36,37
 1104 1402 1104 1402 1041 1457 c 128,-1,38
 978 1512 978 1512 896 1529 c 1,39,-1
 896 647 l 1,40,41
 978 664 978 664 1041 719 c 128,-1,42
 1104 774 1104 774 1132 853 c 2,43,-1
 1147 896 l 1,44,-1
 1800 896 l 1,45,46
 1812 876 1812 876 1823.5 858 c 128,-1,47
 1835 840 1835 840 1848.5 825.5 c 128,-1,48
 1862 811 1862 811 1879 799 c 128,-1,49
 1896 787 1896 787 1920 779 c 1,50,-1
 1920 1397 l 1,29,30
EndSplineSet
EndChar

StartChar: uniE71C
Encoding: 59164 59164 11
Width: 2048
Flags: W
LayerCount: 2
Fore
SplineSet
2048 1920 m 1,0,-1
 2048 1701 l 1,1,-1
 1280 933 l 1,2,-1
 1280 128 l 1,3,-1
 768 128 l 1,4,-1
 768 933 l 1,5,-1
 0 1701 l 1,6,-1
 0 1920 l 1,7,-1
 2048 1920 l 1,0,-1
1920 1792 m 1,8,-1
 128 1792 l 1,9,-1
 128 1755 l 1,10,-1
 896 987 l 1,11,-1
 896 256 l 1,12,-1
 1152 256 l 1,13,-1
 1152 987 l 1,14,-1
 1920 1755 l 1,15,-1
 1920 1792 l 1,8,-1
EndSplineSet
EndChar

StartChar: uniE72D
Encoding: 59181 59181 12
Width: 2048
Flags: W
LayerCount: 2
Fore
SplineSet
1408 512 m 1,0,-1
 1536 640 l 1,1,-1
 1536 256 l 1,2,-1
 0 256 l 1,3,-1
 0 1536 l 1,4,-1
 128 1536 l 1,5,-1
 128 384 l 1,6,-1
 1408 384 l 1,7,-1
 1408 512 l 1,0,-1
1280 1024 m 1,8,9
 1152 1024 1152 1024 1029.5 998.5 c 128,-1,10
 907 973 907 973 793 923.5 c 128,-1,11
 679 874 679 874 575.5 802.5 c 128,-1,12
 472 731 472 731 384 640 c 1,13,-1
 384 768 l 2,14,15
 384 892 384 892 416 1006.5 c 128,-1,16
 448 1121 448 1121 506.5 1220.5 c 128,-1,17
 565 1320 565 1320 646.5 1401.5 c 128,-1,18
 728 1483 728 1483 827.5 1541.5 c 128,-1,19
 927 1600 927 1600 1041.5 1632 c 128,-1,20
 1156 1664 1156 1664 1280 1664 c 1,21,-1
 1280 2048 l 1,22,-1
 1984 1344 l 1,23,-1
 1280 640 l 1,24,-1
 1280 1024 l 1,8,9
1381 1536 m 2,25,26
 1325 1536 1325 1536 1276 1535 c 128,-1,27
 1227 1534 1227 1534 1179 1528.5 c 128,-1,28
 1131 1523 1131 1523 1083 1510.5 c 128,-1,29
 1035 1498 1035 1498 981 1476 c 0,30,31
 894 1440 894 1440 819.5 1384 c 128,-1,32
 745 1328 745 1328 686.5 1256.5 c 128,-1,33
 628 1185 628 1185 587.5 1101.5 c 128,-1,34
 547 1018 547 1018 528 926 c 1,35,36
 696 1038 696 1038 887 1095 c 128,-1,37
 1078 1152 1078 1152 1280 1152 c 2,38,-1
 1408 1152 l 1,39,-1
 1408 949 l 1,40,-1
 1803 1344 l 1,41,-1
 1408 1739 l 1,42,-1
 1408 1536 l 1,43,-1
 1381 1536 l 2,25,26
EndSplineSet
EndChar

StartChar: uniE738
Encoding: 59192 59192 13
Width: 2048
Flags: W
LayerCount: 2
Fore
SplineSet
2048 960 m 1,0,-1
 0 960 l 1,1,-1
 0 1088 l 1,2,-1
 2048 1088 l 1,3,-1
 2048 960 l 1,0,-1
EndSplineSet
EndChar

StartChar: uniE749
Encoding: 59209 59209 14
Width: 2048
Flags: W
LayerCount: 2
Fore
SplineSet
1920 1280 m 2,0,1
 1946 1280 1946 1280 1969.5 1270 c 128,-1,2
 1993 1260 1993 1260 2010.5 1242.5 c 128,-1,3
 2028 1225 2028 1225 2038 1201.5 c 128,-1,4
 2048 1178 2048 1178 2048 1152 c 2,5,-1
 2048 256 l 1,6,-1
 1536 256 l 1,7,-1
 1536 0 l 1,8,-1
 512 0 l 1,9,-1
 512 256 l 1,10,-1
 0 256 l 1,11,-1
 0 1152 l 2,12,13
 0 1178 0 1178 10 1201.5 c 128,-1,14
 20 1225 20 1225 37.5 1242.5 c 128,-1,15
 55 1260 55 1260 78.5 1270 c 128,-1,16
 102 1280 102 1280 128 1280 c 2,17,-1
 512 1280 l 1,18,-1
 512 2048 l 1,19,-1
 1536 2048 l 1,20,-1
 1536 1280 l 1,21,-1
 1920 1280 l 2,0,1
640 1280 m 1,22,-1
 1408 1280 l 1,23,-1
 1408 1920 l 1,24,-1
 640 1920 l 1,25,-1
 640 1280 l 1,22,-1
1408 640 m 1,26,-1
 640 640 l 1,27,-1
 640 128 l 1,28,-1
 1408 128 l 1,29,-1
 1408 640 l 1,26,-1
1920 1152 m 1,30,-1
 128 1152 l 1,31,-1
 128 384 l 1,32,-1
 512 384 l 1,33,-1
 512 768 l 1,34,-1
 1536 768 l 1,35,-1
 1536 384 l 1,36,-1
 1920 384 l 1,37,-1
 1920 1152 l 1,30,-1
320 1024 m 256,38,39
 346 1024 346 1024 365 1005 c 128,-1,40
 384 986 384 986 384 960 c 256,41,42
 384 934 384 934 365 915 c 128,-1,43
 346 896 346 896 320 896 c 256,44,45
 294 896 294 896 275 915 c 128,-1,46
 256 934 256 934 256 960 c 256,47,48
 256 986 256 986 275 1005 c 128,-1,49
 294 1024 294 1024 320 1024 c 256,38,39
EndSplineSet
EndChar

StartChar: uniE760
Encoding: 59232 59232 15
Width: 2048
Flags: W
LayerCount: 2
Fore
SplineSet
1029 1920 m 256,0,1
 1152 1920 1152 1920 1265.5 1888 c 128,-1,2
 1379 1856 1379 1856 1478 1798 c 128,-1,3
 1577 1740 1577 1740 1658.5 1658.5 c 128,-1,4
 1740 1577 1740 1577 1798 1478 c 128,-1,5
 1856 1379 1856 1379 1888 1265.5 c 128,-1,6
 1920 1152 1920 1152 1920 1029 c 256,7,8
 1920 906 1920 906 1888 792.5 c 128,-1,9
 1856 679 1856 679 1798 580 c 128,-1,10
 1740 481 1740 481 1658.5 399.5 c 128,-1,11
 1577 318 1577 318 1478 260 c 128,-1,12
 1379 202 1379 202 1265.5 170 c 128,-1,13
 1152 138 1152 138 1029 138 c 256,14,15
 906 138 906 138 792.5 170 c 128,-1,16
 679 202 679 202 580 260 c 128,-1,17
 481 318 481 318 399.5 399.5 c 128,-1,18
 318 481 318 481 260 580 c 128,-1,19
 202 679 202 679 170 792.5 c 128,-1,20
 138 906 138 906 138 1029 c 256,21,22
 138 1152 138 1152 170 1265.5 c 128,-1,23
 202 1379 202 1379 260 1478 c 128,-1,24
 318 1577 318 1577 399.5 1658.5 c 128,-1,25
 481 1740 481 1740 580 1798 c 128,-1,26
 679 1856 679 1856 792.5 1888 c 128,-1,27
 906 1920 906 1920 1029 1920 c 256,0,1
1029 266 m 256,28,29
 1134 266 1134 266 1231.5 293.5 c 128,-1,30
 1329 321 1329 321 1414 370.5 c 128,-1,31
 1499 420 1499 420 1568.5 489.5 c 128,-1,32
 1638 559 1638 559 1687.5 644 c 128,-1,33
 1737 729 1737 729 1764.5 826.5 c 128,-1,34
 1792 924 1792 924 1792 1029 c 256,35,36
 1792 1134 1792 1134 1764.5 1231.5 c 128,-1,37
 1737 1329 1737 1329 1687.5 1413.5 c 128,-1,38
 1638 1498 1638 1498 1568 1568 c 128,-1,39
 1498 1638 1498 1638 1413.5 1687.5 c 128,-1,40
 1329 1737 1329 1737 1231.5 1764.5 c 128,-1,41
 1134 1792 1134 1792 1029 1792 c 256,42,43
 924 1792 924 1792 826.5 1764.5 c 128,-1,44
 729 1737 729 1737 644 1687.5 c 128,-1,45
 559 1638 559 1638 489.5 1568.5 c 128,-1,46
 420 1499 420 1499 370.5 1414 c 128,-1,47
 321 1329 321 1329 293.5 1231.5 c 128,-1,48
 266 1134 266 1134 266 1029 c 256,49,50
 266 924 266 924 293.5 826.5 c 128,-1,51
 321 729 321 729 370.5 644 c 128,-1,52
 420 559 420 559 489.5 489.5 c 128,-1,53
 559 420 559 420 644 370.5 c 128,-1,54
 729 321 729 321 826.5 293.5 c 128,-1,55
 924 266 924 266 1029 266 c 256,28,29
1229 1395 m 1,56,-1
 859 1024 l 1,57,-1
 1229 653 l 1,58,-1
 1139 563 l 1,59,-1
 677 1024 l 1,60,-1
 1139 1485 l 1,61,-1
 1229 1395 l 1,56,-1
EndSplineSet
EndChar

StartChar: uniE761
Encoding: 59233 59233 16
Width: 2048
Flags: W
LayerCount: 2
Fore
SplineSet
1029 1792 m 256,0,1
 924 1792 924 1792 826.5 1764.5 c 128,-1,2
 729 1737 729 1737 644 1687.5 c 128,-1,3
 559 1638 559 1638 489.5 1568.5 c 128,-1,4
 420 1499 420 1499 370.5 1414 c 128,-1,5
 321 1329 321 1329 293.5 1231.5 c 128,-1,6
 266 1134 266 1134 266 1029 c 256,7,8
 266 924 266 924 293.5 826.5 c 128,-1,9
 321 729 321 729 370.5 644 c 128,-1,10
 420 559 420 559 489.5 489.5 c 128,-1,11
 559 420 559 420 644 370.5 c 128,-1,12
 729 321 729 321 826.5 293.5 c 128,-1,13
 924 266 924 266 1029 266 c 256,14,15
 1134 266 1134 266 1231.5 293.5 c 128,-1,16
 1329 321 1329 321 1414 370.5 c 128,-1,17
 1499 420 1499 420 1568.5 489.5 c 128,-1,18
 1638 559 1638 559 1687.5 644 c 128,-1,19
 1737 729 1737 729 1764.5 826.5 c 128,-1,20
 1792 924 1792 924 1792 1029 c 256,21,22
 1792 1134 1792 1134 1764.5 1231.5 c 128,-1,23
 1737 1329 1737 1329 1687.5 1413.5 c 128,-1,24
 1638 1498 1638 1498 1568 1568 c 128,-1,25
 1498 1638 1498 1638 1413.5 1687.5 c 128,-1,26
 1329 1737 1329 1737 1231.5 1764.5 c 128,-1,27
 1134 1792 1134 1792 1029 1792 c 256,0,1
1029 1920 m 256,28,29
 1152 1920 1152 1920 1265.5 1888 c 128,-1,30
 1379 1856 1379 1856 1478 1798 c 128,-1,31
 1577 1740 1577 1740 1658.5 1658.5 c 128,-1,32
 1740 1577 1740 1577 1798 1478 c 128,-1,33
 1856 1379 1856 1379 1888 1265.5 c 128,-1,34
 1920 1152 1920 1152 1920 1029 c 256,35,36
 1920 906 1920 906 1888 792.5 c 128,-1,37
 1856 679 1856 679 1798 580 c 128,-1,38
 1740 481 1740 481 1658.5 399.5 c 128,-1,39
 1577 318 1577 318 1478 260 c 128,-1,40
 1379 202 1379 202 1265.5 170 c 128,-1,41
 1152 138 1152 138 1029 138 c 256,42,43
 906 138 906 138 792.5 170 c 128,-1,44
 679 202 679 202 580 260 c 128,-1,45
 481 318 481 318 399.5 399.5 c 128,-1,46
 318 481 318 481 260 580 c 128,-1,47
 202 679 202 679 170 792.5 c 128,-1,48
 138 906 138 906 138 1029 c 256,49,50
 138 1152 138 1152 170 1265.5 c 128,-1,51
 202 1379 202 1379 260 1478 c 128,-1,52
 318 1577 318 1577 399.5 1658.5 c 128,-1,53
 481 1740 481 1740 580 1798 c 128,-1,54
 679 1856 679 1856 792.5 1888 c 128,-1,55
 906 1920 906 1920 1029 1920 c 256,28,29
941 563 m 1,56,-1
 851 653 l 1,57,-1
 1221 1024 l 1,58,-1
 851 1395 l 1,59,-1
 941 1485 l 1,60,-1
 1402 1024 l 1,61,-1
 941 563 l 1,56,-1
EndSplineSet
EndChar

StartChar: uniE76E
Encoding: 59246 59246 17
Width: 2048
Flags: W
LayerCount: 2
Fore
SplineSet
640 1152 m 256,0,1
 613 1152 613 1152 590 1162 c 128,-1,2
 567 1172 567 1172 549.5 1189.5 c 128,-1,3
 532 1207 532 1207 522 1230 c 128,-1,4
 512 1253 512 1253 512 1280 c 256,5,6
 512 1307 512 1307 522 1330 c 128,-1,7
 532 1353 532 1353 549.5 1370.5 c 128,-1,8
 567 1388 567 1388 590 1398 c 128,-1,9
 613 1408 613 1408 640 1408 c 256,10,11
 667 1408 667 1408 690 1398 c 128,-1,12
 713 1388 713 1388 730.5 1370.5 c 128,-1,13
 748 1353 748 1353 758 1330 c 128,-1,14
 768 1307 768 1307 768 1280 c 256,15,16
 768 1253 768 1253 758 1230 c 128,-1,17
 748 1207 748 1207 730.5 1189.5 c 128,-1,18
 713 1172 713 1172 690 1162 c 128,-1,19
 667 1152 667 1152 640 1152 c 256,0,1
1408 1152 m 256,20,21
 1381 1152 1381 1152 1358 1162 c 128,-1,22
 1335 1172 1335 1172 1317.5 1189.5 c 128,-1,23
 1300 1207 1300 1207 1290 1230 c 128,-1,24
 1280 1253 1280 1253 1280 1280 c 256,25,26
 1280 1307 1280 1307 1290 1330 c 128,-1,27
 1300 1353 1300 1353 1317.5 1370.5 c 128,-1,28
 1335 1388 1335 1388 1358 1398 c 128,-1,29
 1381 1408 1381 1408 1408 1408 c 256,30,31
 1435 1408 1435 1408 1458 1398 c 128,-1,32
 1481 1388 1481 1388 1498.5 1370.5 c 128,-1,33
 1516 1353 1516 1353 1526 1330 c 128,-1,34
 1536 1307 1536 1307 1536 1280 c 256,35,36
 1536 1253 1536 1253 1526 1230 c 128,-1,37
 1516 1207 1516 1207 1498.5 1189.5 c 128,-1,38
 1481 1172 1481 1172 1458 1162 c 128,-1,39
 1435 1152 1435 1152 1408 1152 c 256,20,21
1024 2048 m 0,40,41
 1165 2048 1165 2048 1296 2011.5 c 128,-1,42
 1427 1975 1427 1975 1541 1908.5 c 128,-1,43
 1655 1842 1655 1842 1748.5 1748.5 c 128,-1,44
 1842 1655 1842 1655 1908.5 1541 c 128,-1,45
 1975 1427 1975 1427 2011.5 1296 c 128,-1,46
 2048 1165 2048 1165 2048 1024 c 256,47,48
 2048 883 2048 883 2011.5 752 c 128,-1,49
 1975 621 1975 621 1908.5 507 c 128,-1,50
 1842 393 1842 393 1748.5 299.5 c 128,-1,51
 1655 206 1655 206 1541 139.5 c 128,-1,52
 1427 73 1427 73 1296 36.5 c 128,-1,53
 1165 0 1165 0 1024 0 c 256,54,55
 883 0 883 0 752 36.5 c 128,-1,56
 621 73 621 73 507 139.5 c 128,-1,57
 393 206 393 206 299.5 299.5 c 128,-1,58
 206 393 206 393 139.5 507 c 128,-1,59
 73 621 73 621 36.5 751.5 c 128,-1,60
 0 882 0 882 0 1024 c 0,61,62
 0 1165 0 1165 36.5 1296 c 128,-1,63
 73 1427 73 1427 139.5 1541 c 128,-1,64
 206 1655 206 1655 299.5 1748.5 c 128,-1,65
 393 1842 393 1842 507 1908.5 c 128,-1,66
 621 1975 621 1975 751.5 2011.5 c 128,-1,67
 882 2048 882 2048 1024 2048 c 0,40,41
1024 128 m 0,68,69
 1147 128 1147 128 1261.5 160 c 128,-1,70
 1376 192 1376 192 1475.5 250.5 c 128,-1,71
 1575 309 1575 309 1657 391 c 128,-1,72
 1739 473 1739 473 1797.5 572.5 c 128,-1,73
 1856 672 1856 672 1888 786 c 128,-1,74
 1920 900 1920 900 1920 1024 c 0,75,76
 1920 1147 1920 1147 1888 1261.5 c 128,-1,77
 1856 1376 1856 1376 1797.5 1475.5 c 128,-1,78
 1739 1575 1739 1575 1657 1657 c 128,-1,79
 1575 1739 1575 1739 1475.5 1797.5 c 128,-1,80
 1376 1856 1376 1856 1261.5 1888 c 128,-1,81
 1147 1920 1147 1920 1024 1920 c 256,82,83
 901 1920 901 1920 786.5 1888 c 128,-1,84
 672 1856 672 1856 572.5 1797.5 c 128,-1,85
 473 1739 473 1739 391 1657 c 128,-1,86
 309 1575 309 1575 250.5 1475.5 c 128,-1,87
 192 1376 192 1376 160 1261.5 c 128,-1,88
 128 1147 128 1147 128 1024 c 256,89,90
 128 901 128 901 160 786.5 c 128,-1,91
 192 672 192 672 250.5 572.5 c 128,-1,92
 309 473 309 473 391 391 c 128,-1,93
 473 309 473 309 572.5 250.5 c 128,-1,94
 672 192 672 192 786 160 c 128,-1,95
 900 128 900 128 1024 128 c 0,68,69
1024 512 m 0,96,97
 1097 512 1097 512 1165.5 532 c 128,-1,98
 1234 552 1234 552 1293 589 c 128,-1,99
 1352 626 1352 626 1399.5 679 c 128,-1,100
 1447 732 1447 732 1480 797 c 1,101,-1
 1595 739 l 1,102,103
 1554 658 1554 658 1494 592 c 128,-1,104
 1434 526 1434 526 1360 480 c 128,-1,105
 1286 434 1286 434 1200.5 409 c 128,-1,106
 1115 384 1115 384 1024 384 c 0,107,108
 932 384 932 384 847 409 c 128,-1,109
 762 434 762 434 688 480 c 128,-1,110
 614 526 614 526 554 592 c 128,-1,111
 494 658 494 658 453 739 c 1,112,-1
 568 797 l 1,113,114
 601 732 601 732 648.5 679 c 128,-1,115
 696 626 696 626 755 589 c 128,-1,116
 814 552 814 552 882 532 c 128,-1,117
 950 512 950 512 1024 512 c 0,96,97
EndSplineSet
EndChar

StartChar: uniE901
Encoding: 59649 59649 18
Width: 2048
Flags: W
LayerCount: 2
Fore
SplineSet
0 1920 m 1,0,-1
 2048 1920 l 1,1,-1
 2048 512 l 1,2,-1
 731 512 l 1,3,-1
 256 37 l 1,4,-1
 256 512 l 1,5,-1
 0 512 l 1,6,-1
 0 1920 l 1,0,-1
1920 640 m 1,7,-1
 1920 1792 l 1,8,-1
 128 1792 l 1,9,-1
 128 640 l 1,10,-1
 384 640 l 1,11,-1
 384 347 l 1,12,-1
 677 640 l 1,13,-1
 1920 640 l 1,7,-1
EndSplineSet
EndChar

StartChar: uniE800
Encoding: 59392 59392 19
Width: 2048
Flags: W
LayerCount: 2
Fore
SplineSet
1344 1625 m 1,0,-1
 2048 1859 l 1,1,-1
 2048 445 l 1,2,-1
 1344 210 l 1,3,-1
 704 423 l 1,4,-1
 0 189 l 1,5,-1
 0 1603 l 1,6,-1
 704 1838 l 1,7,-1
 1344 1625 l 1,0,-1
768 1682 m 1,8,-1
 768 537 l 1,9,-1
 1280 366 l 1,10,-1
 1280 1511 l 1,11,-1
 768 1682 l 1,8,-1
128 1511 m 1,12,-1
 128 366 l 1,13,-1
 640 537 l 1,14,-1
 640 1682 l 1,15,-1
 128 1511 l 1,12,-1
1920 537 m 1,16,-1
 1920 1682 l 1,17,-1
 1408 1511 l 1,18,-1
 1408 366 l 1,19,-1
 1920 537 l 1,16,-1
EndSplineSet
EndChar

StartChar: uniE814
Encoding: 59412 59412 20
Width: 2048
Flags: W
LayerCount: 2
Fore
SplineSet
1920 0 m 1,0,-1
 0 0 l 1,1,-1
 960 1920 l 1,2,-1
 1920 0 l 1,0,-1
1024 384 m 1,3,-1
 896 384 l 1,4,-1
 896 256 l 1,5,-1
 1024 256 l 1,6,-1
 1024 384 l 1,3,-1
1024 512 m 1,7,-1
 1024 1152 l 1,8,-1
 896 1152 l 1,9,-1
 896 512 l 1,10,-1
 1024 512 l 1,7,-1
EndSplineSet
EndChar

StartChar: uniE81D
Encoding: 59421 59421 21
Width: 2048
Flags: W
LayerCount: 2
Fore
SplineSet
1024 1920 m 0,0,1
 1147 1920 1147 1920 1261.5 1888 c 128,-1,2
 1376 1856 1376 1856 1475.5 1797.5 c 128,-1,3
 1575 1739 1575 1739 1657 1657 c 128,-1,4
 1739 1575 1739 1575 1797.5 1475.5 c 128,-1,5
 1856 1376 1856 1376 1888 1261.5 c 128,-1,6
 1920 1147 1920 1147 1920 1024 c 256,7,8
 1920 901 1920 901 1888 786.5 c 128,-1,9
 1856 672 1856 672 1797.5 572.5 c 128,-1,10
 1739 473 1739 473 1657 391 c 128,-1,11
 1575 309 1575 309 1475.5 250.5 c 128,-1,12
 1376 192 1376 192 1261.5 160 c 128,-1,13
 1147 128 1147 128 1024 128 c 256,14,15
 901 128 901 128 786.5 160 c 128,-1,16
 672 192 672 192 572.5 250.5 c 128,-1,17
 473 309 473 309 391 391 c 128,-1,18
 309 473 309 473 250.5 572.5 c 128,-1,19
 192 672 192 672 160 786 c 128,-1,20
 128 900 128 900 128 1024 c 0,21,22
 128 1147 128 1147 160 1261.5 c 128,-1,23
 192 1376 192 1376 250.5 1475.5 c 128,-1,24
 309 1575 309 1575 391 1657 c 128,-1,25
 473 1739 473 1739 572.5 1797.5 c 128,-1,26
 672 1856 672 1856 786 1888 c 128,-1,27
 900 1920 900 1920 1024 1920 c 0,0,1
1024 256 m 256,28,29
 1130 256 1130 256 1228 283.5 c 128,-1,30
 1326 311 1326 311 1411.5 361 c 128,-1,31
 1497 411 1497 411 1567 481 c 128,-1,32
 1637 551 1637 551 1687 636.5 c 128,-1,33
 1737 722 1737 722 1764.5 820 c 128,-1,34
 1792 918 1792 918 1792 1024 c 256,35,36
 1792 1130 1792 1130 1764.5 1228 c 128,-1,37
 1737 1326 1737 1326 1687 1411.5 c 128,-1,38
 1637 1497 1637 1497 1567 1567 c 128,-1,39
 1497 1637 1497 1637 1411.5 1687 c 128,-1,40
 1326 1737 1326 1737 1228 1764.5 c 128,-1,41
 1130 1792 1130 1792 1024 1792 c 256,42,43
 918 1792 918 1792 820 1764.5 c 128,-1,44
 722 1737 722 1737 636.5 1687 c 128,-1,45
 551 1637 551 1637 481 1567 c 128,-1,46
 411 1497 411 1497 361 1411.5 c 128,-1,47
 311 1326 311 1326 283.5 1228 c 128,-1,48
 256 1130 256 1130 256 1024 c 256,49,50
 256 918 256 918 283.5 820 c 128,-1,51
 311 722 311 722 361 636.5 c 128,-1,52
 411 551 411 551 481 481 c 128,-1,53
 551 411 551 411 636.5 361 c 128,-1,54
 722 311 722 311 820 283.5 c 128,-1,55
 918 256 918 256 1024 256 c 256,28,29
1024 1408 m 256,56,57
 1103 1408 1103 1408 1173 1377.5 c 128,-1,58
 1243 1347 1243 1347 1295 1295 c 128,-1,59
 1347 1243 1347 1243 1377.5 1173 c 128,-1,60
 1408 1103 1408 1103 1408 1024 c 256,61,62
 1408 945 1408 945 1377.5 875 c 128,-1,63
 1347 805 1347 805 1295 753 c 128,-1,64
 1243 701 1243 701 1173 670.5 c 128,-1,65
 1103 640 1103 640 1024 640 c 256,66,67
 945 640 945 640 875 670.5 c 128,-1,68
 805 701 805 701 753 753 c 128,-1,69
 701 805 701 805 670.5 875 c 128,-1,70
 640 945 640 945 640 1024 c 256,71,72
 640 1103 640 1103 670.5 1173 c 128,-1,73
 701 1243 701 1243 753 1295 c 128,-1,74
 805 1347 805 1347 875 1377.5 c 128,-1,75
 945 1408 945 1408 1024 1408 c 256,56,57
EndSplineSet
EndChar

StartChar: uniE704
Encoding: 59140 59140 22
Width: 2048
Flags: W
LayerCount: 2
Fore
SplineSet
896 1408 m 1,0,-1
 1024 1408 l 1,1,-1
 1024 0 l 1,2,-1
 896 0 l 1,3,-1
 896 1408 l 1,0,-1
372 1804 m 1,4,5
 314 1746 314 1746 268.5 1677.5 c 128,-1,6
 223 1609 223 1609 192 1534 c 128,-1,7
 161 1459 161 1459 144.5 1378.5 c 128,-1,8
 128 1298 128 1298 128 1216 c 256,9,10
 128 1134 128 1134 144.5 1053.5 c 128,-1,11
 161 973 161 973 192 898 c 128,-1,12
 223 823 223 823 268.5 754.5 c 128,-1,13
 314 686 314 686 372 628 c 1,14,-1
 281 537 l 1,15,16
 145 674 145 674 72.5 848.5 c 128,-1,17
 0 1023 0 1023 0 1216 c 256,18,19
 0 1409 0 1409 72.5 1583.5 c 128,-1,20
 145 1758 145 1758 281 1895 c 1,21,-1
 372 1804 l 1,4,5
1639 1895 m 1,22,23
 1775 1758 1775 1758 1847.5 1583.5 c 128,-1,24
 1920 1409 1920 1409 1920 1216 c 256,25,26
 1920 1023 1920 1023 1847.5 848.5 c 128,-1,27
 1775 674 1775 674 1639 537 c 1,28,-1
 1548 628 l 1,29,30
 1606 686 1606 686 1651.5 754.5 c 128,-1,31
 1697 823 1697 823 1728 898 c 128,-1,32
 1759 973 1759 973 1775.5 1053.5 c 128,-1,33
 1792 1134 1792 1134 1792 1216 c 256,34,35
 1792 1298 1792 1298 1775.5 1378.5 c 128,-1,36
 1759 1459 1759 1459 1728 1534 c 128,-1,37
 1697 1609 1697 1609 1651.5 1677.5 c 128,-1,38
 1606 1746 1606 1746 1548 1804 c 1,39,-1
 1639 1895 l 1,22,23
1367 1623 m 1,40,41
 1448 1542 1448 1542 1492 1436.5 c 128,-1,42
 1536 1331 1536 1331 1536 1216 c 256,43,44
 1536 1101 1536 1101 1492 995.5 c 128,-1,45
 1448 890 1448 890 1367 809 c 1,46,-1
 1277 899 l 1,47,48
 1340 962 1340 962 1373.5 1044.5 c 128,-1,49
 1407 1127 1407 1127 1407 1216 c 256,50,51
 1407 1305 1407 1305 1373.5 1387.5 c 128,-1,52
 1340 1470 1340 1470 1277 1533 c 1,53,-1
 1367 1623 l 1,40,41
643 1533 m 1,54,55
 580 1470 580 1470 546 1387.5 c 128,-1,56
 512 1305 512 1305 512 1216 c 256,57,58
 512 1127 512 1127 546 1044.5 c 128,-1,59
 580 962 580 962 643 899 c 1,60,-1
 553 809 l 1,61,62
 472 890 472 890 428 995.5 c 128,-1,63
 384 1101 384 1101 384 1216 c 256,64,65
 384 1331 384 1331 428 1436.5 c 128,-1,66
 472 1542 472 1542 553 1623 c 1,67,-1
 643 1533 l 1,54,55
EndSplineSet
EndChar

StartChar: uniE706
Encoding: 59142 59142 23
Width: 2048
Flags: W
LayerCount: 2
Fore
SplineSet
960 1536 m 256,0,1
 1053 1536 1053 1536 1134.5 1501 c 128,-1,2
 1216 1466 1216 1466 1277 1405 c 128,-1,3
 1338 1344 1338 1344 1373 1262.5 c 128,-1,4
 1408 1181 1408 1181 1408 1088 c 256,5,6
 1408 995 1408 995 1373 913.5 c 128,-1,7
 1338 832 1338 832 1277 771 c 128,-1,8
 1216 710 1216 710 1134.5 675 c 128,-1,9
 1053 640 1053 640 960 640 c 256,10,11
 867 640 867 640 785.5 675 c 128,-1,12
 704 710 704 710 643 771 c 128,-1,13
 582 832 582 832 547 913.5 c 128,-1,14
 512 995 512 995 512 1088 c 256,15,16
 512 1181 512 1181 547 1262.5 c 128,-1,17
 582 1344 582 1344 643 1405 c 128,-1,18
 704 1466 704 1466 785.5 1501 c 128,-1,19
 867 1536 867 1536 960 1536 c 256,0,1
960 768 m 256,20,21
 1026 768 1026 768 1084 793 c 128,-1,22
 1142 818 1142 818 1185.5 861.5 c 128,-1,23
 1229 905 1229 905 1254.5 963.5 c 128,-1,24
 1280 1022 1280 1022 1280 1088 c 256,25,26
 1280 1154 1280 1154 1254.5 1212 c 128,-1,27
 1229 1270 1229 1270 1185.5 1313.5 c 128,-1,28
 1142 1357 1142 1357 1084 1382.5 c 128,-1,29
 1026 1408 1026 1408 960 1408 c 256,30,31
 894 1408 894 1408 835.5 1382.5 c 128,-1,32
 777 1357 777 1357 733.5 1313.5 c 128,-1,33
 690 1270 690 1270 665 1212 c 128,-1,34
 640 1154 640 1154 640 1088 c 256,35,36
 640 1022 640 1022 665 963.5 c 128,-1,37
 690 905 690 905 733.5 861.5 c 128,-1,38
 777 818 777 818 835.5 793 c 128,-1,39
 894 768 894 768 960 768 c 256,20,21
1024 1664 m 1,40,-1
 896 1664 l 1,41,-1
 896 2048 l 1,42,-1
 1024 2048 l 1,43,-1
 1024 1664 l 1,40,-1
896 512 m 1,44,-1
 1024 512 l 1,45,-1
 1024 128 l 1,46,-1
 896 128 l 1,47,-1
 896 512 l 1,44,-1
1920 1152 m 1,48,-1
 1920 1024 l 1,49,-1
 1536 1024 l 1,50,-1
 1536 1152 l 1,51,-1
 1920 1152 l 1,48,-1
384 1024 m 1,52,-1
 0 1024 l 1,53,-1
 0 1152 l 1,54,-1
 384 1152 l 1,55,-1
 384 1024 l 1,52,-1
507 1450 m 1,56,-1
 236 1722 l 1,57,-1
 326 1812 l 1,58,-1
 598 1541 l 1,59,-1
 507 1450 l 1,56,-1
1413 726 m 1,60,-1
 1684 454 l 1,61,-1
 1594 364 l 1,62,-1
 1322 635 l 1,63,-1
 1413 726 l 1,60,-1
1413 1450 m 1,64,-1
 1322 1541 l 1,65,-1
 1594 1812 l 1,66,-1
 1684 1722 l 1,67,-1
 1413 1450 l 1,64,-1
507 726 m 1,68,-1
 598 635 l 1,69,-1
 326 364 l 1,70,-1
 236 454 l 1,71,-1
 507 726 l 1,68,-1
EndSplineSet
EndChar

StartChar: uniE707
Encoding: 59143 59143 24
Width: 2048
Flags: W
LayerCount: 2
Fore
SplineSet
1920 0 m 1,0,-1
 0 0 l 1,1,-1
 384 1152 l 1,2,-1
 896 1152 l 1,3,-1
 896 1414 l 1,4,5
 840 1426 840 1426 793 1455 c 128,-1,6
 746 1484 746 1484 712 1525.5 c 128,-1,7
 678 1567 678 1567 659 1619 c 128,-1,8
 640 1671 640 1671 640 1728 c 0,9,10
 640 1794 640 1794 665 1852 c 128,-1,11
 690 1910 690 1910 733.5 1953.5 c 128,-1,12
 777 1997 777 1997 835.5 2022.5 c 128,-1,13
 894 2048 894 2048 960 2048 c 256,14,15
 1026 2048 1026 2048 1084 2022.5 c 128,-1,16
 1142 1997 1142 1997 1185.5 1953.5 c 128,-1,17
 1229 1910 1229 1910 1254.5 1852 c 128,-1,18
 1280 1794 1280 1794 1280 1728 c 0,19,20
 1280 1671 1280 1671 1261 1619 c 128,-1,21
 1242 1567 1242 1567 1208 1525.5 c 128,-1,22
 1174 1484 1174 1484 1127 1455 c 128,-1,23
 1080 1426 1080 1426 1024 1414 c 1,24,-1
 1024 1152 l 1,25,-1
 1536 1152 l 1,26,-1
 1920 0 l 1,0,-1
768 1728 m 256,27,28
 768 1688 768 1688 783 1653 c 128,-1,29
 798 1618 798 1618 824 1592 c 128,-1,30
 850 1566 850 1566 885 1551 c 128,-1,31
 920 1536 920 1536 960 1536 c 256,32,33
 1000 1536 1000 1536 1035 1551 c 128,-1,34
 1070 1566 1070 1566 1096 1592 c 128,-1,35
 1122 1618 1122 1618 1137 1653 c 128,-1,36
 1152 1688 1152 1688 1152 1728 c 256,37,38
 1152 1768 1152 1768 1137 1803 c 128,-1,39
 1122 1838 1122 1838 1096 1864 c 128,-1,40
 1070 1890 1070 1890 1035 1905 c 128,-1,41
 1000 1920 1000 1920 960 1920 c 256,42,43
 920 1920 920 1920 885 1905 c 128,-1,44
 850 1890 850 1890 824 1864 c 128,-1,45
 798 1838 798 1838 783 1803 c 128,-1,46
 768 1768 768 1768 768 1728 c 256,27,28
178 128 m 1,47,-1
 1742 128 l 1,48,-1
 1444 1024 l 1,49,-1
 1024 1024 l 1,50,-1
 1024 544 l 2,51,52
 1024 535 1024 535 1016.5 528.5 c 128,-1,53
 1009 522 1009 522 998.5 518.5 c 128,-1,54
 988 515 988 515 977.5 513.5 c 128,-1,55
 967 512 967 512 960 512 c 256,56,57
 953 512 953 512 942.5 513.5 c 128,-1,58
 932 515 932 515 921.5 518.5 c 128,-1,59
 911 522 911 522 903.5 528.5 c 128,-1,60
 896 535 896 535 896 544 c 2,61,-1
 896 1024 l 1,62,-1
 476 1024 l 1,63,-1
 178 128 l 1,47,-1
EndSplineSet
EndChar

StartChar: uniE709
Encoding: 59145 59145 25
Width: 2048
Flags: W
LayerCount: 2
Fore
SplineSet
1792 1280 m 2,0,1
 1844 1280 1844 1280 1891 1259.5 c 128,-1,2
 1938 1239 1938 1239 1972.5 1204.5 c 128,-1,3
 2007 1170 2007 1170 2027.5 1123 c 128,-1,4
 2048 1076 2048 1076 2048 1024 c 0,5,6
 2048 971 2048 971 2027.5 924.5 c 128,-1,7
 2007 878 2007 878 1972.5 843.5 c 128,-1,8
 1938 809 1938 809 1891 788.5 c 128,-1,9
 1844 768 1844 768 1792 768 c 2,10,-1
 1344 768 l 1,11,-1
 960 0 l 1,12,-1
 512 0 l 1,13,-1
 768 768 l 1,14,-1
 512 768 l 1,15,-1
 448 640 l 1,16,-1
 0 640 l 1,17,-1
 128 1024 l 1,18,-1
 0 1408 l 1,19,-1
 448 1408 l 1,20,-1
 512 1280 l 1,21,-1
 768 1280 l 1,22,-1
 512 2048 l 1,23,-1
 960 2048 l 1,24,-1
 1344 1280 l 1,25,-1
 1792 1280 l 2,0,1
1792 896 m 2,26,27
 1819 896 1819 896 1842 906 c 128,-1,28
 1865 916 1865 916 1882.5 933.5 c 128,-1,29
 1900 951 1900 951 1910 974 c 128,-1,30
 1920 997 1920 997 1920 1024 c 256,31,32
 1920 1051 1920 1051 1910 1074 c 128,-1,33
 1900 1097 1900 1097 1882.5 1114.5 c 128,-1,34
 1865 1132 1865 1132 1842 1142 c 128,-1,35
 1819 1152 1819 1152 1792 1152 c 2,36,-1
 1265 1152 l 1,37,38
 1166 1344 1166 1344 1072 1535.5 c 128,-1,39
 978 1727 978 1727 881 1920 c 1,40,-1
 690 1920 l 1,41,42
 754 1727 754 1727 817 1535.5 c 128,-1,43
 880 1344 880 1344 946 1152 c 1,44,-1
 433 1152 l 1,45,-1
 369 1280 l 1,46,-1
 178 1280 l 1,47,48
 199 1216 199 1216 219.5 1152 c 128,-1,49
 240 1088 240 1088 263 1024 c 1,50,51
 240 960 240 960 219.5 896 c 128,-1,52
 199 832 199 832 178 768 c 1,53,-1
 369 768 l 1,54,-1
 433 896 l 1,55,-1
 946 896 l 1,56,57
 880 704 880 704 817 512.5 c 128,-1,58
 754 321 754 321 690 128 c 1,59,-1
 881 128 l 1,60,61
 978 321 978 321 1072 512.5 c 128,-1,62
 1166 704 1166 704 1265 896 c 1,63,-1
 1792 896 l 2,26,27
EndSplineSet
EndChar

StartChar: uniE70A
Encoding: 59146 59146 26
Width: 2048
Flags: W
LayerCount: 2
Fore
SplineSet
1888 1536 m 2,0,1
 1921 1536 1921 1536 1950 1523.5 c 128,-1,2
 1979 1511 1979 1511 2001 1489 c 128,-1,3
 2023 1467 2023 1467 2035.5 1438 c 128,-1,4
 2048 1409 2048 1409 2048 1376 c 2,5,-1
 2048 160 l 2,6,7
 2048 127 2048 127 2035.5 98 c 128,-1,8
 2023 69 2023 69 2001 47 c 128,-1,9
 1979 25 1979 25 1950 12.5 c 128,-1,10
 1921 0 1921 0 1888 0 c 2,11,-1
 160 0 l 2,12,13
 127 0 127 0 98 12.5 c 128,-1,14
 69 25 69 25 47 47 c 128,-1,15
 25 69 25 69 12.5 98 c 128,-1,16
 0 127 0 127 0 160 c 2,17,-1
 0 1376 l 2,18,19
 0 1409 0 1409 12.5 1438 c 128,-1,20
 25 1467 25 1467 47 1489 c 128,-1,21
 69 1511 69 1511 98 1523.5 c 128,-1,22
 127 1536 127 1536 160 1536 c 2,23,-1
 1888 1536 l 2,0,1
1920 1376 m 2,24,25
 1920 1390 1920 1390 1911 1399 c 128,-1,26
 1902 1408 1902 1408 1888 1408 c 2,27,-1
 160 1408 l 2,28,29
 146 1408 146 1408 137 1399 c 128,-1,30
 128 1390 128 1390 128 1376 c 2,31,-1
 128 160 l 2,32,33
 128 146 128 146 137 137 c 128,-1,34
 146 128 146 128 160 128 c 2,35,-1
 1888 128 l 2,36,37
 1902 128 1902 128 1911 137 c 128,-1,38
 1920 146 1920 146 1920 160 c 2,39,-1
 1920 1376 l 2,24,25
896 384 m 1,40,-1
 1152 384 l 1,41,-1
 1152 256 l 1,42,-1
 896 256 l 1,43,-1
 896 384 l 1,40,-1
EndSplineSet
EndChar

StartChar: uniE70B
Encoding: 59147 59147 27
Width: 2048
Flags: W
LayerCount: 2
Fore
SplineSet
1920 1920 m 1,0,-1
 1920 128 l 1,1,-1
 640 128 l 1,2,-1
 128 640 l 1,3,-1
 128 1920 l 1,4,-1
 1920 1920 l 1,0,-1
640 309 m 1,5,-1
 640 640 l 1,6,-1
 309 640 l 1,7,-1
 640 309 l 1,5,-1
1792 1792 m 1,8,-1
 256 1792 l 1,9,-1
 256 768 l 1,10,-1
 768 768 l 1,11,-1
 768 256 l 1,12,-1
 1792 256 l 1,13,-1
 1792 1792 l 1,8,-1
EndSplineSet
EndChar

StartChar: uniE70E
Encoding: 59150 59150 28
Width: 2048
Flags: W
LayerCount: 2
Fore
SplineSet
1955 515 m 1,0,-1
 1024 1445 l 1,1,-1
 93 515 l 1,2,-1
 3 605 l 1,3,-1
 1024 1627 l 1,4,-1
 2045 605 l 1,5,-1
 1955 515 l 1,0,-1
EndSplineSet
EndChar

StartChar: uniE712
Encoding: 59154 59154 29
Width: 2048
Flags: W
LayerCount: 2
Fore
SplineSet
256 1152 m 256,0,1
 283 1152 283 1152 306 1142 c 128,-1,2
 329 1132 329 1132 346.5 1114.5 c 128,-1,3
 364 1097 364 1097 374 1074 c 128,-1,4
 384 1051 384 1051 384 1024 c 256,5,6
 384 997 384 997 374 974 c 128,-1,7
 364 951 364 951 346.5 933.5 c 128,-1,8
 329 916 329 916 306 906 c 128,-1,9
 283 896 283 896 256 896 c 256,10,11
 229 896 229 896 206 906 c 128,-1,12
 183 916 183 916 165.5 933.5 c 128,-1,13
 148 951 148 951 138 974 c 128,-1,14
 128 997 128 997 128 1024 c 256,15,16
 128 1051 128 1051 138 1074 c 128,-1,17
 148 1097 148 1097 165.5 1114.5 c 128,-1,18
 183 1132 183 1132 206 1142 c 128,-1,19
 229 1152 229 1152 256 1152 c 256,0,1
1024 1152 m 256,20,21
 1051 1152 1051 1152 1074 1142 c 128,-1,22
 1097 1132 1097 1132 1114.5 1114.5 c 128,-1,23
 1132 1097 1132 1097 1142 1074 c 128,-1,24
 1152 1051 1152 1051 1152 1024 c 256,25,26
 1152 997 1152 997 1142 974 c 128,-1,27
 1132 951 1132 951 1114.5 933.5 c 128,-1,28
 1097 916 1097 916 1074 906 c 128,-1,29
 1051 896 1051 896 1024 896 c 256,30,31
 997 896 997 896 974 906 c 128,-1,32
 951 916 951 916 933.5 933.5 c 128,-1,33
 916 951 916 951 906 974 c 128,-1,34
 896 997 896 997 896 1024 c 256,35,36
 896 1051 896 1051 906 1074 c 128,-1,37
 916 1097 916 1097 933.5 1114.5 c 128,-1,38
 951 1132 951 1132 974 1142 c 128,-1,39
 997 1152 997 1152 1024 1152 c 256,20,21
1792 1152 m 256,40,41
 1819 1152 1819 1152 1842 1142 c 128,-1,42
 1865 1132 1865 1132 1882.5 1114.5 c 128,-1,43
 1900 1097 1900 1097 1910 1074 c 128,-1,44
 1920 1051 1920 1051 1920 1024 c 256,45,46
 1920 997 1920 997 1910 974 c 128,-1,47
 1900 951 1900 951 1882.5 933.5 c 128,-1,48
 1865 916 1865 916 1842 906 c 128,-1,49
 1819 896 1819 896 1792 896 c 256,50,51
 1765 896 1765 896 1742 906 c 128,-1,52
 1719 916 1719 916 1701.5 933.5 c 128,-1,53
 1684 951 1684 951 1674 974 c 128,-1,54
 1664 997 1664 997 1664 1024 c 256,55,56
 1664 1051 1664 1051 1674 1074 c 128,-1,57
 1684 1097 1684 1097 1701.5 1114.5 c 128,-1,58
 1719 1132 1719 1132 1742 1142 c 128,-1,59
 1765 1152 1765 1152 1792 1152 c 256,40,41
EndSplineSet
EndChar

StartChar: uniE714
Encoding: 59156 59156 30
Width: 2048
Flags: W
LayerCount: 2
Fore
SplineSet
2048 504 m 1,0,-1
 1536 760 l 1,1,-1
 1536 512 l 1,2,-1
 0 512 l 1,3,-1
 0 1536 l 1,4,-1
 1536 1536 l 1,5,-1
 1536 1288 l 1,6,-1
 2048 1544 l 1,7,-1
 2048 504 l 1,0,-1
1408 1408 m 1,8,-1
 128 1408 l 1,9,-1
 128 640 l 1,10,-1
 1408 640 l 1,11,-1
 1408 1408 l 1,8,-1
1920 1337 m 1,12,-1
 1536 1144 l 1,13,-1
 1536 904 l 1,14,-1
 1920 711 l 1,15,-1
 1920 1337 l 1,12,-1
EndSplineSet
EndChar

StartChar: uniE717
Encoding: 59159 59159 31
Width: 2048
Flags: W
LayerCount: 2
Fore
SplineSet
1607 835 m 256,0,1
 1651 835 1651 835 1691.5 818.5 c 128,-1,2
 1732 802 1732 802 1763 771 c 2,3,-1
 1983 551 l 2,4,5
 2014 520 2014 520 2030.5 479.5 c 128,-1,6
 2047 439 2047 439 2047 395 c 256,7,8
 2047 351 2047 351 2030.5 310.5 c 128,-1,9
 2014 270 2014 270 1983 239 c 2,10,-1
 1969 225 l 2,11,12
 1915 171 1915 171 1870 129 c 128,-1,13
 1825 87 1825 87 1776 58.5 c 128,-1,14
 1727 30 1727 30 1667 15 c 128,-1,15
 1607 0 1607 0 1524 0 c 0,16,17
 1399 0 1399 0 1267 39 c 128,-1,18
 1135 78 1135 78 1004.5 147 c 128,-1,19
 874 216 874 216 748.5 311 c 128,-1,20
 623 406 623 406 511.5 518.5 c 128,-1,21
 400 631 400 631 306 756.5 c 128,-1,22
 212 882 212 882 144 1012.5 c 128,-1,23
 76 1143 76 1143 38 1273 c 128,-1,24
 0 1403 0 1403 0 1525 c 0,25,26
 0 1608 0 1608 14.5 1667 c 128,-1,27
 29 1726 29 1726 57.5 1775 c 128,-1,28
 86 1824 86 1824 127.5 1868.5 c 128,-1,29
 169 1913 169 1913 223 1967 c 2,30,-1
 239 1983 l 2,31,32
 270 2014 270 2014 310 2031 c 128,-1,33
 350 2048 350 2048 395 2048 c 0,34,35
 439 2048 439 2048 479.5 2031 c 128,-1,36
 520 2014 520 2014 551 1983 c 2,37,-1
 771 1763 l 2,38,39
 802 1732 802 1732 818.5 1691.5 c 128,-1,40
 835 1651 835 1651 835 1607 c 256,41,42
 835 1563 835 1563 820 1528.5 c 128,-1,43
 805 1494 805 1494 783 1466 c 128,-1,44
 761 1438 761 1438 734.5 1415 c 128,-1,45
 708 1392 708 1392 686 1370 c 128,-1,46
 664 1348 664 1348 649 1325.5 c 128,-1,47
 634 1303 634 1303 634 1277 c 0,48,49
 634 1239 634 1239 661 1212 c 2,50,-1
 1212 661 l 2,51,52
 1239 634 1239 634 1277 634 c 0,53,54
 1303 634 1303 634 1325.5 649 c 128,-1,55
 1348 664 1348 664 1370 686 c 128,-1,56
 1392 708 1392 708 1415 734.5 c 128,-1,57
 1438 761 1438 761 1466 783 c 128,-1,58
 1494 805 1494 805 1528.5 820 c 128,-1,59
 1563 835 1563 835 1607 835 c 256,0,1
1524 128 m 0,60,61
 1596 128 1596 128 1644.5 141.5 c 128,-1,62
 1693 155 1693 155 1732 180.5 c 128,-1,63
 1771 206 1771 206 1808 244 c 128,-1,64
 1845 282 1845 282 1893 330 c 0,65,66
 1920 357 1920 357 1920 395 c 0,67,68
 1920 413 1920 413 1905.5 437.5 c 128,-1,69
 1891 462 1891 462 1868 489 c 128,-1,70
 1845 516 1845 516 1816.5 544.5 c 128,-1,71
 1788 573 1788 573 1760.5 598.5 c 128,-1,72
 1733 624 1733 624 1709.5 645.5 c 128,-1,73
 1686 667 1686 667 1673 680 c 0,74,75
 1646 707 1646 707 1607 707 c 0,76,77
 1581 707 1581 707 1559 692 c 128,-1,78
 1537 677 1537 677 1515 655 c 128,-1,79
 1493 633 1493 633 1469.5 606.5 c 128,-1,80
 1446 580 1446 580 1418 558 c 128,-1,81
 1390 536 1390 536 1355.5 521 c 128,-1,82
 1321 506 1321 506 1277 506 c 256,83,84
 1233 506 1233 506 1192.5 522.5 c 128,-1,85
 1152 539 1152 539 1121 570 c 2,86,-1
 570 1121 l 2,87,88
 539 1152 539 1152 522.5 1192.5 c 128,-1,89
 506 1233 506 1233 506 1277 c 256,90,91
 506 1321 506 1321 521 1355.5 c 128,-1,92
 536 1390 536 1390 558 1418 c 128,-1,93
 580 1446 580 1446 606.5 1469.5 c 128,-1,94
 633 1493 633 1493 655 1515 c 128,-1,95
 677 1537 677 1537 692 1559 c 128,-1,96
 707 1581 707 1581 707 1607 c 0,97,98
 707 1646 707 1646 680 1673 c 0,99,100
 667 1686 667 1686 645.5 1709.5 c 128,-1,101
 624 1733 624 1733 598.5 1760.5 c 128,-1,102
 573 1788 573 1788 544.5 1816.5 c 128,-1,103
 516 1845 516 1845 489 1868 c 128,-1,104
 462 1891 462 1891 437.5 1905.5 c 128,-1,105
 413 1920 413 1920 395 1920 c 0,106,107
 357 1920 357 1920 330 1893 c 0,108,109
 282 1845 282 1845 244.5 1808 c 128,-1,110
 207 1771 207 1771 180.5 1732 c 128,-1,111
 154 1693 154 1693 140.5 1644.5 c 128,-1,112
 127 1596 127 1596 127 1525 c 0,113,114
 127 1413 127 1413 163.5 1294 c 128,-1,115
 200 1175 200 1175 264.5 1056 c 128,-1,116
 329 937 329 937 417 821.5 c 128,-1,117
 505 706 505 706 609 603 c 128,-1,118
 713 500 713 500 828.5 413 c 128,-1,119
 944 326 944 326 1062.5 262.5 c 128,-1,120
 1181 199 1181 199 1298.5 163.5 c 128,-1,121
 1416 128 1416 128 1524 128 c 0,60,61
EndSplineSet
EndChar

StartChar: uniE71A
Encoding: 59162 59162 32
Width: 2048
Flags: W
LayerCount: 2
Fore
SplineSet
1920 1920 m 1,0,-1
 1920 128 l 1,1,-1
 128 128 l 1,2,-1
 128 1920 l 1,3,-1
 1920 1920 l 1,0,-1
1792 1792 m 1,4,-1
 256 1792 l 1,5,-1
 256 256 l 1,6,-1
 1792 256 l 1,7,-1
 1792 1792 l 1,4,-1
EndSplineSet
EndChar

StartChar: uniE71B
Encoding: 59163 59163 33
Width: 2048
Flags: W
LayerCount: 2
Fore
SplineSet
1536 1280 m 1,0,-1
 1536 1152 l 1,1,2
 1612 1152 1612 1152 1681.5 1134.5 c 128,-1,3
 1751 1117 1751 1117 1804 1078.5 c 128,-1,4
 1857 1040 1857 1040 1888.5 979.5 c 128,-1,5
 1920 919 1920 919 1920 832 c 0,6,7
 1920 766 1920 766 1894.5 708 c 128,-1,8
 1869 650 1869 650 1825.5 606.5 c 128,-1,9
 1782 563 1782 563 1724 537.5 c 128,-1,10
 1666 512 1666 512 1600 512 c 2,11,-1
 1088 512 l 2,12,13
 1022 512 1022 512 964 537.5 c 128,-1,14
 906 563 906 563 862.5 606.5 c 128,-1,15
 819 650 819 650 793.5 708 c 128,-1,16
 768 766 768 766 768 832 c 0,17,18
 768 919 768 919 799.5 979.5 c 128,-1,19
 831 1040 831 1040 884 1078.5 c 128,-1,20
 937 1117 937 1117 1006.5 1134.5 c 128,-1,21
 1076 1152 1076 1152 1152 1152 c 1,22,-1
 1152 1280 l 1,23,-1
 1088 1280 l 2,24,25
 995 1280 995 1280 913.5 1244.5 c 128,-1,26
 832 1209 832 1209 771.5 1148.5 c 128,-1,27
 711 1088 711 1088 675.5 1006.5 c 128,-1,28
 640 925 640 925 640 832 c 256,29,30
 640 739 640 739 675.5 657.5 c 128,-1,31
 711 576 711 576 771.5 515.5 c 128,-1,32
 832 455 832 455 913.5 419.5 c 128,-1,33
 995 384 995 384 1088 384 c 2,34,-1
 1600 384 l 2,35,36
 1693 384 1693 384 1774.5 419.5 c 128,-1,37
 1856 455 1856 455 1916.5 515.5 c 128,-1,38
 1977 576 1977 576 2012.5 657.5 c 128,-1,39
 2048 739 2048 739 2048 832 c 256,40,41
 2048 925 2048 925 2012.5 1006.5 c 128,-1,42
 1977 1088 1977 1088 1916.5 1148.5 c 128,-1,43
 1856 1209 1856 1209 1774.5 1244.5 c 128,-1,44
 1693 1280 1693 1280 1600 1280 c 2,45,-1
 1536 1280 l 1,0,-1
896 768 m 1,46,-1
 896 896 l 1,47,48
 972 896 972 896 1041.5 913.5 c 128,-1,49
 1111 931 1111 931 1164 969.5 c 128,-1,50
 1217 1008 1217 1008 1248.5 1068.5 c 128,-1,51
 1280 1129 1280 1129 1280 1216 c 0,52,53
 1280 1282 1280 1282 1254.5 1340 c 128,-1,54
 1229 1398 1229 1398 1185.5 1441.5 c 128,-1,55
 1142 1485 1142 1485 1084 1510.5 c 128,-1,56
 1026 1536 1026 1536 960 1536 c 2,57,-1
 448 1536 l 2,58,59
 382 1536 382 1536 324 1510.5 c 128,-1,60
 266 1485 266 1485 222.5 1441.5 c 128,-1,61
 179 1398 179 1398 153.5 1340 c 128,-1,62
 128 1282 128 1282 128 1216 c 0,63,64
 128 1129 128 1129 159.5 1068.5 c 128,-1,65
 191 1008 191 1008 244 969.5 c 128,-1,66
 297 931 297 931 366.5 913.5 c 128,-1,67
 436 896 436 896 512 896 c 1,68,-1
 512 768 l 1,69,-1
 448 768 l 2,70,71
 355 768 355 768 273.5 803.5 c 128,-1,72
 192 839 192 839 131.5 899.5 c 128,-1,73
 71 960 71 960 35.5 1041.5 c 128,-1,74
 0 1123 0 1123 0 1216 c 256,75,76
 0 1309 0 1309 35.5 1390.5 c 128,-1,77
 71 1472 71 1472 131.5 1532.5 c 128,-1,78
 192 1593 192 1593 273.5 1628.5 c 128,-1,79
 355 1664 355 1664 448 1664 c 2,80,-1
 960 1664 l 2,81,82
 1053 1664 1053 1664 1134.5 1628.5 c 128,-1,83
 1216 1593 1216 1593 1276.5 1532.5 c 128,-1,84
 1337 1472 1337 1472 1372.5 1390.5 c 128,-1,85
 1408 1309 1408 1309 1408 1216 c 256,86,87
 1408 1123 1408 1123 1372.5 1041.5 c 128,-1,88
 1337 960 1337 960 1276.5 899.5 c 128,-1,89
 1216 839 1216 839 1134.5 803.5 c 128,-1,90
 1053 768 1053 768 960 768 c 2,91,-1
 896 768 l 1,46,-1
EndSplineSet
EndChar

StartChar: uniE71E
Encoding: 59166 59166 34
Width: 2048
Flags: W
LayerCount: 2
Fore
SplineSet
2048 70 m 0,0,1
 2048 42 2048 42 2031 21 c 128,-1,2
 2014 0 2014 0 1984 0 c 0,3,4
 1958 0 1958 0 1939 19 c 2,5,-1
 1154 803 l 1,6,7
 1058 724 1058 724 943.5 682 c 128,-1,8
 829 640 829 640 704 640 c 0,9,10
 607 640 607 640 517 665 c 128,-1,11
 427 690 427 690 349 736 c 128,-1,12
 271 782 271 782 206.5 846.5 c 128,-1,13
 142 911 142 911 96 989 c 128,-1,14
 50 1067 50 1067 25 1157 c 128,-1,15
 0 1247 0 1247 0 1344 c 256,16,17
 0 1441 0 1441 25 1531 c 128,-1,18
 50 1621 50 1621 96 1699 c 128,-1,19
 142 1777 142 1777 206.5 1841.5 c 128,-1,20
 271 1906 271 1906 349 1952 c 128,-1,21
 427 1998 427 1998 517 2023 c 128,-1,22
 607 2048 607 2048 704 2048 c 256,23,24
 801 2048 801 2048 891 2023 c 128,-1,25
 981 1998 981 1998 1059 1952 c 128,-1,26
 1137 1906 1137 1906 1201.5 1841.5 c 128,-1,27
 1266 1777 1266 1777 1312 1699 c 128,-1,28
 1358 1621 1358 1621 1383 1531 c 128,-1,29
 1408 1441 1408 1441 1408 1344 c 0,30,31
 1408 1219 1408 1219 1366 1104.5 c 128,-1,32
 1324 990 1324 990 1245 894 c 1,33,34
 1260 879 1260 879 1302.5 837 c 128,-1,35
 1345 795 1345 795 1404.5 737 c 128,-1,36
 1464 679 1464 679 1534.5 609.5 c 128,-1,37
 1605 540 1605 540 1676.5 468.5 c 128,-1,38
 1748 397 1748 397 1815 329 c 128,-1,39
 1882 261 1882 261 1934 206 c 128,-1,40
 1986 151 1986 151 2017 114.5 c 128,-1,41
 2048 78 2048 78 2048 70 c 0,0,1
704 768 m 256,42,43
 823 768 823 768 928 813.5 c 128,-1,44
 1033 859 1033 859 1111 937 c 128,-1,45
 1189 1015 1189 1015 1234.5 1120 c 128,-1,46
 1280 1225 1280 1225 1280 1344 c 256,47,48
 1280 1463 1280 1463 1234.5 1568 c 128,-1,49
 1189 1673 1189 1673 1111 1751 c 128,-1,50
 1033 1829 1033 1829 928 1874.5 c 128,-1,51
 823 1920 823 1920 704 1920 c 256,52,53
 585 1920 585 1920 480 1874.5 c 128,-1,54
 375 1829 375 1829 297 1751 c 128,-1,55
 219 1673 219 1673 173.5 1568 c 128,-1,56
 128 1463 128 1463 128 1344 c 256,57,58
 128 1225 128 1225 173.5 1120 c 128,-1,59
 219 1015 219 1015 297 937 c 128,-1,60
 375 859 375 859 480 813.5 c 128,-1,61
 585 768 585 768 704 768 c 256,42,43
EndSplineSet
EndChar

StartChar: uniE71F
Encoding: 59167 59167 35
Width: 2048
Flags: W
LayerCount: 2
Fore
SplineSet
2048 70 m 0,0,1
 2048 42 2048 42 2031 21 c 128,-1,2
 2014 0 2014 0 1984 0 c 0,3,4
 1958 0 1958 0 1939 19 c 2,5,-1
 1154 803 l 1,6,7
 1058 724 1058 724 943.5 682 c 128,-1,8
 829 640 829 640 704 640 c 0,9,10
 607 640 607 640 517 665 c 128,-1,11
 427 690 427 690 349 736 c 128,-1,12
 271 782 271 782 206.5 846.5 c 128,-1,13
 142 911 142 911 96 989 c 128,-1,14
 50 1067 50 1067 25 1157 c 128,-1,15
 0 1247 0 1247 0 1344 c 256,16,17
 0 1441 0 1441 25 1531 c 128,-1,18
 50 1621 50 1621 96 1699 c 128,-1,19
 142 1777 142 1777 206.5 1841.5 c 128,-1,20
 271 1906 271 1906 349 1952 c 128,-1,21
 427 1998 427 1998 517 2023 c 128,-1,22
 607 2048 607 2048 704 2048 c 256,23,24
 801 2048 801 2048 891 2023 c 128,-1,25
 981 1998 981 1998 1059 1952 c 128,-1,26
 1137 1906 1137 1906 1201.5 1841.5 c 128,-1,27
 1266 1777 1266 1777 1312 1699 c 128,-1,28
 1358 1621 1358 1621 1383 1531 c 128,-1,29
 1408 1441 1408 1441 1408 1344 c 0,30,31
 1408 1219 1408 1219 1366 1104.5 c 128,-1,32
 1324 990 1324 990 1245 894 c 1,33,34
 1260 879 1260 879 1302.5 837 c 128,-1,35
 1345 795 1345 795 1404.5 737 c 128,-1,36
 1464 679 1464 679 1534.5 609.5 c 128,-1,37
 1605 540 1605 540 1676.5 468.5 c 128,-1,38
 1748 397 1748 397 1815 329 c 128,-1,39
 1882 261 1882 261 1934 206 c 128,-1,40
 1986 151 1986 151 2017 114.5 c 128,-1,41
 2048 78 2048 78 2048 70 c 0,0,1
704 768 m 256,42,43
 823 768 823 768 928 813.5 c 128,-1,44
 1033 859 1033 859 1111 937 c 128,-1,45
 1189 1015 1189 1015 1234.5 1120 c 128,-1,46
 1280 1225 1280 1225 1280 1344 c 256,47,48
 1280 1463 1280 1463 1234.5 1568 c 128,-1,49
 1189 1673 1189 1673 1111 1751 c 128,-1,50
 1033 1829 1033 1829 928 1874.5 c 128,-1,51
 823 1920 823 1920 704 1920 c 256,52,53
 585 1920 585 1920 480 1874.5 c 128,-1,54
 375 1829 375 1829 297 1751 c 128,-1,55
 219 1673 219 1673 173.5 1568 c 128,-1,56
 128 1463 128 1463 128 1344 c 256,57,58
 128 1225 128 1225 173.5 1120 c 128,-1,59
 219 1015 219 1015 297 937 c 128,-1,60
 375 859 375 859 480 813.5 c 128,-1,61
 585 768 585 768 704 768 c 256,42,43
384 1408 m 1,62,-1
 1024 1408 l 1,63,-1
 1024 1280 l 1,64,-1
 384 1280 l 1,65,-1
 384 1408 l 1,62,-1
EndSplineSet
EndChar

StartChar: uniE720
Encoding: 59168 59168 36
Width: 2048
Flags: W
LayerCount: 2
Fore
SplineSet
704 512 m 2,0,1
 664 512 664 512 629 527 c 128,-1,2
 594 542 594 542 568 568 c 128,-1,3
 542 594 542 594 527 629 c 128,-1,4
 512 664 512 664 512 704 c 2,5,-1
 512 1856 l 2,6,7
 512 1896 512 1896 527 1931 c 128,-1,8
 542 1966 542 1966 568 1992 c 128,-1,9
 594 2018 594 2018 629 2033 c 128,-1,10
 664 2048 664 2048 704 2048 c 2,11,-1
 1216 2048 l 2,12,13
 1256 2048 1256 2048 1291 2033 c 128,-1,14
 1326 2018 1326 2018 1352 1992 c 128,-1,15
 1378 1966 1378 1966 1393 1931 c 128,-1,16
 1408 1896 1408 1896 1408 1856 c 2,17,-1
 1408 704 l 2,18,19
 1408 664 1408 664 1393 629 c 128,-1,20
 1378 594 1378 594 1352 568 c 128,-1,21
 1326 542 1326 542 1291 527 c 128,-1,22
 1256 512 1256 512 1216 512 c 2,23,-1
 704 512 l 2,0,1
640 704 m 2,24,25
 640 678 640 678 659 659 c 128,-1,26
 678 640 678 640 704 640 c 2,27,-1
 1216 640 l 2,28,29
 1242 640 1242 640 1261 659 c 128,-1,30
 1280 678 1280 678 1280 704 c 2,31,-1
 1280 1856 l 2,32,33
 1280 1882 1280 1882 1261 1901 c 128,-1,34
 1242 1920 1242 1920 1216 1920 c 2,35,-1
 704 1920 l 2,36,37
 678 1920 678 1920 659 1901 c 128,-1,38
 640 1882 640 1882 640 1856 c 2,39,-1
 640 704 l 2,24,25
1664 1024 m 1,40,-1
 1664 662 l 2,41,42
 1664 578 1664 578 1632 504 c 128,-1,43
 1600 430 1600 430 1545 375 c 128,-1,44
 1490 320 1490 320 1416 288 c 128,-1,45
 1342 256 1342 256 1258 256 c 2,46,-1
 1024 256 l 1,47,-1
 1024 128 l 1,48,-1
 1280 128 l 1,49,-1
 1280 0 l 1,50,-1
 640 0 l 1,51,-1
 640 128 l 1,52,-1
 896 128 l 1,53,-1
 896 256 l 1,54,-1
 662 256 l 2,55,56
 578 256 578 256 504 288 c 128,-1,57
 430 320 430 320 375 375 c 128,-1,58
 320 430 320 430 288 504 c 128,-1,59
 256 578 256 578 256 662 c 2,60,-1
 256 1024 l 1,61,-1
 384 1024 l 1,62,-1
 384 662 l 2,63,64
 384 605 384 605 406 554 c 128,-1,65
 428 503 428 503 465.5 465.5 c 128,-1,66
 503 428 503 428 554 406 c 128,-1,67
 605 384 605 384 662 384 c 2,68,-1
 1258 384 l 2,69,70
 1315 384 1315 384 1366 406 c 128,-1,71
 1417 428 1417 428 1454.5 465.5 c 128,-1,72
 1492 503 1492 503 1514 554 c 128,-1,73
 1536 605 1536 605 1536 662 c 2,74,-1
 1536 1024 l 1,75,-1
 1664 1024 l 1,40,-1
EndSplineSet
EndChar

StartChar: uniE728
Encoding: 59176 59176 37
Width: 2048
Flags: W
LayerCount: 2
Fore
SplineSet
2048 1280 m 1,0,-1
 2048 1152 l 1,1,-1
 1170 1152 l 1,2,3
 1134 1270 1134 1270 1097.5 1385.5 c 128,-1,4
 1061 1501 1061 1501 1024 1619 c 1,5,6
 987 1501 987 1501 950.5 1385.5 c 128,-1,7
 914 1270 914 1270 878 1152 c 1,8,-1
 376 1152 l 1,9,10
 478 1074 478 1074 578 996 c 128,-1,11
 678 918 678 918 781 841 c 1,12,13
 741 717 741 717 703 594.5 c 128,-1,14
 665 472 665 472 627 348 c 1,15,-1
 1024 654 l 1,16,-1
 1024 492 l 1,17,-1
 384 0 l 1,18,-1
 632 794 l 1,19,-1
 0 1280 l 1,20,-1
 784 1280 l 1,21,-1
 1024 2048 l 1,22,-1
 1264 1280 l 1,23,-1
 2048 1280 l 1,0,-1
1152 896 m 1,24,-1
 2048 896 l 1,25,-1
 2048 768 l 1,26,-1
 1152 768 l 1,27,-1
 1152 896 l 1,24,-1
1152 512 m 1,28,-1
 2048 512 l 1,29,-1
 2048 384 l 1,30,-1
 1152 384 l 1,31,-1
 1152 512 l 1,28,-1
EndSplineSet
EndChar

StartChar: uniE729
Encoding: 59177 59177 38
Width: 2048
Flags: W
LayerCount: 2
Fore
SplineSet
1755 1536 m 1,0,-1
 1280 1536 l 1,1,-1
 1280 2011 l 1,2,-1
 1755 1536 l 1,0,-1
1792 1408 m 1,3,-1
 1792 0 l 1,4,-1
 128 0 l 1,5,-1
 128 2048 l 1,6,-1
 1152 2048 l 1,7,-1
 1152 1408 l 1,8,-1
 1792 1408 l 1,3,-1
EndSplineSet
EndChar

StartChar: uniE72A
Encoding: 59178 59178 39
Width: 2048
Flags: W
LayerCount: 2
Fore
SplineSet
2042 1024 m 1,0,-1
 1101 83 l 1,1,-1
 1011 173 l 1,2,-1
 1798 960 l 1,3,-1
 0 960 l 1,4,-1
 0 1088 l 1,5,-1
 1798 1088 l 1,6,-1
 1011 1875 l 1,7,-1
 1101 1965 l 1,8,-1
 2042 1024 l 1,0,-1
EndSplineSet
EndChar

StartChar: uniE72B
Encoding: 59179 59179 40
Width: 2048
Flags: W
LayerCount: 2
Fore
SplineSet
2048 960 m 1,0,-1
 250 960 l 1,1,-1
 1037 173 l 1,2,-1
 947 83 l 1,3,-1
 6 1024 l 1,4,-1
 947 1965 l 1,5,-1
 1037 1875 l 1,6,-1
 250 1088 l 1,7,-1
 2048 1088 l 1,8,-1
 2048 960 l 1,0,-1
EndSplineSet
EndChar

StartChar: uniE72C
Encoding: 59180 59180 41
Width: 2048
Flags: W
LayerCount: 2
Fore
SplineSet
1297 2010 m 1,0,1
 1463 1965 1463 1965 1601 1869.5 c 128,-1,2
 1739 1774 1739 1774 1838.5 1643.5 c 128,-1,3
 1938 1513 1938 1513 1993 1354.5 c 128,-1,4
 2048 1196 2048 1196 2048 1024 c 0,5,6
 2048 883 2048 883 2011.5 752 c 128,-1,7
 1975 621 1975 621 1908.5 507 c 128,-1,8
 1842 393 1842 393 1748.5 299.5 c 128,-1,9
 1655 206 1655 206 1541 139.5 c 128,-1,10
 1427 73 1427 73 1296 36.5 c 128,-1,11
 1165 0 1165 0 1024 0 c 256,12,13
 883 0 883 0 752 36.5 c 128,-1,14
 621 73 621 73 507 139.5 c 128,-1,15
 393 206 393 206 299.5 299.5 c 128,-1,16
 206 393 206 393 139.5 507 c 128,-1,17
 73 621 73 621 36.5 751.5 c 128,-1,18
 0 882 0 882 0 1024 c 0,19,20
 0 1164 0 1164 37 1296 c 128,-1,21
 74 1428 74 1428 142.5 1544.5 c 128,-1,22
 211 1661 211 1661 309 1756.5 c 128,-1,23
 407 1852 407 1852 530 1920 c 1,24,-1
 256 1920 l 1,25,-1
 256 2048 l 1,26,-1
 768 2048 l 1,27,-1
 768 1536 l 1,28,-1
 640 1536 l 1,29,-1
 640 1833 l 1,30,31
 523 1777 523 1777 428.5 1692.5 c 128,-1,32
 334 1608 334 1608 267 1502.5 c 128,-1,33
 200 1397 200 1397 164 1275 c 128,-1,34
 128 1153 128 1153 128 1024 c 0,35,36
 128 901 128 901 160 786.5 c 128,-1,37
 192 672 192 672 250.5 572.5 c 128,-1,38
 309 473 309 473 391 391 c 128,-1,39
 473 309 473 309 572.5 250.5 c 128,-1,40
 672 192 672 192 786 160 c 128,-1,41
 900 128 900 128 1024 128 c 0,42,43
 1147 128 1147 128 1261.5 160 c 128,-1,44
 1376 192 1376 192 1475.5 250.5 c 128,-1,45
 1575 309 1575 309 1657 391 c 128,-1,46
 1739 473 1739 473 1797.5 572.5 c 128,-1,47
 1856 672 1856 672 1888 786 c 128,-1,48
 1920 900 1920 900 1920 1024 c 0,49,50
 1920 1174 1920 1174 1871.5 1313 c 128,-1,51
 1823 1452 1823 1452 1736 1566 c 128,-1,52
 1649 1680 1649 1680 1528.5 1763.5 c 128,-1,53
 1408 1847 1408 1847 1263 1887 c 1,54,-1
 1297 2010 l 1,55,-1
 1297 2010 l 1,0,1
EndSplineSet
EndChar

StartChar: uniE72E
Encoding: 59182 59182 42
Width: 2048
Flags: W
LayerCount: 2
Fore
SplineSet
1792 1152 m 1,0,-1
 1792 0 l 1,1,-1
 256 0 l 1,2,-1
 256 1152 l 1,3,-1
 512 1152 l 1,4,-1
 512 1526 l 2,5,6
 512 1634 512 1634 551 1729 c 128,-1,7
 590 1824 590 1824 659 1895 c 128,-1,8
 728 1966 728 1966 821.5 2007 c 128,-1,9
 915 2048 915 2048 1024 2048 c 256,10,11
 1133 2048 1133 2048 1226.5 2007 c 128,-1,12
 1320 1966 1320 1966 1389 1895 c 128,-1,13
 1458 1824 1458 1824 1497 1729 c 128,-1,14
 1536 1634 1536 1634 1536 1526 c 2,15,-1
 1536 1152 l 1,16,-1
 1792 1152 l 1,0,-1
640 1152 m 1,17,-1
 1408 1152 l 1,18,-1
 1408 1526 l 2,19,20
 1408 1607 1408 1607 1379 1678.5 c 128,-1,21
 1350 1750 1350 1750 1298.5 1804 c 128,-1,22
 1247 1858 1247 1858 1176.5 1889 c 128,-1,23
 1106 1920 1106 1920 1024 1920 c 256,24,25
 942 1920 942 1920 871.5 1889 c 128,-1,26
 801 1858 801 1858 749.5 1804 c 128,-1,27
 698 1750 698 1750 669 1678.5 c 128,-1,28
 640 1607 640 1607 640 1526 c 2,29,-1
 640 1152 l 1,17,-1
1664 1024 m 1,30,-1
 384 1024 l 1,31,-1
 384 128 l 1,32,-1
 1664 128 l 1,33,-1
 1664 1024 l 1,30,-1
EndSplineSet
EndChar

StartChar: uniE733
Encoding: 59187 59187 43
Width: 2048
Flags: W
LayerCount: 2
Fore
SplineSet
1024 2048 m 256,0,1
 1165 2048 1165 2048 1295.5 2011.5 c 128,-1,2
 1426 1975 1426 1975 1540 1908 c 128,-1,3
 1654 1841 1654 1841 1747.5 1747.5 c 128,-1,4
 1841 1654 1841 1654 1908 1540 c 128,-1,5
 1975 1426 1975 1426 2011.5 1295.5 c 128,-1,6
 2048 1165 2048 1165 2048 1024 c 256,7,8
 2048 883 2048 883 2011.5 752.5 c 128,-1,9
 1975 622 1975 622 1908 508 c 128,-1,10
 1841 394 1841 394 1747.5 300.5 c 128,-1,11
 1654 207 1654 207 1540 140 c 128,-1,12
 1426 73 1426 73 1295.5 36.5 c 128,-1,13
 1165 0 1165 0 1024 0 c 256,14,15
 883 0 883 0 752.5 36.5 c 128,-1,16
 622 73 622 73 508 140 c 128,-1,17
 394 207 394 207 300.5 300.5 c 128,-1,18
 207 394 207 394 140 508 c 128,-1,19
 73 622 73 622 36.5 752.5 c 128,-1,20
 0 883 0 883 0 1024 c 256,21,22
 0 1165 0 1165 36.5 1295.5 c 128,-1,23
 73 1426 73 1426 140 1540 c 128,-1,24
 207 1654 207 1654 300.5 1747.5 c 128,-1,25
 394 1841 394 1841 508 1908 c 128,-1,26
 622 1975 622 1975 752.5 2011.5 c 128,-1,27
 883 2048 883 2048 1024 2048 c 256,0,1
1024 128 m 0,28,29
 1188 128 1188 128 1337.5 184 c 128,-1,30
 1487 240 1487 240 1611 347 c 1,31,-1
 347 1611 l 1,32,33
 240 1487 240 1487 184 1337.5 c 128,-1,34
 128 1188 128 1188 128 1024 c 0,35,36
 128 900 128 900 160 785.5 c 128,-1,37
 192 671 192 671 250.5 571.5 c 128,-1,38
 309 472 309 472 390.5 390.5 c 128,-1,39
 472 309 472 309 571.5 250.5 c 128,-1,40
 671 192 671 192 785.5 160 c 128,-1,41
 900 128 900 128 1024 128 c 0,28,29
1701 437 m 1,42,43
 1808 561 1808 561 1864 710.5 c 128,-1,44
 1920 860 1920 860 1920 1024 c 0,45,46
 1920 1148 1920 1148 1888 1262.5 c 128,-1,47
 1856 1377 1856 1377 1797.5 1476.5 c 128,-1,48
 1739 1576 1739 1576 1657.5 1657.5 c 128,-1,49
 1576 1739 1576 1739 1476.5 1797.5 c 128,-1,50
 1377 1856 1377 1856 1262.5 1888 c 128,-1,51
 1148 1920 1148 1920 1024 1920 c 0,52,53
 860 1920 860 1920 710.5 1864 c 128,-1,54
 561 1808 561 1808 437 1701 c 1,55,-1
 1701 437 l 1,42,43
EndSplineSet
EndChar

StartChar: uniE734
Encoding: 59188 59188 44
Width: 2048
Flags: W
LayerCount: 2
Fore
SplineSet
1416 794 m 1,0,-1
 1664 0 l 1,1,-1
 1024 492 l 1,2,-1
 384 0 l 1,3,-1
 632 794 l 1,4,-1
 0 1280 l 1,5,-1
 784 1280 l 1,6,-1
 1024 2048 l 1,7,-1
 1264 1280 l 1,8,-1
 2048 1280 l 1,9,-1
 1416 794 l 1,0,-1
1421 348 m 1,10,11
 1383 472 1383 472 1345 594.5 c 128,-1,12
 1307 717 1307 717 1267 841 c 1,13,14
 1370 918 1370 918 1470 996 c 128,-1,15
 1570 1074 1570 1074 1672 1152 c 1,16,-1
 1170 1152 l 1,17,-1
 1024 1619 l 1,18,-1
 878 1152 l 1,19,-1
 376 1152 l 1,20,21
 478 1074 478 1074 578 996 c 128,-1,22
 678 918 678 918 781 841 c 1,23,24
 741 717 741 717 703 594.5 c 128,-1,25
 665 472 665 472 627 348 c 1,26,-1
 1024 654 l 1,27,-1
 1421 348 l 1,10,11
EndSplineSet
EndChar

StartChar: uniE736
Encoding: 59190 59190 45
Width: 2048
Flags: W
LayerCount: 2
Fore
SplineSet
1920 1792 m 1,0,-1
 1920 128 l 1,1,-1
 0 128 l 1,2,-1
 0 1792 l 1,3,-1
 256 1792 l 1,4,-1
 256 1920 l 1,5,-1
 640 1920 l 2,6,7
 728 1920 728 1920 809.5 1893 c 128,-1,8
 891 1866 891 1866 960 1812 c 1,9,10
 1029 1866 1029 1866 1110.5 1893 c 128,-1,11
 1192 1920 1192 1920 1280 1920 c 2,12,-1
 1664 1920 l 1,13,-1
 1664 1792 l 1,14,-1
 1920 1792 l 1,0,-1
1280 1792 m 2,15,16
 1210 1792 1210 1792 1144 1768.5 c 128,-1,17
 1078 1745 1078 1745 1024 1700 c 1,18,-1
 1024 446 l 1,19,20
 1083 479 1083 479 1148 495.5 c 128,-1,21
 1213 512 1213 512 1280 512 c 2,22,-1
 1536 512 l 1,23,-1
 1536 1792 l 1,24,-1
 1280 1792 l 2,15,16
384 512 m 1,25,-1
 640 512 l 2,26,27
 707 512 707 512 772 495.5 c 128,-1,28
 837 479 837 479 896 446 c 1,29,-1
 896 1700 l 1,30,31
 842 1745 842 1745 776 1768.5 c 128,-1,32
 710 1792 710 1792 640 1792 c 2,33,-1
 384 1792 l 1,34,-1
 384 512 l 1,25,-1
128 256 m 1,35,-1
 934 256 l 1,36,37
 902 287 902 287 869 310.5 c 128,-1,38
 836 334 836 334 800.5 350.5 c 128,-1,39
 765 367 765 367 725.5 375.5 c 128,-1,40
 686 384 686 384 640 384 c 2,41,-1
 256 384 l 1,42,-1
 256 1664 l 1,43,-1
 128 1664 l 1,44,-1
 128 256 l 1,35,-1
1792 1664 m 1,45,-1
 1664 1664 l 1,46,-1
 1664 384 l 1,47,-1
 1280 384 l 2,48,49
 1234 384 1234 384 1194.5 375.5 c 128,-1,50
 1155 367 1155 367 1119.5 350.5 c 128,-1,51
 1084 334 1084 334 1051 310.5 c 128,-1,52
 1018 287 1018 287 986 256 c 1,53,-1
 1792 256 l 1,54,-1
 1792 1664 l 1,45,-1
EndSplineSet
EndChar

StartChar: uniE737
Encoding: 59191 59191 46
Width: 2048
Flags: W
LayerCount: 2
Fore
SplineSet
2048 1920 m 1,0,-1
 2048 256 l 1,1,-1
 0 256 l 1,2,-1
 0 1920 l 1,3,-1
 2048 1920 l 1,0,-1
128 1792 m 1,4,-1
 128 1536 l 1,5,-1
 1920 1536 l 1,6,-1
 1920 1792 l 1,7,-1
 128 1792 l 1,4,-1
1920 384 m 1,8,-1
 1920 1408 l 1,9,-1
 128 1408 l 1,10,-1
 128 384 l 1,11,-1
 1920 384 l 1,8,-1
EndSplineSet
EndChar

StartChar: uniE739
Encoding: 59193 59193 47
Width: 2048
Flags: W
LayerCount: 2
Fore
SplineSet
2048 2048 m 1,0,-1
 2048 0 l 1,1,-1
 0 0 l 1,2,-1
 0 2048 l 1,3,-1
 2048 2048 l 1,0,-1
1920 1920 m 1,4,-1
 128 1920 l 1,5,-1
 128 128 l 1,6,-1
 1920 128 l 1,7,-1
 1920 1920 l 1,4,-1
EndSplineSet
EndChar

StartChar: uniE73A
Encoding: 59194 59194 48
Width: 2048
Flags: W
LayerCount: 2
Fore
SplineSet
2048 2048 m 1,0,-1
 2048 0 l 1,1,-1
 0 0 l 1,2,-1
 0 2048 l 1,3,-1
 2048 2048 l 1,0,-1
1920 1920 m 1,4,-1
 128 1920 l 1,5,-1
 128 128 l 1,6,-1
 1920 128 l 1,7,-1
 1920 1920 l 1,4,-1
768 421 m 1,8,-1
 339 851 l 1,9,-1
 429 941 l 1,10,-1
 768 603 l 1,11,-1
 1619 1453 l 1,12,-1
 1709 1363 l 1,13,-1
 768 421 l 1,8,-1
EndSplineSet
EndChar

StartChar: uniE73D
Encoding: 59197 59197 49
Width: 2048
Flags: W
LayerCount: 2
Fore
SplineSet
2048 2048 m 1,0,-1
 2048 0 l 1,1,-1
 0 0 l 1,2,-1
 0 2048 l 1,3,-1
 2048 2048 l 1,0,-1
1709 1363 m 1,4,-1
 1619 1453 l 1,5,-1
 768 603 l 1,6,-1
 429 941 l 1,7,-1
 339 851 l 1,8,-1
 768 421 l 1,9,-1
 1709 1363 l 1,4,-1
EndSplineSet
EndChar

StartChar: uniE73F
Encoding: 59199 59199 50
Width: 2048
Flags: W
LayerCount: 2
Fore
SplineSet
256 896 m 1,0,-1
 896 896 l 1,1,-1
 896 256 l 1,2,-1
 768 256 l 1,3,-1
 768 677 l 1,4,-1
 93 3 l 1,5,-1
 3 93 l 1,6,-1
 677 768 l 1,7,-1
 256 768 l 1,8,-1
 256 896 l 1,0,-1
1371 1280 m 1,9,-1
 1792 1280 l 1,10,-1
 1792 1152 l 1,11,-1
 1152 1152 l 1,12,-1
 1152 1792 l 1,13,-1
 1280 1792 l 1,14,-1
 1280 1371 l 1,15,-1
 1955 2045 l 1,16,-1
 2045 1955 l 1,17,-1
 1371 1280 l 1,9,-1
EndSplineSet
EndChar

StartChar: uniE740
Encoding: 59200 59200 51
Width: 2048
Flags: W
LayerCount: 2
Fore
SplineSet
1920 1920 m 1,0,-1
 1920 1280 l 1,1,-1
 1792 1280 l 1,2,-1
 1792 1701 l 1,3,-1
 347 256 l 1,4,-1
 768 256 l 1,5,-1
 768 128 l 1,6,-1
 128 128 l 1,7,-1
 128 768 l 1,8,-1
 256 768 l 1,9,-1
 256 347 l 1,10,-1
 1701 1792 l 1,11,-1
 1280 1792 l 1,12,-1
 1280 1920 l 1,13,-1
 1920 1920 l 1,0,-1
EndSplineSet
EndChar

StartChar: uniE74A
Encoding: 59210 59210 52
Width: 2048
Flags: W
LayerCount: 2
Fore
SplineSet
1875 1011 m 1,0,-1
 1088 1798 l 1,1,-1
 1088 0 l 1,2,-1
 960 0 l 1,3,-1
 960 1798 l 1,4,-1
 173 1011 l 1,5,-1
 83 1101 l 1,6,-1
 1024 2042 l 1,7,-1
 1965 1101 l 1,8,-1
 1875 1011 l 1,0,-1
EndSplineSet
EndChar

StartChar: uniE74B
Encoding: 59211 59211 53
Width: 2048
Flags: W
LayerCount: 2
Fore
SplineSet
1965 947 m 1,0,-1
 1024 6 l 1,1,-1
 83 947 l 1,2,-1
 173 1037 l 1,3,-1
 960 250 l 1,4,-1
 960 2048 l 1,5,-1
 1088 2048 l 1,6,-1
 1088 250 l 1,7,-1
 1875 1037 l 1,8,-1
 1965 947 l 1,0,-1
EndSplineSet
EndChar

StartChar: uniE753
Encoding: 59219 59219 54
Width: 2048
Flags: W
LayerCount: 2
Fore
SplineSet
1661 1152 m 1,0,1
 1741 1152 1741 1152 1811.5 1122 c 128,-1,2
 1882 1092 1882 1092 1934.5 1040.5 c 128,-1,3
 1987 989 1987 989 2017.5 919 c 128,-1,4
 2048 849 2048 849 2048 768 c 0,5,6
 2048 688 2048 688 2018 618.5 c 128,-1,7
 1988 549 1988 549 1935.5 496.5 c 128,-1,8
 1883 444 1883 444 1813 414 c 128,-1,9
 1743 384 1743 384 1664 384 c 2,10,-1
 512 384 l 2,11,12
 406 384 406 384 312.5 424 c 128,-1,13
 219 464 219 464 149.5 533.5 c 128,-1,14
 80 603 80 603 40 696.5 c 128,-1,15
 0 790 0 790 0 896 c 256,16,17
 0 1002 0 1002 40 1095.5 c 128,-1,18
 80 1189 80 1189 149.5 1258.5 c 128,-1,19
 219 1328 219 1328 312.5 1368 c 128,-1,20
 406 1408 406 1408 512 1408 c 0,21,22
 558 1408 558 1408 605 1399 c 1,23,24
 645 1461 645 1461 697.5 1510.5 c 128,-1,25
 750 1560 750 1560 812 1594 c 128,-1,26
 874 1628 874 1628 944 1646 c 128,-1,27
 1014 1664 1014 1664 1088 1664 c 0,28,29
 1199 1664 1199 1664 1297.5 1625 c 128,-1,30
 1396 1586 1396 1586 1472 1517.5 c 128,-1,31
 1548 1449 1548 1449 1597.5 1355 c 128,-1,32
 1647 1261 1647 1261 1661 1152 c 1,0,1
1664 512 m 2,33,34
 1717 512 1717 512 1763.5 532 c 128,-1,35
 1810 552 1810 552 1845 587 c 128,-1,36
 1880 622 1880 622 1900 668.5 c 128,-1,37
 1920 715 1920 715 1920 768 c 256,38,39
 1920 821 1920 821 1900 867.5 c 128,-1,40
 1880 914 1880 914 1845 949 c 128,-1,41
 1810 984 1810 984 1763.5 1004 c 128,-1,42
 1717 1024 1717 1024 1664 1024 c 2,43,-1
 1536 1024 l 1,44,-1
 1536 1088 l 2,45,46
 1536 1181 1536 1181 1501 1262.5 c 128,-1,47
 1466 1344 1466 1344 1405 1405 c 128,-1,48
 1344 1466 1344 1466 1262.5 1501 c 128,-1,49
 1181 1536 1181 1536 1088 1536 c 0,50,51
 1018 1536 1018 1536 953 1515 c 128,-1,52
 888 1494 888 1494 833.5 1456 c 128,-1,53
 779 1418 779 1418 737 1364.5 c 128,-1,54
 695 1311 695 1311 670 1245 c 1,55,56
 595 1280 595 1280 512 1280 c 0,57,58
 432 1280 432 1280 362.5 1250 c 128,-1,59
 293 1220 293 1220 240.5 1167.5 c 128,-1,60
 188 1115 188 1115 158 1045 c 128,-1,61
 128 975 128 975 128 896 c 0,62,63
 128 816 128 816 158 746.5 c 128,-1,64
 188 677 188 677 240.5 624.5 c 128,-1,65
 293 572 293 572 362.5 542 c 128,-1,66
 432 512 432 512 512 512 c 2,67,-1
 1664 512 l 2,33,34
EndSplineSet
EndChar

StartChar: uniE757
Encoding: 59223 59223 55
Width: 2048
Flags: W
LayerCount: 2
Fore
SplineSet
640 1152 m 256,0,1
 613 1152 613 1152 590 1162 c 128,-1,2
 567 1172 567 1172 549.5 1189.5 c 128,-1,3
 532 1207 532 1207 522 1230 c 128,-1,4
 512 1253 512 1253 512 1280 c 256,5,6
 512 1307 512 1307 522 1330 c 128,-1,7
 532 1353 532 1353 549.5 1370.5 c 128,-1,8
 567 1388 567 1388 590 1398 c 128,-1,9
 613 1408 613 1408 640 1408 c 256,10,11
 667 1408 667 1408 690 1398 c 128,-1,12
 713 1388 713 1388 730.5 1370.5 c 128,-1,13
 748 1353 748 1353 758 1330 c 128,-1,14
 768 1307 768 1307 768 1280 c 256,15,16
 768 1253 768 1253 758 1230 c 128,-1,17
 748 1207 748 1207 730.5 1189.5 c 128,-1,18
 713 1172 713 1172 690 1162 c 128,-1,19
 667 1152 667 1152 640 1152 c 256,0,1
1408 1408 m 256,20,21
 1435 1408 1435 1408 1458 1398 c 128,-1,22
 1481 1388 1481 1388 1498.5 1370.5 c 128,-1,23
 1516 1353 1516 1353 1526 1330 c 128,-1,24
 1536 1307 1536 1307 1536 1280 c 256,25,26
 1536 1253 1536 1253 1526 1230 c 128,-1,27
 1516 1207 1516 1207 1498.5 1189.5 c 128,-1,28
 1481 1172 1481 1172 1458 1162 c 128,-1,29
 1435 1152 1435 1152 1408 1152 c 256,30,31
 1381 1152 1381 1152 1358 1162 c 128,-1,32
 1335 1172 1335 1172 1317.5 1189.5 c 128,-1,33
 1300 1207 1300 1207 1290 1230 c 128,-1,34
 1280 1253 1280 1253 1280 1280 c 256,35,36
 1280 1307 1280 1307 1290 1330 c 128,-1,37
 1300 1353 1300 1353 1317.5 1370.5 c 128,-1,38
 1335 1388 1335 1388 1358 1398 c 128,-1,39
 1381 1408 1381 1408 1408 1408 c 256,20,21
1024 2048 m 0,40,41
 1165 2048 1165 2048 1296 2011.5 c 128,-1,42
 1427 1975 1427 1975 1541 1908.5 c 128,-1,43
 1655 1842 1655 1842 1748.5 1748.5 c 128,-1,44
 1842 1655 1842 1655 1908.5 1541 c 128,-1,45
 1975 1427 1975 1427 2011.5 1296 c 128,-1,46
 2048 1165 2048 1165 2048 1024 c 256,47,48
 2048 883 2048 883 2011.5 752 c 128,-1,49
 1975 621 1975 621 1908.5 507 c 128,-1,50
 1842 393 1842 393 1748.5 299.5 c 128,-1,51
 1655 206 1655 206 1541 139.5 c 128,-1,52
 1427 73 1427 73 1296 36.5 c 128,-1,53
 1165 0 1165 0 1024 0 c 256,54,55
 883 0 883 0 752 36.5 c 128,-1,56
 621 73 621 73 507 139.5 c 128,-1,57
 393 206 393 206 299.5 299.5 c 128,-1,58
 206 393 206 393 139.5 507 c 128,-1,59
 73 621 73 621 36.5 751.5 c 128,-1,60
 0 882 0 882 0 1024 c 0,61,62
 0 1165 0 1165 36.5 1296 c 128,-1,63
 73 1427 73 1427 139.5 1541 c 128,-1,64
 206 1655 206 1655 299.5 1748.5 c 128,-1,65
 393 1842 393 1842 507 1908.5 c 128,-1,66
 621 1975 621 1975 751.5 2011.5 c 128,-1,67
 882 2048 882 2048 1024 2048 c 0,40,41
1024 128 m 0,68,69
 1147 128 1147 128 1261.5 160 c 128,-1,70
 1376 192 1376 192 1475.5 250.5 c 128,-1,71
 1575 309 1575 309 1657 391 c 128,-1,72
 1739 473 1739 473 1797.5 572.5 c 128,-1,73
 1856 672 1856 672 1888 786 c 128,-1,74
 1920 900 1920 900 1920 1024 c 0,75,76
 1920 1147 1920 1147 1888 1261.5 c 128,-1,77
 1856 1376 1856 1376 1797.5 1475.5 c 128,-1,78
 1739 1575 1739 1575 1657 1657 c 128,-1,79
 1575 1739 1575 1739 1475.5 1797.5 c 128,-1,80
 1376 1856 1376 1856 1261.5 1888 c 128,-1,81
 1147 1920 1147 1920 1024 1920 c 256,82,83
 901 1920 901 1920 786.5 1888 c 128,-1,84
 672 1856 672 1856 572.5 1797.5 c 128,-1,85
 473 1739 473 1739 391 1657 c 128,-1,86
 309 1575 309 1575 250.5 1475.5 c 128,-1,87
 192 1376 192 1376 160 1261.5 c 128,-1,88
 128 1147 128 1147 128 1024 c 256,89,90
 128 901 128 901 160 786.5 c 128,-1,91
 192 672 192 672 250.5 572.5 c 128,-1,92
 309 473 309 473 391 391 c 128,-1,93
 473 309 473 309 572.5 250.5 c 128,-1,94
 672 192 672 192 786 160 c 128,-1,95
 900 128 900 128 1024 128 c 0,68,69
1024 768 m 256,96,97
 1162 768 1162 768 1285.5 711.5 c 128,-1,98
 1409 655 1409 655 1501 552 c 1,99,-1
 1405 467 l 1,100,101
 1331 550 1331 550 1233.5 595 c 128,-1,102
 1136 640 1136 640 1024 640 c 256,103,104
 912 640 912 640 814.5 595 c 128,-1,105
 717 550 717 550 643 467 c 1,106,-1
 547 552 l 1,107,108
 639 655 639 655 762.5 711.5 c 128,-1,109
 886 768 886 768 1024 768 c 256,96,97
EndSplineSet
EndChar

StartChar: uniE7C2
Encoding: 59330 59330 56
Width: 2048
Flags: W
LayerCount: 2
Fore
SplineSet
245 1024 m 1,0,-1
 451 819 l 1,1,-1
 360 728 l 1,2,-1
 0 1088 l 1,3,-1
 360 1448 l 1,4,-1
 451 1357 l 1,5,-1
 245 1152 l 1,6,-1
 640 1152 l 1,7,-1
 640 1024 l 1,8,-1
 245 1024 l 1,0,-1
1920 1088 m 1,9,-1
 1564 733 l 1,10,-1
 1474 823 l 1,11,-1
 1675 1024 l 1,12,-1
 1280 1024 l 1,13,-1
 1280 1152 l 1,14,-1
 1675 1152 l 1,15,-1
 1469 1357 l 1,16,-1
 1560 1448 l 1,17,-1
 1920 1088 l 1,9,-1
695 1602 m 1,18,-1
 605 1692 l 1,19,-1
 960 2048 l 1,20,-1
 1320 1688 l 1,21,-1
 1229 1597 l 1,22,-1
 1024 1803 l 1,23,-1
 1024 1408 l 1,24,-1
 896 1408 l 1,25,-1
 896 1803 l 1,26,-1
 695 1602 l 1,18,-1
1229 579 m 1,27,-1
 1320 488 l 1,28,-1
 960 128 l 1,29,-1
 600 488 l 1,30,-1
 691 579 l 1,31,-1
 896 373 l 1,32,-1
 896 768 l 1,33,-1
 1024 768 l 1,34,-1
 1024 373 l 1,35,-1
 1229 579 l 1,27,-1
EndSplineSet
EndChar

StartChar: uniE75C
Encoding: 59228 59228 57
Width: 2048
Flags: W
LayerCount: 2
Fore
SplineSet
1115 256 m 1,0,-1
 1536 256 l 1,1,-1
 1536 128 l 1,2,-1
 453 128 l 1,3,-1
 50 532 l 2,4,5
 26 556 26 556 13 588.5 c 128,-1,6
 0 621 0 621 0 656 c 256,7,8
 0 691 0 691 13 723.5 c 128,-1,9
 26 756 26 756 51 781 c 2,10,-1
 1248 1979 l 1,11,-1
 2042 1184 l 1,12,-1
 1115 256 l 1,0,-1
1248 1798 m 1,13,-1
 538 1088 l 1,14,-1
 1152 475 l 1,15,-1
 1861 1184 l 1,16,-1
 1248 1798 l 1,13,-1
933 256 m 1,17,-1
 1061 384 l 1,18,-1
 448 998 l 1,19,-1
 142 691 l 2,20,21
 128 677 128 677 128 656 c 256,22,23
 128 635 128 635 142 621 c 2,24,-1
 506 256 l 1,25,-1
 933 256 l 1,17,-1
EndSplineSet
EndChar

StartChar: uniE75E
Encoding: 59230 59230 58
Width: 2048
Flags: W
LayerCount: 2
Fore
SplineSet
1024 2048 m 256,0,1
 1156 2048 1156 2048 1272.5 1997.5 c 128,-1,2
 1389 1947 1389 1947 1476 1860 c 128,-1,3
 1563 1773 1563 1773 1613.5 1656.5 c 128,-1,4
 1664 1540 1664 1540 1664 1408 c 2,5,-1
 1664 640 l 2,6,7
 1664 508 1664 508 1613.5 391.5 c 128,-1,8
 1563 275 1563 275 1476 188 c 128,-1,9
 1389 101 1389 101 1272.5 50.5 c 128,-1,10
 1156 0 1156 0 1024 0 c 256,11,12
 892 0 892 0 775.5 50.5 c 128,-1,13
 659 101 659 101 572 188 c 128,-1,14
 485 275 485 275 434.5 391.5 c 128,-1,15
 384 508 384 508 384 640 c 2,16,-1
 384 1408 l 2,17,18
 384 1540 384 1540 434.5 1656.5 c 128,-1,19
 485 1773 485 1773 572 1860 c 128,-1,20
 659 1947 659 1947 775.5 1997.5 c 128,-1,21
 892 2048 892 2048 1024 2048 c 256,0,1
1024 1024 m 256,22,23
 1103 1024 1103 1024 1173 1054.5 c 128,-1,24
 1243 1085 1243 1085 1295 1137 c 128,-1,25
 1347 1189 1347 1189 1377.5 1259 c 128,-1,26
 1408 1329 1408 1329 1408 1408 c 256,27,28
 1408 1487 1408 1487 1377.5 1557 c 128,-1,29
 1347 1627 1347 1627 1295 1679 c 128,-1,30
 1243 1731 1243 1731 1173 1761.5 c 128,-1,31
 1103 1792 1103 1792 1024 1792 c 256,32,33
 945 1792 945 1792 875 1761.5 c 128,-1,34
 805 1731 805 1731 753 1679 c 128,-1,35
 701 1627 701 1627 670.5 1557 c 128,-1,36
 640 1487 640 1487 640 1408 c 256,37,38
 640 1329 640 1329 670.5 1259 c 128,-1,39
 701 1189 701 1189 753 1137 c 128,-1,40
 805 1085 805 1085 875 1054.5 c 128,-1,41
 945 1024 945 1024 1024 1024 c 256,22,23
1024 1675 m 256,42,43
 1079 1675 1079 1675 1127.5 1654 c 128,-1,44
 1176 1633 1176 1633 1212.5 1596.5 c 128,-1,45
 1249 1560 1249 1560 1270 1511.5 c 128,-1,46
 1291 1463 1291 1463 1291 1408 c 256,47,48
 1291 1353 1291 1353 1270 1304.5 c 128,-1,49
 1249 1256 1249 1256 1212.5 1219.5 c 128,-1,50
 1176 1183 1176 1183 1127.5 1162 c 128,-1,51
 1079 1141 1079 1141 1024 1141 c 256,52,53
 969 1141 969 1141 920.5 1162 c 128,-1,54
 872 1183 872 1183 835.5 1219.5 c 128,-1,55
 799 1256 799 1256 778 1304.5 c 128,-1,56
 757 1353 757 1353 757 1408 c 256,57,58
 757 1463 757 1463 778 1511.5 c 128,-1,59
 799 1560 799 1560 835.5 1596.5 c 128,-1,60
 872 1633 872 1633 920.5 1654 c 128,-1,61
 969 1675 969 1675 1024 1675 c 256,42,43
EndSplineSet
EndChar

StartChar: uniE75F
Encoding: 59231 59231 59
Width: 2048
Flags: W
LayerCount: 2
Fore
SplineSet
640 1664 m 1,0,-1
 384 1664 l 1,1,-1
 384 1920 l 1,2,-1
 640 1920 l 1,3,-1
 640 1664 l 1,0,-1
1152 1664 m 1,4,-1
 896 1664 l 1,5,-1
 896 1920 l 1,6,-1
 1152 1920 l 1,7,-1
 1152 1664 l 1,4,-1
1664 1664 m 1,8,-1
 1408 1664 l 1,9,-1
 1408 1920 l 1,10,-1
 1664 1920 l 1,11,-1
 1664 1664 l 1,8,-1
640 1152 m 1,12,-1
 384 1152 l 1,13,-1
 384 1408 l 1,14,-1
 640 1408 l 1,15,-1
 640 1152 l 1,12,-1
1152 1152 m 1,16,-1
 896 1152 l 1,17,-1
 896 1408 l 1,18,-1
 1152 1408 l 1,19,-1
 1152 1152 l 1,16,-1
1664 1152 m 1,20,-1
 1408 1152 l 1,21,-1
 1408 1408 l 1,22,-1
 1664 1408 l 1,23,-1
 1664 1152 l 1,20,-1
640 640 m 1,24,-1
 384 640 l 1,25,-1
 384 896 l 1,26,-1
 640 896 l 1,27,-1
 640 640 l 1,24,-1
1152 640 m 1,28,-1
 896 640 l 1,29,-1
 896 896 l 1,30,-1
 1152 896 l 1,31,-1
 1152 640 l 1,28,-1
1152 128 m 1,32,-1
 896 128 l 1,33,-1
 896 384 l 1,34,-1
 1152 384 l 1,35,-1
 1152 128 l 1,32,-1
1664 640 m 1,36,-1
 1408 640 l 1,37,-1
 1408 896 l 1,38,-1
 1664 896 l 1,39,-1
 1664 640 l 1,36,-1
EndSplineSet
EndChar

StartChar: uniE768
Encoding: 59240 59240 60
Width: 2048
Flags: W
LayerCount: 2
Fore
SplineSet
1792 1024 m 1,0,-1
 512 128 l 1,1,-1
 512 1920 l 1,2,-1
 1792 1024 l 1,0,-1
640 374 m 1,3,-1
 1569 1024 l 1,4,-1
 640 1674 l 1,5,-1
 640 374 l 1,3,-1
EndSplineSet
EndChar

StartChar: uniE769
Encoding: 59241 59241 61
Width: 2048
Flags: W
LayerCount: 2
Fore
SplineSet
640 1792 m 1,0,-1
 768 1792 l 1,1,-1
 768 256 l 1,2,-1
 640 256 l 1,3,-1
 640 1792 l 1,0,-1
1408 1792 m 1,4,-1
 1408 256 l 1,5,-1
 1280 256 l 1,6,-1
 1280 1792 l 1,7,-1
 1408 1792 l 1,4,-1
EndSplineSet
EndChar

StartChar: uniE76B
Encoding: 59243 59243 62
Width: 2048
Flags: W
LayerCount: 2
Fore
SplineSet
1443 3 m 1,0,-1
 421 1024 l 1,1,-1
 1443 2045 l 1,2,-1
 1533 1955 l 1,3,-1
 603 1024 l 1,4,-1
 1533 93 l 1,5,-1
 1443 3 l 1,0,-1
EndSplineSet
EndChar

StartChar: uniE76C
Encoding: 59244 59244 63
Width: 2048
Flags: W
LayerCount: 2
Fore
SplineSet
515 93 m 1,0,-1
 1445 1024 l 1,1,-1
 515 1955 l 1,2,-1
 605 2045 l 1,3,-1
 1627 1024 l 1,4,-1
 605 3 l 1,5,-1
 515 93 l 1,0,-1
EndSplineSet
EndChar

StartChar: uniE76F
Encoding: 59247 59247 64
Width: 2048
Flags: W
LayerCount: 2
Fore
SplineSet
0 1280 m 1,0,-1
 2048 1280 l 1,1,-1
 2048 1152 l 1,2,-1
 0 1152 l 1,3,-1
 0 1280 l 1,0,-1
0 768 m 1,4,-1
 0 896 l 1,5,-1
 2048 896 l 1,6,-1
 2048 768 l 1,7,-1
 0 768 l 1,4,-1
EndSplineSet
EndChar

StartChar: uniE770
Encoding: 59248 59248 65
Width: 2048
Flags: W
LayerCount: 2
Fore
SplineSet
2000 523 m 2,0,1
 2012 511 2012 511 2021 494 c 128,-1,2
 2030 477 2030 477 2036 458 c 128,-1,3
 2042 439 2042 439 2045 419.5 c 128,-1,4
 2048 400 2048 400 2048 384 c 0,5,6
 2048 357 2048 357 2038 334 c 128,-1,7
 2028 311 2028 311 2010.5 293.5 c 128,-1,8
 1993 276 1993 276 1970 266 c 128,-1,9
 1947 256 1947 256 1920 256 c 2,10,-1
 128 256 l 2,11,12
 101 256 101 256 78 266 c 128,-1,13
 55 276 55 276 37.5 293.5 c 128,-1,14
 20 311 20 311 10 334 c 128,-1,15
 0 357 0 357 0 384 c 0,16,17
 0 400 0 400 3 419.5 c 128,-1,18
 6 439 6 439 12 458 c 128,-1,19
 18 477 18 477 27 494 c 128,-1,20
 36 511 36 511 48 523 c 2,21,-1
 256 731 l 1,22,-1
 256 1664 l 1,23,-1
 1792 1664 l 1,24,-1
 1792 731 l 1,25,-1
 2000 523 l 2,0,1
384 768 m 1,26,-1
 1664 768 l 1,27,-1
 1664 1536 l 1,28,-1
 384 1536 l 1,29,-1
 384 768 l 1,26,-1
1920 384 m 1,30,31
 1920 395 1920 395 1916 412.5 c 128,-1,32
 1912 430 1912 430 1904 438 c 2,33,-1
 1701 640 l 1,34,-1
 347 640 l 1,35,-1
 144 438 l 2,36,37
 136 430 136 430 132 412.5 c 128,-1,38
 128 395 128 395 128 384 c 1,39,-1
 1920 384 l 1,30,31
EndSplineSet
EndChar

StartChar: uniE771
Encoding: 59249 59249 66
Width: 2048
Flags: W
LayerCount: 2
Fore
SplineSet
1024 256 m 1,0,-1
 1024 128 l 1,1,-1
 1280 128 l 1,2,-1
 1280 0 l 1,3,-1
 640 0 l 1,4,-1
 640 128 l 1,5,-1
 896 128 l 1,6,-1
 896 256 l 1,7,-1
 0 256 l 1,8,-1
 0 1408 l 1,9,-1
 1024 1408 l 1,10,-1
 895 1280 l 1,11,-1
 128 1280 l 1,12,-1
 128 384 l 1,13,-1
 1792 384 l 1,14,-1
 1792 1152 l 1,15,-1
 1920 1280 l 1,16,-1
 1920 256 l 1,17,-1
 1024 256 l 1,0,-1
512 640 m 2,18,19
 539 640 539 640 562 650 c 128,-1,20
 585 660 585 660 602.5 677.5 c 128,-1,21
 620 695 620 695 630 718 c 128,-1,22
 640 741 640 741 640 768 c 0,23,24
 640 817 640 817 657.5 861 c 128,-1,25
 675 905 675 905 705.5 939 c 128,-1,26
 736 973 736 973 777.5 995.5 c 128,-1,27
 819 1018 819 1018 868 1023 c 1,28,-1
 1579 1734 l 2,29,30
 1607 1762 1607 1762 1644 1777 c 128,-1,31
 1681 1792 1681 1792 1720 1792 c 0,32,33
 1761 1792 1761 1792 1797.5 1776.5 c 128,-1,34
 1834 1761 1834 1761 1861 1734 c 128,-1,35
 1888 1707 1888 1707 1903.5 1670.5 c 128,-1,36
 1919 1634 1919 1634 1919 1592 c 0,37,38
 1919 1553 1919 1553 1904 1516 c 128,-1,39
 1889 1479 1889 1479 1861 1451 c 2,40,-1
 1150 740 l 1,41,42
 1145 692 1145 692 1123 650 c 128,-1,43
 1101 608 1101 608 1066.5 577.5 c 128,-1,44
 1032 547 1032 547 988.5 529.5 c 128,-1,45
 945 512 945 512 896 512 c 2,46,-1
 256 512 l 1,47,-1
 256 640 l 1,48,-1
 512 640 l 2,18,19
1720 1664 m 256,49,50
 1691 1664 1691 1664 1670 1643 c 2,51,-1
 1225 1198 l 1,52,53
 1282 1154 1282 1154 1326 1097 c 1,54,-1
 1771 1542 l 2,55,56
 1792 1563 1792 1563 1792 1592 c 0,57,58
 1792 1622 1792 1622 1770.5 1643 c 128,-1,59
 1749 1664 1749 1664 1720 1664 c 256,49,50
1042 1015 m 1,60,61
 1103 975 1103 975 1143 914 c 1,62,-1
 1235 1005 l 1,63,64
 1193 1065 1193 1065 1133 1107 c 1,65,-1
 1042 1015 l 1,60,61
1024 768 m 0,66,67
 1024 795 1024 795 1014 818 c 128,-1,68
 1004 841 1004 841 986.5 858.5 c 128,-1,69
 969 876 969 876 946 886 c 128,-1,70
 923 896 923 896 896 896 c 256,71,72
 869 896 869 896 846 886 c 128,-1,73
 823 876 823 876 805.5 858.5 c 128,-1,74
 788 841 788 841 778 818 c 128,-1,75
 768 795 768 795 768 768 c 0,76,77
 768 700 768 700 734 640 c 1,78,-1
 896 640 l 2,79,80
 922 640 922 640 945.5 650 c 128,-1,81
 969 660 969 660 986.5 677.5 c 128,-1,82
 1004 695 1004 695 1014 718.5 c 128,-1,83
 1024 742 1024 742 1024 768 c 0,66,67
EndSplineSet
EndChar

StartChar: uniE773
Encoding: 59251 59251 67
Width: 2048
Flags: W
LayerCount: 2
Fore
SplineSet
1664 1152 m 256,0,1
 1743 1152 1743 1152 1813 1121.5 c 128,-1,2
 1883 1091 1883 1091 1935 1039 c 128,-1,3
 1987 987 1987 987 2017.5 917 c 128,-1,4
 2048 847 2048 847 2048 768 c 256,5,6
 2048 689 2048 689 2017.5 619 c 128,-1,7
 1987 549 1987 549 1935 497 c 128,-1,8
 1883 445 1883 445 1813 414.5 c 128,-1,9
 1743 384 1743 384 1664 384 c 0,10,11
 1604 384 1604 384 1547 402 c 128,-1,12
 1490 420 1490 420 1442 455 c 1,13,14
 1426 439 1426 439 1388.5 399.5 c 128,-1,15
 1351 360 1351 360 1302 309.5 c 128,-1,16
 1253 259 1253 259 1198.5 204.5 c 128,-1,17
 1144 150 1144 150 1096 104.5 c 128,-1,18
 1048 59 1048 59 1011 29.5 c 128,-1,19
 974 0 974 0 960 0 c 0,20,21
 934 0 934 0 915 19 c 128,-1,22
 896 38 896 38 896 64 c 0,23,24
 896 78 896 78 925.5 115 c 128,-1,25
 955 152 955 152 1000.5 200 c 128,-1,26
 1046 248 1046 248 1100.5 302.5 c 128,-1,27
 1155 357 1155 357 1205.5 406 c 128,-1,28
 1256 455 1256 455 1295.5 492.5 c 128,-1,29
 1335 530 1335 530 1351 546 c 1,30,31
 1316 594 1316 594 1298 651 c 128,-1,32
 1280 708 1280 708 1280 768 c 0,33,34
 1280 847 1280 847 1310.5 917 c 128,-1,35
 1341 987 1341 987 1393 1039 c 128,-1,36
 1445 1091 1445 1091 1515 1121.5 c 128,-1,37
 1585 1152 1585 1152 1664 1152 c 256,0,1
1664 512 m 0,38,39
 1716 512 1716 512 1763 532.5 c 128,-1,40
 1810 553 1810 553 1844.5 587.5 c 128,-1,41
 1879 622 1879 622 1899.5 668.5 c 128,-1,42
 1920 715 1920 715 1920 768 c 0,43,44
 1920 820 1920 820 1899.5 867 c 128,-1,45
 1879 914 1879 914 1844.5 948.5 c 128,-1,46
 1810 983 1810 983 1763 1003.5 c 128,-1,47
 1716 1024 1716 1024 1664 1024 c 0,48,49
 1611 1024 1611 1024 1564.5 1003.5 c 128,-1,50
 1518 983 1518 983 1483.5 948.5 c 128,-1,51
 1449 914 1449 914 1428.5 867 c 128,-1,52
 1408 820 1408 820 1408 768 c 0,53,54
 1408 715 1408 715 1428.5 668.5 c 128,-1,55
 1449 622 1449 622 1483.5 587.5 c 128,-1,56
 1518 553 1518 553 1564.5 532.5 c 128,-1,57
 1611 512 1611 512 1664 512 c 0,38,39
256 640 m 1,58,-1
 256 896 l 1,59,-1
 0 896 l 1,60,-1
 0 2048 l 1,61,-1
 1536 2048 l 1,62,-1
 1536 1792 l 1,63,-1
 1792 1792 l 1,64,-1
 1792 1262 l 1,65,66
 1760 1270 1760 1270 1728 1275 c 128,-1,67
 1696 1280 1696 1280 1664 1280 c 1,68,-1
 1664 1664 l 1,69,-1
 384 1664 l 1,70,-1
 384 768 l 1,71,-1
 1152 768 l 1,72,73
 1152 736 1152 736 1157 704 c 128,-1,74
 1162 672 1162 672 1170 640 c 1,75,-1
 256 640 l 1,58,-1
256 1024 m 1,76,-1
 256 1792 l 1,77,-1
 1408 1792 l 1,78,-1
 1408 1920 l 1,79,-1
 128 1920 l 1,80,-1
 128 1024 l 1,81,-1
 256 1024 l 1,76,-1
EndSplineSet
EndChar

StartChar: uniE774
Encoding: 59252 59252 68
Width: 2048
Flags: W
LayerCount: 2
Fore
SplineSet
1024 2048 m 0,0,1
 1165 2048 1165 2048 1296 2011.5 c 128,-1,2
 1427 1975 1427 1975 1541 1908.5 c 128,-1,3
 1655 1842 1655 1842 1748.5 1748.5 c 128,-1,4
 1842 1655 1842 1655 1908.5 1541 c 128,-1,5
 1975 1427 1975 1427 2011.5 1296 c 128,-1,6
 2048 1165 2048 1165 2048 1024 c 256,7,8
 2048 883 2048 883 2011.5 752 c 128,-1,9
 1975 621 1975 621 1908.5 507 c 128,-1,10
 1842 393 1842 393 1748.5 299.5 c 128,-1,11
 1655 206 1655 206 1541 139.5 c 128,-1,12
 1427 73 1427 73 1296 36.5 c 128,-1,13
 1165 0 1165 0 1024 0 c 256,14,15
 883 0 883 0 752 36.5 c 128,-1,16
 621 73 621 73 507 139.5 c 128,-1,17
 393 206 393 206 299.5 299.5 c 128,-1,18
 206 393 206 393 139.5 507 c 128,-1,19
 73 621 73 621 36.5 751.5 c 128,-1,20
 0 882 0 882 0 1024 c 0,21,22
 0 1165 0 1165 36.5 1296 c 128,-1,23
 73 1427 73 1427 139.5 1541 c 128,-1,24
 206 1655 206 1655 299.5 1748.5 c 128,-1,25
 393 1842 393 1842 507 1908.5 c 128,-1,26
 621 1975 621 1975 751.5 2011.5 c 128,-1,27
 882 2048 882 2048 1024 2048 c 0,0,1
1833 1408 m 1,28,29
 1795 1489 1795 1489 1741 1560.5 c 128,-1,30
 1687 1632 1687 1632 1621 1691 c 128,-1,31
 1555 1750 1555 1750 1478 1796 c 128,-1,32
 1401 1842 1401 1842 1317 1871 c 1,33,34
 1353 1821 1353 1821 1382 1765 c 128,-1,35
 1411 1709 1411 1709 1433.5 1649.5 c 128,-1,36
 1456 1590 1456 1590 1472 1529 c 128,-1,37
 1488 1468 1488 1468 1500 1408 c 1,38,-1
 1833 1408 l 1,28,29
1920 1024 m 256,39,40
 1920 1157 1920 1157 1883 1280 c 1,41,-1
 1520 1280 l 1,42,43
 1528 1216 1528 1216 1532 1152.5 c 128,-1,44
 1536 1089 1536 1089 1536 1024 c 256,45,46
 1536 959 1536 959 1532 895.5 c 128,-1,47
 1528 832 1528 832 1520 768 c 1,48,-1
 1883 768 l 1,49,50
 1920 891 1920 891 1920 1024 c 256,39,40
1024 128 m 256,51,52
 1073 128 1073 128 1115.5 155 c 128,-1,53
 1158 182 1158 182 1194 226 c 128,-1,54
 1230 270 1230 270 1258.5 325.5 c 128,-1,55
 1287 381 1287 381 1309 438 c 128,-1,56
 1331 495 1331 495 1346 548 c 128,-1,57
 1361 601 1361 601 1369 640 c 1,58,-1
 679 640 l 1,59,60
 687 601 687 601 702 548 c 128,-1,61
 717 495 717 495 739 438 c 128,-1,62
 761 381 761 381 789.5 325.5 c 128,-1,63
 818 270 818 270 854 226 c 128,-1,64
 890 182 890 182 932.5 155 c 128,-1,65
 975 128 975 128 1024 128 c 256,51,52
1391 768 m 1,66,67
 1399 832 1399 832 1403.5 895.5 c 128,-1,68
 1408 959 1408 959 1408 1024 c 256,69,70
 1408 1089 1408 1089 1403.5 1152.5 c 128,-1,71
 1399 1216 1399 1216 1391 1280 c 1,72,-1
 657 1280 l 1,73,74
 649 1216 649 1216 644.5 1152.5 c 128,-1,75
 640 1089 640 1089 640 1024 c 256,76,77
 640 959 640 959 644.5 895.5 c 128,-1,78
 649 832 649 832 657 768 c 1,79,-1
 1391 768 l 1,66,67
128 1024 m 256,80,81
 128 891 128 891 165 768 c 1,82,-1
 528 768 l 1,83,84
 520 832 520 832 516 895.5 c 128,-1,85
 512 959 512 959 512 1024 c 256,86,87
 512 1089 512 1089 516 1152.5 c 128,-1,88
 520 1216 520 1216 528 1280 c 1,89,-1
 165 1280 l 1,90,91
 128 1157 128 1157 128 1024 c 256,80,81
1024 1920 m 256,92,93
 975 1920 975 1920 932.5 1893 c 128,-1,94
 890 1866 890 1866 854 1822 c 128,-1,95
 818 1778 818 1778 789.5 1722.5 c 128,-1,96
 761 1667 761 1667 739 1610 c 128,-1,97
 717 1553 717 1553 702 1500 c 128,-1,98
 687 1447 687 1447 679 1408 c 1,99,-1
 1369 1408 l 1,100,101
 1361 1447 1361 1447 1346 1500 c 128,-1,102
 1331 1553 1331 1553 1309 1610 c 128,-1,103
 1287 1667 1287 1667 1258.5 1722.5 c 128,-1,104
 1230 1778 1230 1778 1194 1822 c 128,-1,105
 1158 1866 1158 1866 1115.5 1893 c 128,-1,106
 1073 1920 1073 1920 1024 1920 c 256,92,93
731 1871 m 1,107,108
 647 1842 647 1842 570 1796 c 128,-1,109
 493 1750 493 1750 427 1691 c 128,-1,110
 361 1632 361 1632 307 1560.5 c 128,-1,111
 253 1489 253 1489 215 1408 c 1,112,-1
 548 1408 l 1,113,114
 560 1468 560 1468 576 1529 c 128,-1,115
 592 1590 592 1590 614.5 1649.5 c 128,-1,116
 637 1709 637 1709 666 1765 c 128,-1,117
 695 1821 695 1821 731 1871 c 1,107,108
215 640 m 1,118,119
 253 559 253 559 307 487.5 c 128,-1,120
 361 416 361 416 427 357 c 128,-1,121
 493 298 493 298 570 252 c 128,-1,122
 647 206 647 206 731 177 c 1,123,124
 695 227 695 227 666 283 c 128,-1,125
 637 339 637 339 614.5 398.5 c 128,-1,126
 592 458 592 458 576 519 c 128,-1,127
 560 580 560 580 548 640 c 1,128,-1
 215 640 l 1,118,119
1317 177 m 1,129,130
 1401 206 1401 206 1478 252 c 128,-1,131
 1555 298 1555 298 1621 357 c 128,-1,132
 1687 416 1687 416 1741 487.5 c 128,-1,133
 1795 559 1795 559 1833 640 c 1,134,-1
 1500 640 l 1,135,136
 1488 580 1488 580 1472 519 c 128,-1,137
 1456 458 1456 458 1433.5 398.5 c 128,-1,138
 1411 339 1411 339 1382 283 c 128,-1,139
 1353 227 1353 227 1317 177 c 1,129,130
EndSplineSet
EndChar

StartChar: uniE779
Encoding: 59257 59257 69
Width: 2048
Flags: W
LayerCount: 2
Fore
SplineSet
740 971 m 1,0,1
 805 938 805 938 857.5 889.5 c 128,-1,2
 910 841 910 841 947 781.5 c 128,-1,3
 984 722 984 722 1004 653.5 c 128,-1,4
 1024 585 1024 585 1024 512 c 1,5,-1
 896 512 l 1,6,7
 896 591 896 591 865.5 661 c 128,-1,8
 835 731 835 731 783 783 c 128,-1,9
 731 835 731 835 661 865.5 c 128,-1,10
 591 896 591 896 512 896 c 256,11,12
 433 896 433 896 363 865.5 c 128,-1,13
 293 835 293 835 241 783 c 128,-1,14
 189 731 189 731 158.5 661 c 128,-1,15
 128 591 128 591 128 512 c 1,16,-1
 0 512 l 1,17,18
 0 585 0 585 20 653.5 c 128,-1,19
 40 722 40 722 77 781.5 c 128,-1,20
 114 841 114 841 166.5 889.5 c 128,-1,21
 219 938 219 938 284 971 c 1,22,23
 211 1025 211 1025 169.5 1107 c 128,-1,24
 128 1189 128 1189 128 1280 c 0,25,26
 128 1359 128 1359 158.5 1429 c 128,-1,27
 189 1499 189 1499 241 1551 c 128,-1,28
 293 1603 293 1603 363 1633.5 c 128,-1,29
 433 1664 433 1664 512 1664 c 256,30,31
 591 1664 591 1664 661 1633.5 c 128,-1,32
 731 1603 731 1603 783 1551 c 128,-1,33
 835 1499 835 1499 865.5 1429 c 128,-1,34
 896 1359 896 1359 896 1280 c 0,35,36
 896 1189 896 1189 854.5 1107 c 128,-1,37
 813 1025 813 1025 740 971 c 1,0,1
256 1280 m 0,38,39
 256 1227 256 1227 276.5 1180.5 c 128,-1,40
 297 1134 297 1134 331.5 1099.5 c 128,-1,41
 366 1065 366 1065 412.5 1044.5 c 128,-1,42
 459 1024 459 1024 512 1024 c 0,43,44
 564 1024 564 1024 611 1044.5 c 128,-1,45
 658 1065 658 1065 692.5 1099.5 c 128,-1,46
 727 1134 727 1134 747.5 1180.5 c 128,-1,47
 768 1227 768 1227 768 1280 c 0,48,49
 768 1332 768 1332 747.5 1379 c 128,-1,50
 727 1426 727 1426 692.5 1460.5 c 128,-1,51
 658 1495 658 1495 611 1515.5 c 128,-1,52
 564 1536 564 1536 512 1536 c 0,53,54
 459 1536 459 1536 412.5 1515.5 c 128,-1,55
 366 1495 366 1495 331.5 1460.5 c 128,-1,56
 297 1426 297 1426 276.5 1379 c 128,-1,57
 256 1332 256 1332 256 1280 c 0,38,39
2048 1664 m 1,58,-1
 2048 1536 l 1,59,-1
 1152 1536 l 1,60,-1
 1152 1664 l 1,61,-1
 2048 1664 l 1,58,-1
1152 1152 m 1,62,-1
 2048 1152 l 1,63,-1
 2048 1024 l 1,64,-1
 1152 1024 l 1,65,-1
 1152 1152 l 1,62,-1
1152 640 m 1,66,-1
 2048 640 l 1,67,-1
 2048 512 l 1,68,-1
 1152 512 l 1,69,-1
 1152 640 l 1,66,-1
EndSplineSet
EndChar

StartChar: uniE77A
Encoding: 59258 59258 70
Width: 2048
Flags: W
LayerCount: 2
Fore
SplineSet
1472 896 m 256,0,1
 1565 896 1565 896 1646.5 861 c 128,-1,2
 1728 826 1728 826 1789 765 c 128,-1,3
 1850 704 1850 704 1885 622.5 c 128,-1,4
 1920 541 1920 541 1920 448 c 256,5,6
 1920 355 1920 355 1885 273.5 c 128,-1,7
 1850 192 1850 192 1789 131 c 128,-1,8
 1728 70 1728 70 1646.5 35 c 128,-1,9
 1565 0 1565 0 1472 0 c 256,10,11
 1379 0 1379 0 1297.5 35 c 128,-1,12
 1216 70 1216 70 1155 131 c 128,-1,13
 1094 192 1094 192 1059 273.5 c 128,-1,14
 1024 355 1024 355 1024 448 c 256,15,16
 1024 541 1024 541 1059 622.5 c 128,-1,17
 1094 704 1094 704 1155 765 c 128,-1,18
 1216 826 1216 826 1297.5 861 c 128,-1,19
 1379 896 1379 896 1472 896 c 256,0,1
1152 448 m 0,20,21
 1152 382 1152 382 1177 323.5 c 128,-1,22
 1202 265 1202 265 1245.5 221.5 c 128,-1,23
 1289 178 1289 178 1347.5 153 c 128,-1,24
 1406 128 1406 128 1472 128 c 0,25,26
 1519 128 1519 128 1564 141.5 c 128,-1,27
 1609 155 1609 155 1648 181 c 1,28,-1
 1205 624 l 1,29,30
 1179 585 1179 585 1165.5 540 c 128,-1,31
 1152 495 1152 495 1152 448 c 0,20,21
1739 272 m 1,32,33
 1765 311 1765 311 1778.5 356 c 128,-1,34
 1792 401 1792 401 1792 448 c 0,35,36
 1792 514 1792 514 1766.5 572 c 128,-1,37
 1741 630 1741 630 1697.5 673.5 c 128,-1,38
 1654 717 1654 717 1596 742.5 c 128,-1,39
 1538 768 1538 768 1472 768 c 0,40,41
 1425 768 1425 768 1380 754.5 c 128,-1,42
 1335 741 1335 741 1296 715 c 1,43,-1
 1739 272 l 1,32,33
1990 1300 m 1,44,45
 1957 1267 1957 1267 1925.5 1239.5 c 128,-1,46
 1894 1212 1894 1212 1860.5 1193 c 128,-1,47
 1827 1174 1827 1174 1787.5 1163.5 c 128,-1,48
 1748 1153 1748 1153 1698 1153 c 0,49,50
 1664 1153 1664 1153 1633 1159 c 1,51,-1
 1499 1024 l 1,52,-1
 1317 1024 l 1,53,-1
 1595 1302 l 1,54,-1
 1605 1299 l 2,55,56
 1628 1292 1628 1292 1651 1286.5 c 128,-1,57
 1674 1281 1674 1281 1698 1281 c 0,58,59
 1753 1281 1753 1281 1802 1307 c 1,60,-1
 1307 1802 l 1,61,62
 1281 1753 1281 1753 1281 1698 c 0,63,64
 1281 1674 1281 1674 1286.5 1651 c 128,-1,65
 1292 1628 1292 1628 1299 1605 c 2,66,-1
 1302 1595 l 1,67,-1
 810 1104 l 1,68,69
 786 1114 786 1114 764 1123 c 128,-1,70
 742 1132 742 1132 720 1138 c 128,-1,71
 698 1144 698 1144 674.5 1147.5 c 128,-1,72
 651 1151 651 1151 624 1151 c 0,73,74
 567 1151 567 1151 513 1134.5 c 128,-1,75
 459 1118 459 1118 413 1086 c 1,76,-1
 896 603 l 1,77,-1
 896 421 l 1,78,-1
 704 614 l 1,79,-1
 136 45 l 1,80,-1
 0 0 l 1,81,-1
 45 136 l 1,82,-1
 614 704 l 1,83,-1
 228 1090 l 1,84,-1
 273 1135 l 2,85,86
 343 1205 343 1205 435 1242 c 128,-1,87
 527 1279 527 1279 626 1279 c 0,88,89
 665 1279 665 1279 703.5 1272.5 c 128,-1,90
 742 1266 742 1266 780 1254 c 1,91,-1
 1159 1633 l 1,92,93
 1153 1664 1153 1664 1153 1698 c 0,94,95
 1153 1747 1153 1747 1163.5 1786.5 c 128,-1,96
 1174 1826 1174 1826 1193 1860 c 128,-1,97
 1212 1894 1212 1894 1239.5 1925.5 c 128,-1,98
 1267 1957 1267 1957 1300 1990 c 1,99,-1
 1990 1300 l 1,44,45
EndSplineSet
EndChar

StartChar: uniE77B
Encoding: 59259 59259 71
Width: 2048
Flags: W
LayerCount: 2
Fore
SplineSet
1330 845 m 1,0,1
 1466 798 1466 798 1575.5 713.5 c 128,-1,2
 1685 629 1685 629 1761.5 518 c 128,-1,3
 1838 407 1838 407 1879 275 c 128,-1,4
 1920 143 1920 143 1920 0 c 1,5,-1
 1792 0 l 1,6,7
 1792 164 1792 164 1733.5 304.5 c 128,-1,8
 1675 445 1675 445 1572 548 c 128,-1,9
 1469 651 1469 651 1328.5 709.5 c 128,-1,10
 1188 768 1188 768 1024 768 c 0,11,12
 917 768 917 768 818 741 c 128,-1,13
 719 714 719 714 633.5 664.5 c 128,-1,14
 548 615 548 615 478.5 545.5 c 128,-1,15
 409 476 409 476 359.5 390.5 c 128,-1,16
 310 305 310 305 283 206 c 128,-1,17
 256 107 256 107 256 0 c 1,18,-1
 128 0 l 1,19,20
 128 144 128 144 170 275.5 c 128,-1,21
 212 407 212 407 289 517 c 128,-1,22
 366 627 366 627 475.5 711 c 128,-1,23
 585 795 585 795 720 844 c 1,24,25
 642 886 642 886 580 946 c 128,-1,26
 518 1006 518 1006 474.5 1079.5 c 128,-1,27
 431 1153 431 1153 407.5 1236.5 c 128,-1,28
 384 1320 384 1320 384 1408 c 0,29,30
 384 1541 384 1541 434 1657.5 c 128,-1,31
 484 1774 484 1774 571 1861 c 128,-1,32
 658 1948 658 1948 774.5 1998 c 128,-1,33
 891 2048 891 2048 1024 2048 c 256,34,35
 1157 2048 1157 2048 1273.5 1998 c 128,-1,36
 1390 1948 1390 1948 1477 1861 c 128,-1,37
 1564 1774 1564 1774 1614 1657.5 c 128,-1,38
 1664 1541 1664 1541 1664 1408 c 0,39,40
 1664 1320 1664 1320 1640.5 1237 c 128,-1,41
 1617 1154 1617 1154 1573.5 1081 c 128,-1,42
 1530 1008 1530 1008 1468.5 947.5 c 128,-1,43
 1407 887 1407 887 1330 845 c 1,0,1
512 1408 m 256,44,45
 512 1302 512 1302 552.5 1209 c 128,-1,46
 593 1116 593 1116 662.5 1046.5 c 128,-1,47
 732 977 732 977 825 936.5 c 128,-1,48
 918 896 918 896 1024 896 c 256,49,50
 1130 896 1130 896 1223 936.5 c 128,-1,51
 1316 977 1316 977 1385.5 1046.5 c 128,-1,52
 1455 1116 1455 1116 1495.5 1209 c 128,-1,53
 1536 1302 1536 1302 1536 1408 c 256,54,55
 1536 1514 1536 1514 1495.5 1607 c 128,-1,56
 1455 1700 1455 1700 1385.5 1769.5 c 128,-1,57
 1316 1839 1316 1839 1223 1879.5 c 128,-1,58
 1130 1920 1130 1920 1024 1920 c 256,59,60
 918 1920 918 1920 825 1879.5 c 128,-1,61
 732 1839 732 1839 662.5 1769.5 c 128,-1,62
 593 1700 593 1700 552.5 1607 c 128,-1,63
 512 1514 512 1514 512 1408 c 256,44,45
EndSplineSet
EndChar

StartChar: uniE77C
Encoding: 59260 59260 72
Width: 2048
Flags: W
LayerCount: 2
Fore
SplineSet
1600 1536 m 256,0,1
 1693 1536 1693 1536 1774.5 1500.5 c 128,-1,2
 1856 1465 1856 1465 1916.5 1404.5 c 128,-1,3
 1977 1344 1977 1344 2012.5 1262.5 c 128,-1,4
 2048 1181 2048 1181 2048 1088 c 256,5,6
 2048 995 2048 995 2012.5 913.5 c 128,-1,7
 1977 832 1977 832 1916.5 771.5 c 128,-1,8
 1856 711 1856 711 1774.5 675.5 c 128,-1,9
 1693 640 1693 640 1600 640 c 2,10,-1
 448 640 l 2,11,12
 355 640 355 640 273.5 675.5 c 128,-1,13
 192 711 192 711 131.5 771.5 c 128,-1,14
 71 832 71 832 35.5 913.5 c 128,-1,15
 0 995 0 995 0 1088 c 256,16,17
 0 1181 0 1181 35.5 1262.5 c 128,-1,18
 71 1344 71 1344 131.5 1404.5 c 128,-1,19
 192 1465 192 1465 273.5 1500.5 c 128,-1,20
 355 1536 355 1536 448 1536 c 256,21,22
 541 1536 541 1536 622.5 1500.5 c 128,-1,23
 704 1465 704 1465 764.5 1404.5 c 128,-1,24
 825 1344 825 1344 860.5 1262.5 c 128,-1,25
 896 1181 896 1181 896 1088 c 0,26,27
 896 1067 896 1067 891.5 1037.5 c 128,-1,28
 887 1008 887 1008 879 976.5 c 128,-1,29
 871 945 871 945 859 912.5 c 128,-1,30
 847 880 847 880 832 851.5 c 128,-1,31
 817 823 817 823 799 801 c 128,-1,32
 781 779 781 779 761 768 c 1,33,-1
 1287 768 l 1,34,35
 1267 779 1267 779 1249 801 c 128,-1,36
 1231 823 1231 823 1216 851.5 c 128,-1,37
 1201 880 1201 880 1189 912.5 c 128,-1,38
 1177 945 1177 945 1169 976.5 c 128,-1,39
 1161 1008 1161 1008 1156.5 1037 c 128,-1,40
 1152 1066 1152 1066 1152 1088 c 0,41,42
 1152 1181 1152 1181 1187.5 1262.5 c 128,-1,43
 1223 1344 1223 1344 1283.5 1404.5 c 128,-1,44
 1344 1465 1344 1465 1425.5 1500.5 c 128,-1,45
 1507 1536 1507 1536 1600 1536 c 256,0,1
128 1088 m 256,46,47
 128 1022 128 1022 153.5 964 c 128,-1,48
 179 906 179 906 222.5 862.5 c 128,-1,49
 266 819 266 819 324 793.5 c 128,-1,50
 382 768 382 768 448 768 c 256,51,52
 514 768 514 768 572 793.5 c 128,-1,53
 630 819 630 819 673.5 862.5 c 128,-1,54
 717 906 717 906 742.5 964 c 128,-1,55
 768 1022 768 1022 768 1088 c 256,56,57
 768 1154 768 1154 742.5 1212 c 128,-1,58
 717 1270 717 1270 673.5 1313.5 c 128,-1,59
 630 1357 630 1357 572 1382.5 c 128,-1,60
 514 1408 514 1408 448 1408 c 256,61,62
 382 1408 382 1408 324 1382.5 c 128,-1,63
 266 1357 266 1357 222.5 1313.5 c 128,-1,64
 179 1270 179 1270 153.5 1212 c 128,-1,65
 128 1154 128 1154 128 1088 c 256,46,47
1600 768 m 256,66,67
 1666 768 1666 768 1724 793.5 c 128,-1,68
 1782 819 1782 819 1825.5 862.5 c 128,-1,69
 1869 906 1869 906 1894.5 964 c 128,-1,70
 1920 1022 1920 1022 1920 1088 c 256,71,72
 1920 1154 1920 1154 1894.5 1212 c 128,-1,73
 1869 1270 1869 1270 1825.5 1313.5 c 128,-1,74
 1782 1357 1782 1357 1724 1382.5 c 128,-1,75
 1666 1408 1666 1408 1600 1408 c 256,76,77
 1534 1408 1534 1408 1476 1382.5 c 128,-1,78
 1418 1357 1418 1357 1374.5 1313.5 c 128,-1,79
 1331 1270 1331 1270 1305.5 1212 c 128,-1,80
 1280 1154 1280 1154 1280 1088 c 256,81,82
 1280 1022 1280 1022 1305.5 964 c 128,-1,83
 1331 906 1331 906 1374.5 862.5 c 128,-1,84
 1418 819 1418 819 1476 793.5 c 128,-1,85
 1534 768 1534 768 1600 768 c 256,66,67
EndSplineSet
EndChar

StartChar: uniE77F
Encoding: 59263 59263 73
Width: 2048
Flags: W
LayerCount: 2
Fore
SplineSet
1920 1280 m 1,0,-1
 1920 0 l 1,1,-1
 896 0 l 1,2,-1
 896 128 l 1,3,-1
 128 128 l 1,4,-1
 128 1792 l 1,5,-1
 640 1792 l 1,6,7
 640 1844 640 1844 660.5 1891 c 128,-1,8
 681 1938 681 1938 715.5 1972.5 c 128,-1,9
 750 2007 750 2007 796.5 2027.5 c 128,-1,10
 843 2048 843 2048 896 2048 c 0,11,12
 948 2048 948 2048 995 2027.5 c 128,-1,13
 1042 2007 1042 2007 1076.5 1972.5 c 128,-1,14
 1111 1938 1111 1938 1131.5 1891 c 128,-1,15
 1152 1844 1152 1844 1152 1792 c 1,16,-1
 1664 1792 l 1,17,-1
 1664 1280 l 1,18,-1
 1920 1280 l 1,0,-1
512 1664 m 1,19,-1
 512 1536 l 1,20,-1
 1280 1536 l 1,21,-1
 1280 1664 l 1,22,-1
 1024 1664 l 1,23,24
 1024 1680 1024 1680 1024.5 1697.5 c 128,-1,25
 1025 1715 1025 1715 1025 1733 c 0,26,27
 1025 1767 1025 1767 1021.5 1800.5 c 128,-1,28
 1018 1834 1018 1834 1004.5 1860.5 c 128,-1,29
 991 1887 991 1887 965.5 1903.5 c 128,-1,30
 940 1920 940 1920 896 1920 c 256,31,32
 852 1920 852 1920 826.5 1903.5 c 128,-1,33
 801 1887 801 1887 787.5 1860.5 c 128,-1,34
 774 1834 774 1834 770.5 1800.5 c 128,-1,35
 767 1767 767 1767 767 1733 c 0,36,37
 767 1715 767 1715 767.5 1697.5 c 128,-1,38
 768 1680 768 1680 768 1664 c 1,39,-1
 512 1664 l 1,19,-1
896 256 m 1,40,-1
 896 1280 l 1,41,-1
 1536 1280 l 1,42,-1
 1536 1664 l 1,43,-1
 1408 1664 l 1,44,-1
 1408 1408 l 1,45,-1
 384 1408 l 1,46,-1
 384 1664 l 1,47,-1
 256 1664 l 1,48,-1
 256 256 l 1,49,-1
 896 256 l 1,40,-1
1792 1152 m 1,50,-1
 1024 1152 l 1,51,-1
 1024 128 l 1,52,-1
 1792 128 l 1,53,-1
 1792 1152 l 1,50,-1
EndSplineSet
EndChar

StartChar: uniE806
Encoding: 59398 59398 74
Width: 2048
Flags: W
LayerCount: 2
Fore
SplineSet
1920 1408 m 1,0,-1
 1920 1152 l 1,1,-1
 1792 1152 l 1,2,-1
 1792 192 l 2,3,4
 1792 158 1792 158 1788.5 123.5 c 128,-1,5
 1785 89 1785 89 1772.5 61.5 c 128,-1,6
 1760 34 1760 34 1734.5 17 c 128,-1,7
 1709 0 1709 0 1664 0 c 0,8,9
 1639 0 1639 0 1610.5 -1 c 128,-1,10
 1582 -2 1582 -2 1553.5 0 c 128,-1,11
 1525 2 1525 2 1498.5 8.5 c 128,-1,12
 1472 15 1472 15 1452 29 c 128,-1,13
 1432 43 1432 43 1420 67 c 128,-1,14
 1408 91 1408 91 1408 128 c 1,15,-1
 512 128 l 1,16,17
 512 101 512 101 502 78 c 128,-1,18
 492 55 492 55 474.5 37.5 c 128,-1,19
 457 20 457 20 434 10 c 128,-1,20
 411 0 411 0 384 0 c 0,21,22
 315 0 315 0 266 1 c 128,-1,23
 217 2 217 2 186.5 18.5 c 128,-1,24
 156 35 156 35 142 74.5 c 128,-1,25
 128 114 128 114 128 192 c 2,26,-1
 128 1152 l 1,27,-1
 0 1152 l 1,28,-1
 0 1408 l 1,29,-1
 128 1408 l 1,30,-1
 128 1728 l 2,31,32
 128 1768 128 1768 143 1803 c 128,-1,33
 158 1838 158 1838 184 1864 c 128,-1,34
 210 1890 210 1890 245 1905 c 128,-1,35
 280 1920 280 1920 320 1920 c 2,36,-1
 1600 1920 l 2,37,38
 1640 1920 1640 1920 1675 1905 c 128,-1,39
 1710 1890 1710 1890 1736 1864 c 128,-1,40
 1762 1838 1762 1838 1777 1803 c 128,-1,41
 1792 1768 1792 1768 1792 1728 c 2,42,-1
 1792 1408 l 1,43,-1
 1920 1408 l 1,0,-1
1664 768 m 1,44,-1
 256 768 l 1,45,-1
 256 512 l 1,46,-1
 384 512 l 1,47,48
 384 530 384 530 383.5 552.5 c 128,-1,49
 383 575 383 575 388 594.5 c 128,-1,50
 393 614 393 614 406.5 627 c 128,-1,51
 420 640 420 640 448 640 c 256,52,53
 476 640 476 640 489.5 627 c 128,-1,54
 503 614 503 614 508 594.5 c 128,-1,55
 513 575 513 575 512.5 552.5 c 128,-1,56
 512 530 512 530 512 512 c 1,57,-1
 1408 512 l 1,58,59
 1408 530 1408 530 1407.5 552.5 c 128,-1,60
 1407 575 1407 575 1412 594.5 c 128,-1,61
 1417 614 1417 614 1430.5 627 c 128,-1,62
 1444 640 1444 640 1472 640 c 256,63,64
 1500 640 1500 640 1513.5 627 c 128,-1,65
 1527 614 1527 614 1532 594.5 c 128,-1,66
 1537 575 1537 575 1536.5 552.5 c 128,-1,67
 1536 530 1536 530 1536 512 c 1,68,-1
 1664 512 l 1,69,-1
 1664 768 l 1,44,-1
896 896 m 1,70,-1
 896 1408 l 1,71,-1
 256 1408 l 1,72,-1
 256 896 l 1,73,-1
 896 896 l 1,70,-1
1664 1408 m 1,74,-1
 1024 1408 l 1,75,-1
 1024 896 l 1,76,-1
 1664 896 l 1,77,-1
 1664 1408 l 1,74,-1
320 1792 m 2,78,79
 294 1792 294 1792 275 1773 c 128,-1,80
 256 1754 256 1754 256 1728 c 2,81,-1
 256 1536 l 1,82,-1
 1664 1536 l 1,83,-1
 1664 1728 l 2,84,85
 1664 1754 1664 1754 1645 1773 c 128,-1,86
 1626 1792 1626 1792 1600 1792 c 2,87,-1
 320 1792 l 2,78,79
1664 256 m 1,88,-1
 1664 384 l 1,89,-1
 256 384 l 1,90,-1
 256 256 l 1,91,-1
 1664 256 l 1,88,-1
EndSplineSet
EndChar

StartChar: uniE807
Encoding: 59399 59399 75
Width: 2048
Flags: W
LayerCount: 2
Fore
SplineSet
960 2048 m 256,0,1
 986 2048 986 2048 1005 2029 c 128,-1,2
 1024 2010 1024 2010 1024 1984 c 2,3,-1
 1024 1280 l 2,4,5
 1024 1227 1024 1227 1003.5 1180.5 c 128,-1,6
 983 1134 983 1134 948.5 1099.5 c 128,-1,7
 914 1065 914 1065 867 1044.5 c 128,-1,8
 820 1024 820 1024 768 1024 c 1,9,-1
 768 64 l 2,10,11
 768 38 768 38 749 19 c 128,-1,12
 730 0 730 0 704 0 c 256,13,14
 678 0 678 0 659 19 c 128,-1,15
 640 38 640 38 640 64 c 2,16,-1
 640 1024 l 1,17,18
 587 1024 587 1024 540.5 1044.5 c 128,-1,19
 494 1065 494 1065 459.5 1099.5 c 128,-1,20
 425 1134 425 1134 404.5 1180.5 c 128,-1,21
 384 1227 384 1227 384 1280 c 2,22,-1
 384 1984 l 2,23,24
 384 2010 384 2010 403 2029 c 128,-1,25
 422 2048 422 2048 448 2048 c 256,26,27
 474 2048 474 2048 493 2029 c 128,-1,28
 512 2010 512 2010 512 1984 c 2,29,-1
 512 1280 l 2,30,31
 512 1253 512 1253 522 1230 c 128,-1,32
 532 1207 532 1207 549.5 1189.5 c 128,-1,33
 567 1172 567 1172 590 1162 c 128,-1,34
 613 1152 613 1152 640 1152 c 1,35,-1
 640 1984 l 2,36,37
 640 2010 640 2010 659 2029 c 128,-1,38
 678 2048 678 2048 704 2048 c 256,39,40
 730 2048 730 2048 749 2029 c 128,-1,41
 768 2010 768 2010 768 1984 c 2,42,-1
 768 1152 l 1,43,44
 795 1152 795 1152 818 1162 c 128,-1,45
 841 1172 841 1172 858.5 1189.5 c 128,-1,46
 876 1207 876 1207 886 1230 c 128,-1,47
 896 1253 896 1253 896 1280 c 2,48,-1
 896 1984 l 2,49,50
 896 2010 896 2010 915 2029 c 128,-1,51
 934 2048 934 2048 960 2048 c 256,0,1
1664 2048 m 1,52,-1
 1664 64 l 2,53,54
 1664 38 1664 38 1645 19 c 128,-1,55
 1626 0 1626 0 1600 0 c 256,56,57
 1574 0 1574 0 1555 19 c 128,-1,58
 1536 38 1536 38 1536 64 c 2,59,-1
 1536 640 l 1,60,61
 1499 640 1499 640 1456 639 c 128,-1,62
 1413 638 1413 638 1370.5 640.5 c 128,-1,63
 1328 643 1328 643 1288.5 652.5 c 128,-1,64
 1249 662 1249 662 1218.5 683.5 c 128,-1,65
 1188 705 1188 705 1170 740.5 c 128,-1,66
 1152 776 1152 776 1152 832 c 2,67,-1
 1152 1600 l 2,68,69
 1152 1693 1152 1693 1187.5 1774.5 c 128,-1,70
 1223 1856 1223 1856 1283.5 1916.5 c 128,-1,71
 1344 1977 1344 1977 1425.5 2012.5 c 128,-1,72
 1507 2048 1507 2048 1600 2048 c 2,73,-1
 1664 2048 l 1,52,-1
1536 1914 m 1,74,75
 1480 1903 1480 1903 1433.5 1873.5 c 128,-1,76
 1387 1844 1387 1844 1352.5 1802 c 128,-1,77
 1318 1760 1318 1760 1299 1708.5 c 128,-1,78
 1280 1657 1280 1657 1280 1600 c 2,79,-1
 1280 832 l 2,80,81
 1280 806 1280 806 1299 787 c 128,-1,82
 1318 768 1318 768 1344 768 c 2,83,-1
 1536 768 l 1,84,-1
 1536 1914 l 1,74,75
EndSplineSet
EndChar

StartChar: uniE80E
Encoding: 59406 59406 76
Width: 2048
Flags: W
LayerCount: 2
Fore
SplineSet
1024 1920 m 0,0,1
 1147 1920 1147 1920 1261.5 1888 c 128,-1,2
 1376 1856 1376 1856 1475.5 1797.5 c 128,-1,3
 1575 1739 1575 1739 1657 1657 c 128,-1,4
 1739 1575 1739 1575 1797.5 1475.5 c 128,-1,5
 1856 1376 1856 1376 1888 1261.5 c 128,-1,6
 1920 1147 1920 1147 1920 1024 c 256,7,8
 1920 901 1920 901 1888 786.5 c 128,-1,9
 1856 672 1856 672 1797.5 572.5 c 128,-1,10
 1739 473 1739 473 1657 391 c 128,-1,11
 1575 309 1575 309 1475.5 250.5 c 128,-1,12
 1376 192 1376 192 1261.5 160 c 128,-1,13
 1147 128 1147 128 1024 128 c 256,14,15
 901 128 901 128 786.5 160 c 128,-1,16
 672 192 672 192 572.5 250.5 c 128,-1,17
 473 309 473 309 391 391 c 128,-1,18
 309 473 309 473 250.5 572.5 c 128,-1,19
 192 672 192 672 160 786 c 128,-1,20
 128 900 128 900 128 1024 c 0,21,22
 128 1147 128 1147 160 1261.5 c 128,-1,23
 192 1376 192 1376 250.5 1475.5 c 128,-1,24
 309 1575 309 1575 391 1657 c 128,-1,25
 473 1739 473 1739 572.5 1797.5 c 128,-1,26
 672 1856 672 1856 786 1888 c 128,-1,27
 900 1920 900 1920 1024 1920 c 0,0,1
1024 256 m 256,28,29
 1130 256 1130 256 1228 283.5 c 128,-1,30
 1326 311 1326 311 1411.5 361 c 128,-1,31
 1497 411 1497 411 1567 481 c 128,-1,32
 1637 551 1637 551 1687 636.5 c 128,-1,33
 1737 722 1737 722 1764.5 820 c 128,-1,34
 1792 918 1792 918 1792 1024 c 256,35,36
 1792 1130 1792 1130 1764.5 1228 c 128,-1,37
 1737 1326 1737 1326 1687 1411.5 c 128,-1,38
 1637 1497 1637 1497 1567 1567 c 128,-1,39
 1497 1637 1497 1637 1411.5 1687 c 128,-1,40
 1326 1737 1326 1737 1228 1764.5 c 128,-1,41
 1130 1792 1130 1792 1024 1792 c 256,42,43
 918 1792 918 1792 820 1764.5 c 128,-1,44
 722 1737 722 1737 636.5 1687 c 128,-1,45
 551 1637 551 1637 481 1567 c 128,-1,46
 411 1497 411 1497 361 1411.5 c 128,-1,47
 311 1326 311 1326 283.5 1228 c 128,-1,48
 256 1130 256 1130 256 1024 c 256,49,50
 256 918 256 918 283.5 820 c 128,-1,51
 311 722 311 722 361 636.5 c 128,-1,52
 411 551 411 551 481 481 c 128,-1,53
 551 411 551 411 636.5 361 c 128,-1,54
 722 311 722 311 820 283.5 c 128,-1,55
 918 256 918 256 1024 256 c 256,28,29
EndSplineSet
EndChar

StartChar: uniE80F
Encoding: 59407 59407 77
Width: 2048
Flags: W
LayerCount: 2
Fore
SplineSet
1024 1883 m 1,0,-1
 1965 941 l 1,1,-1
 1875 851 l 1,2,-1
 1792 933 l 1,3,-1
 1792 128 l 1,4,-1
 1152 128 l 1,5,-1
 1152 768 l 1,6,-1
 896 768 l 1,7,-1
 896 128 l 1,8,-1
 256 128 l 1,9,-1
 256 933 l 1,10,-1
 173 851 l 1,11,-1
 83 941 l 1,12,-1
 1024 1883 l 1,0,-1
1664 256 m 1,13,-1
 1664 1061 l 1,14,-1
 1024 1701 l 1,15,-1
 384 1061 l 1,16,-1
 384 256 l 1,17,-1
 768 256 l 1,18,-1
 768 896 l 1,19,-1
 1280 896 l 1,20,-1
 1280 256 l 1,21,-1
 1664 256 l 1,13,-1
EndSplineSet
EndChar

StartChar: uniE810
Encoding: 59408 59408 78
Width: 2048
Flags: W
LayerCount: 2
Fore
SplineSet
211 1581 m 1,0,-1
 576 1946 l 1,1,-1
 941 1581 l 1,2,-1
 851 1491 l 1,3,-1
 640 1701 l 1,4,-1
 640 0 l 1,5,-1
 512 0 l 1,6,-1
 512 1701 l 1,7,-1
 301 1491 l 1,8,-1
 211 1581 l 1,0,-1
1747 557 m 1,9,-1
 1837 467 l 1,10,-1
 1472 102 l 1,11,-1
 1107 467 l 1,12,-1
 1197 557 l 1,13,-1
 1408 347 l 1,14,-1
 1408 2048 l 1,15,-1
 1536 2048 l 1,16,-1
 1536 347 l 1,17,-1
 1747 557 l 1,9,-1
EndSplineSet
EndChar

StartChar: uniE811
Encoding: 59409 59409 79
Width: 2048
Flags: W
LayerCount: 2
Fore
SplineSet
2019 589 m 2,0,1
 2048 525 2048 525 2048 456 c 2,2,-1
 2048 384 l 2,3,4
 2048 308 2048 308 2007 245 c 128,-1,5
 1966 182 1966 182 1897 151 c 1,6,7
 1866 82 1866 82 1803 41 c 128,-1,8
 1740 0 1740 0 1664 0 c 0,9,10
 1595 0 1595 0 1536 34 c 128,-1,11
 1477 68 1477 68 1442 128 c 1,12,-1
 734 128 l 1,13,14
 699 68 699 68 640 34 c 128,-1,15
 581 0 581 0 512 0 c 256,16,17
 443 0 443 0 384 34 c 128,-1,18
 325 68 325 68 290 128 c 1,19,-1
 128 128 l 2,20,21
 101 128 101 128 78 138 c 128,-1,22
 55 148 55 148 37.5 165.5 c 128,-1,23
 20 183 20 183 10 206 c 128,-1,24
 0 229 0 229 0 256 c 2,25,-1
 0 512 l 2,26,27
 0 592 0 592 30 662 c 128,-1,28
 60 732 60 732 112 784 c 128,-1,29
 164 836 164 836 234 866 c 128,-1,30
 304 896 304 896 384 896 c 2,31,-1
 421 896 l 1,32,-1
 749 1224 l 2,33,34
 776 1251 776 1251 811.5 1265.5 c 128,-1,35
 847 1280 847 1280 885 1280 c 2,36,-1
 1792 1280 l 1,37,-1
 1792 1152 l 1,38,-1
 1763 1152 l 1,39,-1
 2019 589 l 2,0,1
1280 1152 m 1,40,-1
 1280 896 l 1,41,-1
 1739 896 l 1,42,-1
 1640 1115 l 2,43,44
 1632 1132 1632 1132 1615.5 1142 c 128,-1,45
 1599 1152 1599 1152 1581 1152 c 2,46,-1
 1280 1152 l 1,40,-1
885 1152 m 2,47,48
 859 1152 859 1152 840 1133 c 2,49,-1
 603 896 l 1,50,-1
 1152 896 l 1,51,-1
 1152 1152 l 1,52,-1
 885 1152 l 2,47,48
512 128 m 256,53,54
 539 128 539 128 562 138 c 128,-1,55
 585 148 585 148 602.5 165.5 c 128,-1,56
 620 183 620 183 630 206 c 128,-1,57
 640 229 640 229 640 256 c 256,58,59
 640 283 640 283 630 306 c 128,-1,60
 620 329 620 329 602.5 346.5 c 128,-1,61
 585 364 585 364 562 374 c 128,-1,62
 539 384 539 384 512 384 c 256,63,64
 485 384 485 384 462 374 c 128,-1,65
 439 364 439 364 421.5 346.5 c 128,-1,66
 404 329 404 329 394 306 c 128,-1,67
 384 283 384 283 384 256 c 256,68,69
 384 229 384 229 394 206 c 128,-1,70
 404 183 404 183 421.5 165.5 c 128,-1,71
 439 148 439 148 462 138 c 128,-1,72
 485 128 485 128 512 128 c 256,53,54
512 512 m 256,73,74
 565 512 565 512 611.5 492 c 128,-1,75
 658 472 658 472 693 437 c 128,-1,76
 728 402 728 402 748 355.5 c 128,-1,77
 768 309 768 309 768 256 c 1,78,-1
 1152 256 l 1,79,-1
 1152 768 l 1,80,-1
 384 768 l 2,81,82
 331 768 331 768 284.5 748 c 128,-1,83
 238 728 238 728 203 693 c 128,-1,84
 168 658 168 658 148 611.5 c 128,-1,85
 128 565 128 565 128 512 c 2,86,-1
 128 256 l 1,87,-1
 256 256 l 1,88,89
 256 309 256 309 276 355.5 c 128,-1,90
 296 402 296 402 331 437 c 128,-1,91
 366 472 366 472 412.5 492 c 128,-1,92
 459 512 459 512 512 512 c 256,73,74
1664 128 m 256,93,94
 1691 128 1691 128 1714 138 c 128,-1,95
 1737 148 1737 148 1754.5 165.5 c 128,-1,96
 1772 183 1772 183 1782 206 c 128,-1,97
 1792 229 1792 229 1792 256 c 256,98,99
 1792 283 1792 283 1782 306 c 128,-1,100
 1772 329 1772 329 1754.5 346.5 c 128,-1,101
 1737 364 1737 364 1714 374 c 128,-1,102
 1691 384 1691 384 1664 384 c 256,103,104
 1637 384 1637 384 1614 374 c 128,-1,105
 1591 364 1591 364 1573.5 346.5 c 128,-1,106
 1556 329 1556 329 1546 306 c 128,-1,107
 1536 283 1536 283 1536 256 c 256,108,109
 1536 229 1536 229 1546 206 c 128,-1,110
 1556 183 1556 183 1573.5 165.5 c 128,-1,111
 1591 148 1591 148 1614 138 c 128,-1,112
 1637 128 1637 128 1664 128 c 256,93,94
1920 456 m 2,113,114
 1920 497 1920 497 1903 536 c 2,115,-1
 1797 768 l 1,116,-1
 1280 768 l 1,117,-1
 1280 256 l 1,118,-1
 1408 256 l 1,119,120
 1408 309 1408 309 1428 355.5 c 128,-1,121
 1448 402 1448 402 1483 437 c 128,-1,122
 1518 472 1518 472 1564.5 492 c 128,-1,123
 1611 512 1611 512 1664 512 c 0,124,125
 1706 512 1706 512 1745 499 c 128,-1,126
 1784 486 1784 486 1816 462 c 128,-1,127
 1848 438 1848 438 1872 404.5 c 128,-1,128
 1896 371 1896 371 1909 331 c 1,129,130
 1920 358 1920 358 1920 384 c 2,131,-1
 1920 456 l 2,113,114
EndSplineSet
EndChar

StartChar: uniE816
Encoding: 59414 59414 80
Width: 2048
Flags: W
LayerCount: 2
Fore
SplineSet
1024 2048 m 1,0,-1
 2048 1024 l 1,1,-1
 1024 0 l 1,2,-1
 0 1024 l 1,3,-1
 1024 2048 l 1,0,-1
768 437 m 1,4,-1
 1024 181 l 1,5,-1
 1867 1024 l 1,6,-1
 1024 1867 l 1,7,-1
 181 1024 l 1,8,-1
 640 565 l 1,9,-1
 640 1152 l 1,10,-1
 1189 1152 l 1,11,-1
 979 1363 l 1,12,-1
 1069 1453 l 1,13,-1
 1434 1088 l 1,14,-1
 1069 723 l 1,15,-1
 979 813 l 1,16,-1
 1189 1024 l 1,17,-1
 768 1024 l 1,18,-1
 768 437 l 1,4,-1
EndSplineSet
EndChar

StartChar: uniE817
Encoding: 59415 59415 81
Width: 2048
Flags: W
LayerCount: 2
Fore
SplineSet
640 1755 m 1,0,-1
 1371 1024 l 1,1,-1
 640 293 l 1,2,-1
 640 1755 l 1,0,-1
768 1445 m 1,3,-1
 768 603 l 1,4,-1
 1189 1024 l 1,5,-1
 768 1445 l 1,3,-1
EndSplineSet
EndChar

StartChar: uniE818
Encoding: 59416 59416 82
Width: 2048
Flags: W
LayerCount: 2
Fore
SplineSet
549 512 m 1,0,-1
 1536 1499 l 1,1,-1
 1536 512 l 1,2,-1
 549 512 l 1,3,-1
 549 512 l 1,0,-1
EndSplineSet
EndChar

StartChar: uniE81C
Encoding: 59420 59420 83
Width: 2048
Flags: W
LayerCount: 2
Fore
SplineSet
1024 1536 m 1,0,-1
 1024 987 l 1,1,-1
 1389 621 l 1,2,-1
 1299 531 l 1,3,-1
 896 933 l 1,4,-1
 896 1536 l 1,5,-1
 1024 1536 l 1,0,-1
1968 1423 m 0,6,7
 2048 1231 2048 1231 2048 1024 c 256,8,9
 2048 817 2048 817 1968 625 c 0,10,11
 1890 442 1890 442 1748 300 c 256,12,13
 1606 158 1606 158 1423 80 c 0,14,15
 1231 0 1231 0 1024 0 c 0,16,17
 850 0 850 0 688 57 c 0,18,19
 530 112 530 112 399 213 c 0,20,21
 269 314 269 314 176 451 c 0,22,23
 129 520 129 520 94.5 595 c 128,-1,24
 60 670 60 670 38 751 c 1,25,-1
 161 785 l 1,26,27
 201 640 201 640 284.5 519 c 128,-1,28
 368 398 368 398 482 311 c 128,-1,29
 596 224 596 224 735 176 c 128,-1,30
 874 128 874 128 1024 128 c 0,31,32
 1147 128 1147 128 1261.5 160 c 128,-1,33
 1376 192 1376 192 1475.5 250.5 c 128,-1,34
 1575 309 1575 309 1657 391 c 128,-1,35
 1739 473 1739 473 1797.5 572.5 c 128,-1,36
 1856 672 1856 672 1888 786 c 128,-1,37
 1920 900 1920 900 1920 1024 c 0,38,39
 1920 1147 1920 1147 1888 1261.5 c 128,-1,40
 1856 1376 1856 1376 1797.5 1475.5 c 128,-1,41
 1739 1575 1739 1575 1657 1657 c 128,-1,42
 1575 1739 1575 1739 1475.5 1797.5 c 128,-1,43
 1376 1856 1376 1856 1261.5 1888 c 128,-1,44
 1147 1920 1147 1920 1024 1920 c 0,45,46
 894 1920 894 1920 772 1883.5 c 128,-1,47
 650 1847 650 1847 544.5 1780 c 128,-1,48
 439 1713 439 1713 354.5 1618.5 c 128,-1,49
 270 1524 270 1524 215 1408 c 1,50,-1
 512 1408 l 1,51,-1
 512 1280 l 1,52,-1
 0 1280 l 1,53,-1
 0 1792 l 1,54,-1
 128 1792 l 1,55,-1
 128 1518 l 1,56,57
 145 1550 145 1550 165 1580.5 c 128,-1,58
 185 1611 185 1611 207 1640 c 0,59,60
 301 1765 301 1765 427 1856 c 0,61,62
 559 1950 559 1950 710 1999 c 128,-1,63
 861 2048 861 2048 1024 2048 c 0,64,65
 1231 2048 1231 2048 1423 1968 c 0,66,67
 1606 1890 1606 1890 1748 1748 c 256,68,69
 1890 1606 1890 1606 1968 1423 c 0,6,7
EndSplineSet
EndChar

StartChar: uniE821
Encoding: 59425 59425 84
Width: 2048
Flags: W
LayerCount: 2
Fore
SplineSet
2048 1664 m 1,0,-1
 2048 384 l 1,1,-1
 0 384 l 1,2,-1
 0 1664 l 1,3,-1
 640 1664 l 1,4,-1
 640 1792 l 2,5,6
 640 1819 640 1819 650 1842 c 128,-1,7
 660 1865 660 1865 677.5 1882.5 c 128,-1,8
 695 1900 695 1900 718 1910 c 128,-1,9
 741 1920 741 1920 768 1920 c 2,10,-1
 1280 1920 l 2,11,12
 1307 1920 1307 1920 1330 1910 c 128,-1,13
 1353 1900 1353 1900 1370.5 1882.5 c 128,-1,14
 1388 1865 1388 1865 1398 1842 c 128,-1,15
 1408 1819 1408 1819 1408 1792 c 2,16,-1
 1408 1664 l 1,17,-1
 2048 1664 l 1,0,-1
768 1664 m 1,18,-1
 1280 1664 l 1,19,-1
 1280 1792 l 1,20,-1
 768 1792 l 1,21,-1
 768 1664 l 1,18,-1
128 1536 m 1,22,-1
 128 1351 l 1,23,-1
 768 1032 l 1,24,-1
 768 1152 l 1,25,-1
 1280 1152 l 1,26,-1
 1280 1032 l 1,27,-1
 1920 1351 l 1,28,-1
 1920 1536 l 1,29,-1
 128 1536 l 1,22,-1
896 1024 m 1,30,-1
 896 896 l 1,31,-1
 1152 896 l 1,32,-1
 1152 1024 l 1,33,-1
 896 1024 l 1,30,-1
1920 512 m 1,34,-1
 1920 1209 l 1,35,-1
 1280 888 l 1,36,-1
 1280 768 l 1,37,-1
 768 768 l 1,38,-1
 768 888 l 1,39,-1
 128 1209 l 1,40,-1
 128 512 l 1,41,-1
 1920 512 l 1,34,-1
EndSplineSet
EndChar

StartChar: uniE823
Encoding: 59427 59427 85
Width: 2048
Flags: W
LayerCount: 2
Fore
SplineSet
1024 0 m 0,0,1
 882 0 882 0 751.5 36.5 c 128,-1,2
 621 73 621 73 507 139.5 c 128,-1,3
 393 206 393 206 299.5 299.5 c 128,-1,4
 206 393 206 393 139.5 507 c 128,-1,5
 73 621 73 621 36.5 752 c 128,-1,6
 0 883 0 883 0 1024 c 256,7,8
 0 1165 0 1165 36.5 1296 c 128,-1,9
 73 1427 73 1427 139.5 1541 c 128,-1,10
 206 1655 206 1655 299.5 1748.5 c 128,-1,11
 393 1842 393 1842 507 1908.5 c 128,-1,12
 621 1975 621 1975 752 2011.5 c 128,-1,13
 883 2048 883 2048 1024 2048 c 256,14,15
 1165 2048 1165 2048 1296 2011.5 c 128,-1,16
 1427 1975 1427 1975 1541 1908.5 c 128,-1,17
 1655 1842 1655 1842 1748.5 1748.5 c 128,-1,18
 1842 1655 1842 1655 1908.5 1541 c 128,-1,19
 1975 1427 1975 1427 2011.5 1296 c 128,-1,20
 2048 1165 2048 1165 2048 1024 c 0,21,22
 2048 882 2048 882 2011.5 751.5 c 128,-1,23
 1975 621 1975 621 1908.5 507 c 128,-1,24
 1842 393 1842 393 1748.5 299.5 c 128,-1,25
 1655 206 1655 206 1541 139.5 c 128,-1,26
 1427 73 1427 73 1296 36.5 c 128,-1,27
 1165 0 1165 0 1024 0 c 0,0,1
1024 1920 m 256,28,29
 901 1920 901 1920 786.5 1888 c 128,-1,30
 672 1856 672 1856 572.5 1797.5 c 128,-1,31
 473 1739 473 1739 391 1657 c 128,-1,32
 309 1575 309 1575 250.5 1475.5 c 128,-1,33
 192 1376 192 1376 160 1261.5 c 128,-1,34
 128 1147 128 1147 128 1024 c 256,35,36
 128 901 128 901 160 786.5 c 128,-1,37
 192 672 192 672 250.5 572.5 c 128,-1,38
 309 473 309 473 391 391 c 128,-1,39
 473 309 473 309 572.5 250.5 c 128,-1,40
 672 192 672 192 786.5 160 c 128,-1,41
 901 128 901 128 1024 128 c 256,42,43
 1147 128 1147 128 1261.5 160 c 128,-1,44
 1376 192 1376 192 1475.5 250.5 c 128,-1,45
 1575 309 1575 309 1657 391 c 128,-1,46
 1739 473 1739 473 1797.5 572.5 c 128,-1,47
 1856 672 1856 672 1888 786.5 c 128,-1,48
 1920 901 1920 901 1920 1024 c 256,49,50
 1920 1147 1920 1147 1888 1261.5 c 128,-1,51
 1856 1376 1856 1376 1797.5 1475.5 c 128,-1,52
 1739 1575 1739 1575 1657 1657 c 128,-1,53
 1575 1739 1575 1739 1475.5 1797.5 c 128,-1,54
 1376 1856 1376 1856 1261.5 1888 c 128,-1,55
 1147 1920 1147 1920 1024 1920 c 256,28,29
1024 1024 m 1,56,-1
 1024 1664 l 1,57,-1
 896 1664 l 1,58,-1
 896 896 l 1,59,-1
 1408 896 l 1,60,-1
 1408 1024 l 1,61,-1
 1024 1024 l 1,56,-1
EndSplineSet
EndChar

StartChar: uniE824
Encoding: 59428 59428 86
Width: 2048
Flags: W
LayerCount: 2
Fore
SplineSet
2048 896 m 1,0,-1
 2048 128 l 1,1,-1
 1920 128 l 1,2,-1
 1920 256 l 1,3,-1
 128 256 l 1,4,-1
 128 128 l 1,5,-1
 0 128 l 1,6,-1
 0 896 l 1,7,-1
 128 896 l 1,8,-1
 128 783 l 1,9,-1
 384 1295 l 1,10,-1
 384 1920 l 1,11,-1
 512 1920 l 1,12,-1
 512 1792 l 1,13,-1
 1536 1792 l 1,14,-1
 1536 1920 l 1,15,-1
 1664 1920 l 1,16,-1
 1664 1536 l 1,17,18
 1691 1536 1691 1536 1714 1526 c 128,-1,19
 1737 1516 1737 1516 1754.5 1498.5 c 128,-1,20
 1772 1481 1772 1481 1782 1458 c 128,-1,21
 1792 1435 1792 1435 1792 1408 c 2,22,-1
 1792 1152 l 2,23,24
 1792 1113 1792 1113 1771 1082 c 1,25,-1
 1920 783 l 1,26,-1
 1920 896 l 1,27,-1
 2048 896 l 1,0,-1
1152 1408 m 1,28,-1
 1152 1152 l 1,29,-1
 1664 1152 l 1,30,-1
 1664 1408 l 1,31,-1
 1152 1408 l 1,28,-1
512 1664 m 1,32,-1
 512 1280 l 1,33,-1
 1024 1280 l 1,34,-1
 1024 1408 l 2,35,36
 1024 1435 1024 1435 1034 1458 c 128,-1,37
 1044 1481 1044 1481 1061.5 1498.5 c 128,-1,38
 1079 1516 1079 1516 1102 1526 c 128,-1,39
 1125 1536 1125 1536 1152 1536 c 2,40,-1
 1536 1536 l 1,41,-1
 1536 1664 l 1,42,-1
 512 1664 l 1,32,-1
264 768 m 1,43,-1
 1784 768 l 1,44,-1
 1656 1024 l 1,45,-1
 1152 1024 l 2,46,47
 1125 1024 1125 1024 1102 1034 c 128,-1,48
 1079 1044 1079 1044 1061.5 1061.5 c 128,-1,49
 1044 1079 1044 1079 1034 1102 c 128,-1,50
 1024 1125 1024 1125 1024 1152 c 1,51,-1
 455 1152 l 1,52,-1
 264 768 l 1,43,-1
1920 384 m 1,53,-1
 1920 640 l 1,54,-1
 128 640 l 1,55,-1
 128 384 l 1,56,-1
 1920 384 l 1,53,-1
EndSplineSet
EndChar

StartChar: uniE827
Encoding: 59431 59431 87
Width: 2048
Flags: W
LayerCount: 2
Fore
SplineSet
1024 1408 m 256,0,1
 1103 1408 1103 1408 1173 1377.5 c 128,-1,2
 1243 1347 1243 1347 1295 1295 c 128,-1,3
 1347 1243 1347 1243 1377.5 1173 c 128,-1,4
 1408 1103 1408 1103 1408 1024 c 256,5,6
 1408 945 1408 945 1377.5 875 c 128,-1,7
 1347 805 1347 805 1295 753 c 128,-1,8
 1243 701 1243 701 1173 670.5 c 128,-1,9
 1103 640 1103 640 1024 640 c 256,10,11
 945 640 945 640 875 670.5 c 128,-1,12
 805 701 805 701 753 753 c 128,-1,13
 701 805 701 805 670.5 875 c 128,-1,14
 640 945 640 945 640 1024 c 256,15,16
 640 1103 640 1103 670.5 1173 c 128,-1,17
 701 1243 701 1243 753 1295 c 128,-1,18
 805 1347 805 1347 875 1377.5 c 128,-1,19
 945 1408 945 1408 1024 1408 c 256,0,1
EndSplineSet
EndChar

StartChar: uniE902
Encoding: 59650 59650 88
Width: 2048
Flags: W
LayerCount: 2
Fore
SplineSet
1850 1360 m 1,0,1
 1895 1335 1895 1335 1932 1298.5 c 128,-1,2
 1969 1262 1969 1262 1994.5 1218.5 c 128,-1,3
 2020 1175 2020 1175 2034 1125.5 c 128,-1,4
 2048 1076 2048 1076 2048 1024 c 1,5,-1
 1920 1024 l 1,6,7
 1920 1076 1920 1076 1899.5 1123 c 128,-1,8
 1879 1170 1879 1170 1844.5 1204.5 c 128,-1,9
 1810 1239 1810 1239 1763 1259.5 c 128,-1,10
 1716 1280 1716 1280 1664 1280 c 0,11,12
 1611 1280 1611 1280 1564.5 1259.5 c 128,-1,13
 1518 1239 1518 1239 1483.5 1204.5 c 128,-1,14
 1449 1170 1449 1170 1428.5 1123 c 128,-1,15
 1408 1076 1408 1076 1408 1024 c 0,16,17
 1408 933 1408 933 1366.5 851 c 128,-1,18
 1325 769 1325 769 1252 715 c 1,19,20
 1317 682 1317 682 1369.5 633.5 c 128,-1,21
 1422 585 1422 585 1459 525.5 c 128,-1,22
 1496 466 1496 466 1516 397.5 c 128,-1,23
 1536 329 1536 329 1536 256 c 1,24,-1
 1408 256 l 1,25,26
 1408 335 1408 335 1377.5 405 c 128,-1,27
 1347 475 1347 475 1295 527 c 128,-1,28
 1243 579 1243 579 1173 609.5 c 128,-1,29
 1103 640 1103 640 1024 640 c 256,30,31
 945 640 945 640 875 609.5 c 128,-1,32
 805 579 805 579 753 527 c 128,-1,33
 701 475 701 475 670.5 405 c 128,-1,34
 640 335 640 335 640 256 c 1,35,-1
 512 256 l 1,36,37
 512 329 512 329 532 397.5 c 128,-1,38
 552 466 552 466 589 525.5 c 128,-1,39
 626 585 626 585 678.5 633.5 c 128,-1,40
 731 682 731 682 796 715 c 1,41,42
 723 769 723 769 681.5 851 c 128,-1,43
 640 933 640 933 640 1024 c 0,44,45
 640 1076 640 1076 619.5 1123 c 128,-1,46
 599 1170 599 1170 564.5 1204.5 c 128,-1,47
 530 1239 530 1239 483 1259.5 c 128,-1,48
 436 1280 436 1280 384 1280 c 0,49,50
 331 1280 331 1280 284.5 1259.5 c 128,-1,51
 238 1239 238 1239 203.5 1204.5 c 128,-1,52
 169 1170 169 1170 148.5 1123 c 128,-1,53
 128 1076 128 1076 128 1024 c 1,54,-1
 0 1024 l 1,55,56
 0 1076 0 1076 14 1125.5 c 128,-1,57
 28 1175 28 1175 53.5 1218.5 c 128,-1,58
 79 1262 79 1262 116 1298.5 c 128,-1,59
 153 1335 153 1335 198 1360 c 1,60,61
 165 1395 165 1395 146.5 1441 c 128,-1,62
 128 1487 128 1487 128 1536 c 0,63,64
 128 1588 128 1588 148.5 1635 c 128,-1,65
 169 1682 169 1682 203.5 1716.5 c 128,-1,66
 238 1751 238 1751 284.5 1771.5 c 128,-1,67
 331 1792 331 1792 384 1792 c 0,68,69
 436 1792 436 1792 483 1771.5 c 128,-1,70
 530 1751 530 1751 564.5 1716.5 c 128,-1,71
 599 1682 599 1682 619.5 1635 c 128,-1,72
 640 1588 640 1588 640 1536 c 0,73,74
 640 1487 640 1487 621.5 1441 c 128,-1,75
 603 1395 603 1395 570 1360 c 1,76,77
 652 1315 652 1315 704 1236 c 1,78,79
 758 1316 758 1316 842.5 1362 c 128,-1,80
 927 1408 927 1408 1024 1408 c 256,81,82
 1121 1408 1121 1408 1205.5 1362 c 128,-1,83
 1290 1316 1290 1316 1344 1236 c 1,84,85
 1396 1315 1396 1315 1478 1360 c 1,86,87
 1445 1395 1445 1395 1426.5 1441 c 128,-1,88
 1408 1487 1408 1487 1408 1536 c 0,89,90
 1408 1588 1408 1588 1428.5 1635 c 128,-1,91
 1449 1682 1449 1682 1483.5 1716.5 c 128,-1,92
 1518 1751 1518 1751 1564.5 1771.5 c 128,-1,93
 1611 1792 1611 1792 1664 1792 c 0,94,95
 1716 1792 1716 1792 1763 1771.5 c 128,-1,96
 1810 1751 1810 1751 1844.5 1716.5 c 128,-1,97
 1879 1682 1879 1682 1899.5 1635 c 128,-1,98
 1920 1588 1920 1588 1920 1536 c 0,99,100
 1920 1487 1920 1487 1901.5 1441 c 128,-1,101
 1883 1395 1883 1395 1850 1360 c 1,0,1
256 1536 m 256,102,103
 256 1509 256 1509 266 1486 c 128,-1,104
 276 1463 276 1463 293.5 1445.5 c 128,-1,105
 311 1428 311 1428 334 1418 c 128,-1,106
 357 1408 357 1408 384 1408 c 256,107,108
 411 1408 411 1408 434 1418 c 128,-1,109
 457 1428 457 1428 474.5 1445.5 c 128,-1,110
 492 1463 492 1463 502 1486 c 128,-1,111
 512 1509 512 1509 512 1536 c 256,112,113
 512 1563 512 1563 502 1586 c 128,-1,114
 492 1609 492 1609 474.5 1626.5 c 128,-1,115
 457 1644 457 1644 434 1654 c 128,-1,116
 411 1664 411 1664 384 1664 c 256,117,118
 357 1664 357 1664 334 1654 c 128,-1,119
 311 1644 311 1644 293.5 1626.5 c 128,-1,120
 276 1609 276 1609 266 1586 c 128,-1,121
 256 1563 256 1563 256 1536 c 256,102,103
1024 768 m 0,122,123
 1076 768 1076 768 1123 788.5 c 128,-1,124
 1170 809 1170 809 1204.5 843.5 c 128,-1,125
 1239 878 1239 878 1259.5 924.5 c 128,-1,126
 1280 971 1280 971 1280 1024 c 0,127,128
 1280 1076 1280 1076 1259.5 1123 c 128,-1,129
 1239 1170 1239 1170 1204.5 1204.5 c 128,-1,130
 1170 1239 1170 1239 1123 1259.5 c 128,-1,131
 1076 1280 1076 1280 1024 1280 c 0,132,133
 971 1280 971 1280 924.5 1259.5 c 128,-1,134
 878 1239 878 1239 843.5 1204.5 c 128,-1,135
 809 1170 809 1170 788.5 1123 c 128,-1,136
 768 1076 768 1076 768 1024 c 0,137,138
 768 971 768 971 788.5 924.5 c 128,-1,139
 809 878 809 878 843.5 843.5 c 128,-1,140
 878 809 878 809 924.5 788.5 c 128,-1,141
 971 768 971 768 1024 768 c 0,122,123
1536 1536 m 256,142,143
 1536 1509 1536 1509 1546 1486 c 128,-1,144
 1556 1463 1556 1463 1573.5 1445.5 c 128,-1,145
 1591 1428 1591 1428 1614 1418 c 128,-1,146
 1637 1408 1637 1408 1664 1408 c 256,147,148
 1691 1408 1691 1408 1714 1418 c 128,-1,149
 1737 1428 1737 1428 1754.5 1445.5 c 128,-1,150
 1772 1463 1772 1463 1782 1486 c 128,-1,151
 1792 1509 1792 1509 1792 1536 c 256,152,153
 1792 1563 1792 1563 1782 1586 c 128,-1,154
 1772 1609 1772 1609 1754.5 1626.5 c 128,-1,155
 1737 1644 1737 1644 1714 1654 c 128,-1,156
 1691 1664 1691 1664 1664 1664 c 256,157,158
 1637 1664 1637 1664 1614 1654 c 128,-1,159
 1591 1644 1591 1644 1573.5 1626.5 c 128,-1,160
 1556 1609 1556 1609 1546 1586 c 128,-1,161
 1536 1563 1536 1563 1536 1536 c 256,142,143
EndSplineSet
EndChar

StartChar: uniE900
Encoding: 59648 59648 89
Width: 2048
Flags: W
LayerCount: 2
Fore
SplineSet
2048 1536 m 1,0,-1
 2048 640 l 2,1,2
 2048 587 2048 587 2027.5 540.5 c 128,-1,3
 2007 494 2007 494 1972.5 459.5 c 128,-1,4
 1938 425 1938 425 1891 404.5 c 128,-1,5
 1844 384 1844 384 1792 384 c 2,6,-1
 249 384 l 2,7,8
 198 384 198 384 152.5 404 c 128,-1,9
 107 424 107 424 73.5 457.5 c 128,-1,10
 40 491 40 491 20 536.5 c 128,-1,11
 0 582 0 582 0 633 c 2,12,-1
 0 1792 l 1,13,-1
 1792 1792 l 1,14,-1
 1792 1536 l 1,15,-1
 2048 1536 l 1,0,-1
1920 1408 m 1,16,-1
 1792 1408 l 1,17,-1
 1792 704 l 2,18,19
 1792 678 1792 678 1773 659 c 128,-1,20
 1754 640 1754 640 1728 640 c 256,21,22
 1702 640 1702 640 1683 659 c 128,-1,23
 1664 678 1664 678 1664 704 c 2,24,-1
 1664 1664 l 1,25,-1
 128 1664 l 1,26,-1
 128 633 l 2,27,28
 128 608 128 608 137.5 586 c 128,-1,29
 147 564 147 564 163.5 547.5 c 128,-1,30
 180 531 180 531 202 521.5 c 128,-1,31
 224 512 224 512 249 512 c 2,32,-1
 1792 512 l 2,33,34
 1819 512 1819 512 1842 522 c 128,-1,35
 1865 532 1865 532 1882.5 549.5 c 128,-1,36
 1900 567 1900 567 1910 590 c 128,-1,37
 1920 613 1920 613 1920 640 c 2,38,-1
 1920 1408 l 1,16,-1
1536 1408 m 1,39,-1
 256 1408 l 1,40,-1
 256 1536 l 1,41,-1
 1536 1536 l 1,42,-1
 1536 1408 l 1,39,-1
1536 640 m 1,43,-1
 1024 640 l 1,44,-1
 1024 768 l 1,45,-1
 1536 768 l 1,46,-1
 1536 640 l 1,43,-1
1536 896 m 1,47,-1
 1024 896 l 1,48,-1
 1024 1024 l 1,49,-1
 1536 1024 l 1,50,-1
 1536 896 l 1,47,-1
1536 1152 m 1,51,-1
 1024 1152 l 1,52,-1
 1024 1280 l 1,53,-1
 1536 1280 l 1,54,-1
 1536 1152 l 1,51,-1
896 640 m 1,55,-1
 256 640 l 1,56,-1
 256 1283 l 1,57,-1
 896 1283 l 1,58,-1
 896 640 l 1,55,-1
384 768 m 1,59,-1
 768 768 l 1,60,-1
 768 1155 l 1,61,-1
 384 1155 l 1,62,-1
 384 768 l 1,59,-1
EndSplineSet
EndChar

StartChar: uniE70F
Encoding: 59151 59151 90
Width: 2048
Flags: W
LayerCount: 2
Fore
SplineSet
2048 1713 m 0,0,1
 2048 1647 2048 1647 2023 1585 c 128,-1,2
 1998 1523 1998 1523 1950 1475 c 2,3,-1
 633 158 l 1,4,-1
 0 0 l 1,5,-1
 158 633 l 1,6,-1
 1475 1950 l 2,7,8
 1523 1998 1523 1998 1585 2023 c 128,-1,9
 1647 2048 1647 2048 1713 2048 c 0,10,11
 1782 2048 1782 2048 1843 2021.5 c 128,-1,12
 1904 1995 1904 1995 1949.5 1949.5 c 128,-1,13
 1995 1904 1995 1904 2021.5 1843 c 128,-1,14
 2048 1782 2048 1782 2048 1713 c 0,0,1
326 620 m 1,15,16
 432 585 432 585 508.5 508.5 c 128,-1,17
 585 432 585 432 620 326 c 1,18,-1
 1701 1408 l 1,19,-1
 1408 1701 l 1,20,-1
 326 620 l 1,15,16
176 176 m 1,21,-1
 505 258 l 1,22,23
 495 304 495 304 472.5 345 c 128,-1,24
 450 386 450 386 418 418 c 128,-1,25
 386 450 386 450 345 472.5 c 128,-1,26
 304 495 304 495 258 505 c 1,27,-1
 176 176 l 1,21,-1
1792 1499 m 1,28,29
 1817 1524 1817 1524 1840 1546 c 128,-1,30
 1863 1568 1863 1568 1881 1592.5 c 128,-1,31
 1899 1617 1899 1617 1909.5 1645.5 c 128,-1,32
 1920 1674 1920 1674 1920 1712 c 0,33,34
 1920 1755 1920 1755 1903.5 1792.5 c 128,-1,35
 1887 1830 1887 1830 1858.5 1858.5 c 128,-1,36
 1830 1887 1830 1887 1792.5 1903.5 c 128,-1,37
 1755 1920 1755 1920 1712 1920 c 0,38,39
 1674 1920 1674 1920 1645.5 1909.5 c 128,-1,40
 1617 1899 1617 1899 1592.5 1881 c 128,-1,41
 1568 1863 1568 1863 1546 1840 c 128,-1,42
 1524 1817 1524 1817 1499 1792 c 1,43,-1
 1792 1499 l 1,28,29
EndSplineSet
EndChar

StartChar: uniE716
Encoding: 59158 59158 91
Width: 2048
Flags: W
LayerCount: 2
Fore
SplineSet
1636 1355 m 1,0,1
 1701 1322 1701 1322 1753.5 1273.5 c 128,-1,2
 1806 1225 1806 1225 1843 1165.5 c 128,-1,3
 1880 1106 1880 1106 1900 1037.5 c 128,-1,4
 1920 969 1920 969 1920 896 c 1,5,-1
 1792 896 l 1,6,7
 1792 975 1792 975 1761.5 1045 c 128,-1,8
 1731 1115 1731 1115 1679 1167 c 128,-1,9
 1627 1219 1627 1219 1557 1249.5 c 128,-1,10
 1487 1280 1487 1280 1408 1280 c 256,11,12
 1329 1280 1329 1280 1259 1249.5 c 128,-1,13
 1189 1219 1189 1219 1137 1167 c 128,-1,14
 1085 1115 1085 1115 1054.5 1045 c 128,-1,15
 1024 975 1024 975 1024 896 c 0,16,17
 1024 805 1024 805 982.5 723 c 128,-1,18
 941 641 941 641 868 587 c 1,19,20
 933 554 933 554 985.5 505.5 c 128,-1,21
 1038 457 1038 457 1075 397.5 c 128,-1,22
 1112 338 1112 338 1132 269.5 c 128,-1,23
 1152 201 1152 201 1152 128 c 1,24,-1
 1024 128 l 1,25,26
 1024 207 1024 207 993.5 277 c 128,-1,27
 963 347 963 347 911 399 c 128,-1,28
 859 451 859 451 789 481.5 c 128,-1,29
 719 512 719 512 640 512 c 256,30,31
 561 512 561 512 491 481.5 c 128,-1,32
 421 451 421 451 369 399 c 128,-1,33
 317 347 317 347 286.5 277 c 128,-1,34
 256 207 256 207 256 128 c 1,35,-1
 128 128 l 1,36,37
 128 201 128 201 148 269.5 c 128,-1,38
 168 338 168 338 205 397.5 c 128,-1,39
 242 457 242 457 294.5 505.5 c 128,-1,40
 347 554 347 554 412 587 c 1,41,42
 339 641 339 641 297.5 723 c 128,-1,43
 256 805 256 805 256 896 c 0,44,45
 256 975 256 975 286.5 1045 c 128,-1,46
 317 1115 317 1115 369 1167 c 128,-1,47
 421 1219 421 1219 491 1249.5 c 128,-1,48
 561 1280 561 1280 640 1280 c 0,49,50
 731 1280 731 1280 813 1238.5 c 128,-1,51
 895 1197 895 1197 949 1124 c 1,52,53
 987 1199 987 1199 1046 1258 c 128,-1,54
 1105 1317 1105 1317 1180 1355 c 1,55,56
 1107 1409 1107 1409 1065.5 1491 c 128,-1,57
 1024 1573 1024 1573 1024 1664 c 0,58,59
 1024 1743 1024 1743 1054.5 1813 c 128,-1,60
 1085 1883 1085 1883 1137 1935 c 128,-1,61
 1189 1987 1189 1987 1259 2017.5 c 128,-1,62
 1329 2048 1329 2048 1408 2048 c 256,63,64
 1487 2048 1487 2048 1557 2017.5 c 128,-1,65
 1627 1987 1627 1987 1679 1935 c 128,-1,66
 1731 1883 1731 1883 1761.5 1813 c 128,-1,67
 1792 1743 1792 1743 1792 1664 c 0,68,69
 1792 1573 1792 1573 1750.5 1491 c 128,-1,70
 1709 1409 1709 1409 1636 1355 c 1,0,1
640 640 m 0,71,72
 692 640 692 640 739 660.5 c 128,-1,73
 786 681 786 681 820.5 715.5 c 128,-1,74
 855 750 855 750 875.5 796.5 c 128,-1,75
 896 843 896 843 896 896 c 0,76,77
 896 948 896 948 875.5 995 c 128,-1,78
 855 1042 855 1042 820.5 1076.5 c 128,-1,79
 786 1111 786 1111 739 1131.5 c 128,-1,80
 692 1152 692 1152 640 1152 c 0,81,82
 587 1152 587 1152 540.5 1131.5 c 128,-1,83
 494 1111 494 1111 459.5 1076.5 c 128,-1,84
 425 1042 425 1042 404.5 995 c 128,-1,85
 384 948 384 948 384 896 c 0,86,87
 384 843 384 843 404.5 796.5 c 128,-1,88
 425 750 425 750 459.5 715.5 c 128,-1,89
 494 681 494 681 540.5 660.5 c 128,-1,90
 587 640 587 640 640 640 c 0,71,72
1152 1664 m 0,91,92
 1152 1611 1152 1611 1172.5 1564.5 c 128,-1,93
 1193 1518 1193 1518 1227.5 1483.5 c 128,-1,94
 1262 1449 1262 1449 1308.5 1428.5 c 128,-1,95
 1355 1408 1355 1408 1408 1408 c 0,96,97
 1460 1408 1460 1408 1507 1428.5 c 128,-1,98
 1554 1449 1554 1449 1588.5 1483.5 c 128,-1,99
 1623 1518 1623 1518 1643.5 1564.5 c 128,-1,100
 1664 1611 1664 1611 1664 1664 c 0,101,102
 1664 1716 1664 1716 1643.5 1763 c 128,-1,103
 1623 1810 1623 1810 1588.5 1844.5 c 128,-1,104
 1554 1879 1554 1879 1507 1899.5 c 128,-1,105
 1460 1920 1460 1920 1408 1920 c 0,106,107
 1355 1920 1355 1920 1308.5 1899.5 c 128,-1,108
 1262 1879 1262 1879 1227.5 1844.5 c 128,-1,109
 1193 1810 1193 1810 1172.5 1763 c 128,-1,110
 1152 1716 1152 1716 1152 1664 c 0,91,92
EndSplineSet
EndChar

StartChar: uniE721
Encoding: 59169 59169 92
Width: 2048
Flags: W
LayerCount: 2
Fore
SplineSet
1344 2048 m 256,0,1
 1441 2048 1441 2048 1531 2023 c 128,-1,2
 1621 1998 1621 1998 1699 1952 c 128,-1,3
 1777 1906 1777 1906 1841.5 1841.5 c 128,-1,4
 1906 1777 1906 1777 1952 1699 c 128,-1,5
 1998 1621 1998 1621 2023 1531 c 128,-1,6
 2048 1441 2048 1441 2048 1344 c 256,7,8
 2048 1247 2048 1247 2023 1157 c 128,-1,9
 1998 1067 1998 1067 1952 989 c 128,-1,10
 1906 911 1906 911 1841.5 846.5 c 128,-1,11
 1777 782 1777 782 1699 736 c 128,-1,12
 1621 690 1621 690 1531 665 c 128,-1,13
 1441 640 1441 640 1344 640 c 0,14,15
 1219 640 1219 640 1104.5 682 c 128,-1,16
 990 724 990 724 894 803 c 1,17,-1
 109 19 l 2,18,19
 90 0 90 0 64 0 c 256,20,21
 38 0 38 0 19 19 c 128,-1,22
 0 38 0 38 0 64 c 256,23,24
 0 90 0 90 19 109 c 2,25,-1
 803 894 l 1,26,27
 724 990 724 990 682 1104.5 c 128,-1,28
 640 1219 640 1219 640 1344 c 0,29,30
 640 1441 640 1441 665 1531 c 128,-1,31
 690 1621 690 1621 736 1699 c 128,-1,32
 782 1777 782 1777 846.5 1841.5 c 128,-1,33
 911 1906 911 1906 989 1952 c 128,-1,34
 1067 1998 1067 1998 1157 2023 c 128,-1,35
 1247 2048 1247 2048 1344 2048 c 256,0,1
1344 768 m 256,36,37
 1463 768 1463 768 1568 813.5 c 128,-1,38
 1673 859 1673 859 1751 937 c 128,-1,39
 1829 1015 1829 1015 1874.5 1120 c 128,-1,40
 1920 1225 1920 1225 1920 1344 c 256,41,42
 1920 1463 1920 1463 1874.5 1568 c 128,-1,43
 1829 1673 1829 1673 1751 1751 c 128,-1,44
 1673 1829 1673 1829 1568 1874.5 c 128,-1,45
 1463 1920 1463 1920 1344 1920 c 256,46,47
 1225 1920 1225 1920 1120 1874.5 c 128,-1,48
 1015 1829 1015 1829 937 1751 c 128,-1,49
 859 1673 859 1673 813.5 1568 c 128,-1,50
 768 1463 768 1463 768 1344 c 256,51,52
 768 1225 768 1225 813.5 1120 c 128,-1,53
 859 1015 859 1015 937 937 c 128,-1,54
 1015 859 1015 859 1120 813.5 c 128,-1,55
 1225 768 1225 768 1344 768 c 256,36,37
EndSplineSet
EndChar

StartChar: uniE722
Encoding: 59170 59170 93
Width: 2048
Flags: W
LayerCount: 2
Fore
SplineSet
2048 1792 m 1,0,-1
 2048 256 l 1,1,-1
 0 256 l 1,2,-1
 0 1792 l 1,3,-1
 549 1792 l 1,4,-1
 677 1920 l 1,5,-1
 1371 1920 l 1,6,-1
 1499 1792 l 1,7,-1
 2048 1792 l 1,0,-1
1920 1664 m 1,8,-1
 1445 1664 l 1,9,-1
 1317 1792 l 1,10,-1
 731 1792 l 1,11,-1
 603 1664 l 1,12,-1
 128 1664 l 1,13,-1
 128 384 l 1,14,-1
 1920 384 l 1,15,-1
 1920 1664 l 1,8,-1
1024 1536 m 256,16,17
 1130 1536 1130 1536 1223.5 1496 c 128,-1,18
 1317 1456 1317 1456 1386.5 1386.5 c 128,-1,19
 1456 1317 1456 1317 1496 1223.5 c 128,-1,20
 1536 1130 1536 1130 1536 1024 c 256,21,22
 1536 918 1536 918 1496 824.5 c 128,-1,23
 1456 731 1456 731 1386.5 661.5 c 128,-1,24
 1317 592 1317 592 1223.5 552 c 128,-1,25
 1130 512 1130 512 1024 512 c 256,26,27
 918 512 918 512 824.5 552 c 128,-1,28
 731 592 731 592 661.5 661.5 c 128,-1,29
 592 731 592 731 552 824.5 c 128,-1,30
 512 918 512 918 512 1024 c 256,31,32
 512 1130 512 1130 552 1223.5 c 128,-1,33
 592 1317 592 1317 661.5 1386.5 c 128,-1,34
 731 1456 731 1456 824.5 1496 c 128,-1,35
 918 1536 918 1536 1024 1536 c 256,16,17
1024 640 m 256,36,37
 1103 640 1103 640 1173 670.5 c 128,-1,38
 1243 701 1243 701 1295 753 c 128,-1,39
 1347 805 1347 805 1377.5 875 c 128,-1,40
 1408 945 1408 945 1408 1024 c 256,41,42
 1408 1103 1408 1103 1377.5 1173 c 128,-1,43
 1347 1243 1347 1243 1295 1295 c 128,-1,44
 1243 1347 1243 1347 1173 1377.5 c 128,-1,45
 1103 1408 1103 1408 1024 1408 c 256,46,47
 945 1408 945 1408 875 1377.5 c 128,-1,48
 805 1347 805 1347 753 1295 c 128,-1,49
 701 1243 701 1243 670.5 1173 c 128,-1,50
 640 1103 640 1103 640 1024 c 256,51,52
 640 945 640 945 670.5 875 c 128,-1,53
 701 805 701 805 753 753 c 128,-1,54
 805 701 805 701 875 670.5 c 128,-1,55
 945 640 945 640 1024 640 c 256,36,37
320 1536 m 256,56,57
 346 1536 346 1536 365 1517 c 128,-1,58
 384 1498 384 1498 384 1472 c 256,59,60
 384 1446 384 1446 365 1427 c 128,-1,61
 346 1408 346 1408 320 1408 c 256,62,63
 294 1408 294 1408 275 1427 c 128,-1,64
 256 1446 256 1446 256 1472 c 256,65,66
 256 1498 256 1498 275 1517 c 128,-1,67
 294 1536 294 1536 320 1536 c 256,56,57
EndSplineSet
EndChar

StartChar: uniE73E
Encoding: 59198 59198 94
Width: 2048
Flags: W
LayerCount: 2
Fore
SplineSet
1837 1491 m 1,0,-1
 768 421 l 1,1,-1
 211 979 l 1,2,-1
 301 1069 l 1,3,-1
 768 603 l 1,4,-1
 1747 1581 l 1,5,-1
 1837 1491 l 1,0,-1
EndSplineSet
EndChar

StartChar: uniE74D
Encoding: 59213 59213 95
Width: 2048
Flags: W
LayerCount: 2
Fore
SplineSet
1792 1664 m 1,0,-1
 1664 1664 l 1,1,-1
 1664 192 l 2,2,3
 1664 152 1664 152 1649 117 c 128,-1,4
 1634 82 1634 82 1608 56 c 128,-1,5
 1582 30 1582 30 1547 15 c 128,-1,6
 1512 0 1512 0 1472 0 c 2,7,-1
 448 0 l 2,8,9
 408 0 408 0 373 15 c 128,-1,10
 338 30 338 30 312 56 c 128,-1,11
 286 82 286 82 271 117 c 128,-1,12
 256 152 256 152 256 192 c 2,13,-1
 256 1664 l 1,14,-1
 128 1664 l 1,15,-1
 128 1792 l 1,16,-1
 640 1792 l 1,17,-1
 640 1920 l 2,18,19
 640 1947 640 1947 650 1970 c 128,-1,20
 660 1993 660 1993 677.5 2010.5 c 128,-1,21
 695 2028 695 2028 718 2038 c 128,-1,22
 741 2048 741 2048 768 2048 c 2,23,-1
 1152 2048 l 2,24,25
 1179 2048 1179 2048 1202 2038 c 128,-1,26
 1225 2028 1225 2028 1242.5 2010.5 c 128,-1,27
 1260 1993 1260 1993 1270 1970 c 128,-1,28
 1280 1947 1280 1947 1280 1920 c 2,29,-1
 1280 1792 l 1,30,-1
 1792 1792 l 1,31,-1
 1792 1664 l 1,0,-1
768 1792 m 1,32,-1
 1152 1792 l 1,33,-1
 1152 1920 l 1,34,-1
 768 1920 l 1,35,-1
 768 1792 l 1,32,-1
1536 1664 m 1,36,-1
 384 1664 l 1,37,-1
 384 192 l 2,38,39
 384 166 384 166 403 147 c 128,-1,40
 422 128 422 128 448 128 c 2,41,-1
 1472 128 l 2,42,43
 1498 128 1498 128 1517 147 c 128,-1,44
 1536 166 1536 166 1536 192 c 2,45,-1
 1536 1664 l 1,36,-1
768 384 m 1,46,-1
 640 384 l 1,47,-1
 640 1408 l 1,48,-1
 768 1408 l 1,49,-1
 768 384 l 1,46,-1
1024 384 m 1,50,-1
 896 384 l 1,51,-1
 896 1408 l 1,52,-1
 1024 1408 l 1,53,-1
 1024 384 l 1,50,-1
1280 384 m 1,54,-1
 1152 384 l 1,55,-1
 1152 1408 l 1,56,-1
 1280 1408 l 1,57,-1
 1280 384 l 1,54,-1
EndSplineSet
EndChar

StartChar: uniE74E
Encoding: 59214 59214 96
Width: 2048
Flags: W
LayerCount: 2
Fore
SplineSet
1792 1920 m 2,0,1
 1819 1920 1819 1920 1842 1910 c 128,-1,2
 1865 1900 1865 1900 1882.5 1882.5 c 128,-1,3
 1900 1865 1900 1865 1910 1842 c 128,-1,4
 1920 1819 1920 1819 1920 1792 c 2,5,-1
 1920 128 l 1,6,-1
 357 128 l 1,7,-1
 128 358 l 1,8,-1
 128 1792 l 2,9,10
 128 1819 128 1819 138 1842 c 128,-1,11
 148 1865 148 1865 165.5 1882.5 c 128,-1,12
 183 1900 183 1900 206 1910 c 128,-1,13
 229 1920 229 1920 256 1920 c 2,14,-1
 1792 1920 l 2,0,1
512 1152 m 1,15,-1
 1536 1152 l 1,16,-1
 1536 1792 l 1,17,-1
 512 1792 l 1,18,-1
 512 1152 l 1,15,-1
1280 640 m 1,19,-1
 640 640 l 1,20,-1
 640 256 l 1,21,-1
 768 256 l 1,22,-1
 768 512 l 1,23,-1
 896 512 l 1,24,-1
 896 256 l 1,25,-1
 1280 256 l 1,26,-1
 1280 640 l 1,19,-1
1792 1792 m 1,27,-1
 1664 1792 l 1,28,-1
 1664 1024 l 1,29,-1
 384 1024 l 1,30,-1
 384 1792 l 1,31,-1
 256 1792 l 1,32,-1
 256 411 l 1,33,-1
 410 256 l 1,34,-1
 512 256 l 1,35,-1
 512 768 l 1,36,-1
 1408 768 l 1,37,-1
 1408 256 l 1,38,-1
 1792 256 l 1,39,-1
 1792 1792 l 1,27,-1
EndSplineSet
EndChar

StartChar: uniE7B8
Encoding: 59320 59320 97
Width: 2048
Flags: W
LayerCount: 2
Fore
SplineSet
2048 1280 m 1,0,-1
 1920 1280 l 1,1,-1
 1920 128 l 1,2,-1
 128 128 l 1,3,-1
 128 1280 l 1,4,-1
 0 1280 l 1,5,-1
 0 1920 l 1,6,-1
 2048 1920 l 1,7,-1
 2048 1280 l 1,0,-1
1792 1280 m 1,8,-1
 256 1280 l 1,9,-1
 256 256 l 1,10,-1
 1792 256 l 1,11,-1
 1792 1280 l 1,8,-1
1920 1792 m 1,12,-1
 128 1792 l 1,13,-1
 128 1408 l 1,14,-1
 1920 1408 l 1,15,-1
 1920 1792 l 1,12,-1
1024 640 m 1,16,-1
 384 640 l 1,17,-1
 384 768 l 1,18,-1
 1024 768 l 1,19,-1
 1024 640 l 1,16,-1
384 384 m 1,20,-1
 384 512 l 1,21,-1
 896 512 l 1,22,-1
 896 384 l 1,23,-1
 384 384 l 1,20,-1
EndSplineSet
EndChar

StartChar: uniE783
Encoding: 59267 59267 98
Width: 2048
Flags: W
LayerCount: 2
Fore
SplineSet
960 2048 m 256,0,1
 1093 2048 1093 2048 1215.5 2014 c 128,-1,2
 1338 1980 1338 1980 1445 1917.5 c 128,-1,3
 1552 1855 1552 1855 1639.5 1767.5 c 128,-1,4
 1727 1680 1727 1680 1789.5 1573 c 128,-1,5
 1852 1466 1852 1466 1886 1343.5 c 128,-1,6
 1920 1221 1920 1221 1920 1088 c 256,7,8
 1920 955 1920 955 1886 832.5 c 128,-1,9
 1852 710 1852 710 1789.5 603 c 128,-1,10
 1727 496 1727 496 1639.5 408.5 c 128,-1,11
 1552 321 1552 321 1445 258.5 c 128,-1,12
 1338 196 1338 196 1215.5 162 c 128,-1,13
 1093 128 1093 128 960 128 c 256,14,15
 827 128 827 128 704.5 162 c 128,-1,16
 582 196 582 196 475 258.5 c 128,-1,17
 368 321 368 321 280.5 408.5 c 128,-1,18
 193 496 193 496 130.5 603 c 128,-1,19
 68 710 68 710 34 832.5 c 128,-1,20
 0 955 0 955 0 1088 c 256,21,22
 0 1221 0 1221 34 1343.5 c 128,-1,23
 68 1466 68 1466 130.5 1573 c 128,-1,24
 193 1680 193 1680 280.5 1767.5 c 128,-1,25
 368 1855 368 1855 475 1917.5 c 128,-1,26
 582 1980 582 1980 704.5 2014 c 128,-1,27
 827 2048 827 2048 960 2048 c 256,0,1
960 256 m 0,28,29
 1074 256 1074 256 1180.5 286 c 128,-1,30
 1287 316 1287 316 1379.5 370 c 128,-1,31
 1472 424 1472 424 1548 500 c 128,-1,32
 1624 576 1624 576 1678 668.5 c 128,-1,33
 1732 761 1732 761 1762 867 c 128,-1,34
 1792 973 1792 973 1792 1088 c 0,35,36
 1792 1202 1792 1202 1762 1308.5 c 128,-1,37
 1732 1415 1732 1415 1678 1507.5 c 128,-1,38
 1624 1600 1624 1600 1548 1676 c 128,-1,39
 1472 1752 1472 1752 1379.5 1806 c 128,-1,40
 1287 1860 1287 1860 1180.5 1890 c 128,-1,41
 1074 1920 1074 1920 960 1920 c 0,42,43
 845 1920 845 1920 739 1890 c 128,-1,44
 633 1860 633 1860 540.5 1806 c 128,-1,45
 448 1752 448 1752 372 1676 c 128,-1,46
 296 1600 296 1600 242 1507.5 c 128,-1,47
 188 1415 188 1415 158 1308.5 c 128,-1,48
 128 1202 128 1202 128 1088 c 256,49,50
 128 974 128 974 158 867.5 c 128,-1,51
 188 761 188 761 242 668.5 c 128,-1,52
 296 576 296 576 372 500 c 128,-1,53
 448 424 448 424 540.5 370 c 128,-1,54
 633 316 633 316 739 286 c 128,-1,55
 845 256 845 256 960 256 c 0,28,29
896 1536 m 1,56,-1
 1024 1536 l 1,57,-1
 1024 896 l 1,58,-1
 896 896 l 1,59,-1
 896 1536 l 1,56,-1
896 768 m 1,60,-1
 1024 768 l 1,61,-1
 1024 640 l 1,62,-1
 896 640 l 1,63,-1
 896 768 l 1,60,-1
EndSplineSet
EndChar

StartChar: uniE784
Encoding: 59268 59268 99
Width: 2048
Flags: W
LayerCount: 2
Fore
SplineSet
768 0 m 1,0,-1
 768 2048 l 1,1,-1
 896 2048 l 1,2,-1
 896 0 l 1,3,-1
 768 0 l 1,0,-1
1152 2048 m 1,4,-1
 1280 2048 l 1,5,-1
 1280 0 l 1,6,-1
 1152 0 l 1,7,-1
 1152 2048 l 1,4,-1
EndSplineSet
EndChar

StartChar: uniE785
Encoding: 59269 59269 100
Width: 2048
Flags: W
LayerCount: 2
Fore
SplineSet
1792 1152 m 1,0,-1
 1792 0 l 1,1,-1
 256 0 l 1,2,-1
 256 1152 l 1,3,-1
 1408 1152 l 1,4,-1
 1408 1536 l 2,5,6
 1408 1618 1408 1618 1378.5 1688 c 128,-1,7
 1349 1758 1349 1758 1297.5 1809.5 c 128,-1,8
 1246 1861 1246 1861 1176 1890.5 c 128,-1,9
 1106 1920 1106 1920 1024 1920 c 256,10,11
 942 1920 942 1920 872 1890.5 c 128,-1,12
 802 1861 802 1861 750.5 1809.5 c 128,-1,13
 699 1758 699 1758 669.5 1688 c 128,-1,14
 640 1618 640 1618 640 1536 c 1,15,-1
 512 1536 l 1,16,17
 512 1645 512 1645 551 1738.5 c 128,-1,18
 590 1832 590 1832 659 1901 c 128,-1,19
 728 1970 728 1970 821.5 2009 c 128,-1,20
 915 2048 915 2048 1024 2048 c 256,21,22
 1133 2048 1133 2048 1226.5 2009 c 128,-1,23
 1320 1970 1320 1970 1389 1901 c 128,-1,24
 1458 1832 1458 1832 1497 1738.5 c 128,-1,25
 1536 1645 1536 1645 1536 1536 c 2,26,-1
 1536 1152 l 1,27,-1
 1792 1152 l 1,0,-1
1664 1024 m 1,28,-1
 384 1024 l 1,29,-1
 384 128 l 1,30,-1
 1664 128 l 1,31,-1
 1664 1024 l 1,28,-1
EndSplineSet
EndChar

StartChar: uniE787
Encoding: 59271 59271 101
Width: 2048
Flags: W
LayerCount: 2
Fore
SplineSet
768 1280 m 1,0,-1
 896 1280 l 1,1,-1
 896 1152 l 1,2,-1
 768 1152 l 1,3,-1
 768 1280 l 1,0,-1
1152 512 m 1,4,-1
 1280 512 l 1,5,-1
 1280 384 l 1,6,-1
 1152 384 l 1,7,-1
 1152 512 l 1,4,-1
1536 1280 m 1,8,-1
 1664 1280 l 1,9,-1
 1664 1152 l 1,10,-1
 1536 1152 l 1,11,-1
 1536 1280 l 1,8,-1
1152 1280 m 1,12,-1
 1280 1280 l 1,13,-1
 1280 1152 l 1,14,-1
 1152 1152 l 1,15,-1
 1152 1280 l 1,12,-1
768 1024 m 1,16,-1
 896 1024 l 1,17,-1
 896 896 l 1,18,-1
 768 896 l 1,19,-1
 768 1024 l 1,16,-1
384 1024 m 1,20,-1
 512 1024 l 1,21,-1
 512 896 l 1,22,-1
 384 896 l 1,23,-1
 384 1024 l 1,20,-1
1536 1024 m 1,24,-1
 1664 1024 l 1,25,-1
 1664 896 l 1,26,-1
 1536 896 l 1,27,-1
 1536 1024 l 1,24,-1
1152 1024 m 1,28,-1
 1280 1024 l 1,29,-1
 1280 896 l 1,30,-1
 1152 896 l 1,31,-1
 1152 1024 l 1,28,-1
768 768 m 1,32,-1
 896 768 l 1,33,-1
 896 640 l 1,34,-1
 768 640 l 1,35,-1
 768 768 l 1,32,-1
384 768 m 1,36,-1
 512 768 l 1,37,-1
 512 640 l 1,38,-1
 384 640 l 1,39,-1
 384 768 l 1,36,-1
1536 768 m 1,40,-1
 1664 768 l 1,41,-1
 1664 640 l 1,42,-1
 1536 640 l 1,43,-1
 1536 768 l 1,40,-1
1152 768 m 1,44,-1
 1280 768 l 1,45,-1
 1280 640 l 1,46,-1
 1152 640 l 1,47,-1
 1152 768 l 1,44,-1
768 512 m 1,48,-1
 896 512 l 1,49,-1
 896 384 l 1,50,-1
 768 384 l 1,51,-1
 768 512 l 1,48,-1
384 512 m 1,52,-1
 512 512 l 1,53,-1
 512 384 l 1,54,-1
 384 384 l 1,55,-1
 384 512 l 1,52,-1
2048 1920 m 1,56,-1
 2048 128 l 1,57,-1
 0 128 l 1,58,-1
 0 1920 l 1,59,-1
 384 1920 l 1,60,-1
 384 2048 l 1,61,-1
 512 2048 l 1,62,-1
 512 1920 l 1,63,-1
 1536 1920 l 1,64,-1
 1536 2048 l 1,65,-1
 1664 2048 l 1,66,-1
 1664 1920 l 1,67,-1
 2048 1920 l 1,56,-1
128 1792 m 1,68,-1
 128 1536 l 1,69,-1
 1920 1536 l 1,70,-1
 1920 1792 l 1,71,-1
 1664 1792 l 1,72,-1
 1664 1664 l 1,73,-1
 1536 1664 l 1,74,-1
 1536 1792 l 1,75,-1
 512 1792 l 1,76,-1
 512 1664 l 1,77,-1
 384 1664 l 1,78,-1
 384 1792 l 1,79,-1
 128 1792 l 1,68,-1
1920 256 m 1,80,-1
 1920 1408 l 1,81,-1
 128 1408 l 1,82,-1
 128 256 l 1,83,-1
 1920 256 l 1,80,-1
EndSplineSet
EndChar

StartChar: uniE789
Encoding: 59273 59273 102
Width: 2048
Flags: W
LayerCount: 2
Fore
SplineSet
0 1280 m 1,0,1
 14 1280 14 1280 38.5 1279 c 128,-1,2
 63 1278 63 1278 86 1278 c 0,3,4
 97 1278 97 1278 106.5 1278.5 c 128,-1,5
 116 1279 116 1279 122 1280 c 2,6,-1
 1920 1600 l 2,7,8
 1926 1601 1926 1601 1936 1601.5 c 128,-1,9
 1946 1602 1946 1602 1958 1602 c 0,10,11
 1982 1602 1982 1602 2008 1601 c 128,-1,12
 2034 1600 2034 1600 2048 1600 c 1,13,-1
 2048 448 l 1,14,15
 2034 448 2034 448 2009 447.5 c 128,-1,16
 1984 447 1984 447 1960 447 c 0,17,18
 1943 447 1943 447 1930 447 c 128,-1,19
 1917 447 1917 447 1909 449 c 2,20,-1
 1146 585 l 1,21,22
 1136 528 1136 528 1107.5 479 c 128,-1,23
 1079 430 1079 430 1037 395 c 128,-1,24
 995 360 995 360 942.5 340 c 128,-1,25
 890 320 890 320 832 320 c 0,26,27
 766 320 766 320 707.5 345 c 128,-1,28
 649 370 649 370 605.5 413.5 c 128,-1,29
 562 457 562 457 537 515.5 c 128,-1,30
 512 574 512 574 512 640 c 0,31,32
 512 668 512 668 518 697 c 1,33,-1
 122 768 l 2,34,35
 114 769 114 769 104.5 769.5 c 128,-1,36
 95 770 95 770 84 770 c 0,37,38
 62 770 62 770 39.5 769 c 128,-1,39
 17 768 17 768 0 768 c 1,40,-1
 0 1280 l 1,0,1
832 448 m 0,41,42
 867 448 867 448 899 460 c 128,-1,43
 931 472 931 472 956 493.5 c 128,-1,44
 981 515 981 515 998 544 c 128,-1,45
 1015 573 1015 573 1021 608 c 1,46,-1
 643 675 l 1,47,48
 640 657 640 657 640 640 c 0,49,50
 640 600 640 600 655 565 c 128,-1,51
 670 530 670 530 696 504 c 128,-1,52
 722 478 722 478 757 463 c 128,-1,53
 792 448 792 448 832 448 c 0,41,42
1920 1471 m 1,54,-1
 128 1152 l 1,55,-1
 128 896 l 1,56,57
 135 896 135 896 139 895 c 2,58,-1
 1920 577 l 1,59,-1
 1920 1471 l 1,54,-1
EndSplineSet
EndChar

StartChar: uniE78D
Encoding: 59277 59277 103
Width: 2048
Flags: W
LayerCount: 2
Fore
SplineSet
0 64 m 256,0,1
 0 90 0 90 19 109 c 2,2,-1
 1235 1325 l 2,3,4
 1254 1344 1254 1344 1280 1344 c 256,5,6
 1306 1344 1306 1344 1325 1325 c 128,-1,7
 1344 1306 1344 1306 1344 1280 c 256,8,9
 1344 1254 1344 1254 1325 1235 c 2,10,-1
 109 19 l 2,11,12
 90 0 90 0 64 0 c 256,13,14
 38 0 38 0 19 19 c 128,-1,15
 0 38 0 38 0 64 c 256,0,1
1408 2048 m 1,16,-1
 1536 2048 l 1,17,-1
 1536 1792 l 1,18,-1
 1408 1792 l 1,19,-1
 1408 2048 l 1,16,-1
1201 1653 m 1,20,-1
 1019 1834 l 1,21,-1
 1110 1925 l 1,22,-1
 1291 1743 l 1,23,-1
 1201 1653 l 1,20,-1
1152 1408 m 1,24,-1
 896 1408 l 1,25,-1
 896 1536 l 1,26,-1
 1152 1536 l 1,27,-1
 1152 1408 l 1,24,-1
1408 1152 m 1,28,-1
 1536 1152 l 1,29,-1
 1536 896 l 1,30,-1
 1408 896 l 1,31,-1
 1408 1152 l 1,28,-1
1743 1291 m 1,32,-1
 1925 1110 l 1,33,-1
 1834 1019 l 1,34,-1
 1653 1201 l 1,35,-1
 1743 1291 l 1,32,-1
2048 1536 m 1,36,-1
 2048 1408 l 1,37,-1
 1792 1408 l 1,38,-1
 1792 1536 l 1,39,-1
 2048 1536 l 1,36,-1
1743 1653 m 1,40,-1
 1653 1743 l 1,41,-1
 1834 1925 l 1,42,-1
 1925 1834 l 1,43,-1
 1743 1653 l 1,40,-1
1472 1536 m 256,44,45
 1498 1536 1498 1536 1517 1517 c 128,-1,46
 1536 1498 1536 1498 1536 1472 c 256,47,48
 1536 1446 1536 1446 1517 1427 c 128,-1,49
 1498 1408 1498 1408 1472 1408 c 256,50,51
 1446 1408 1446 1408 1427 1427 c 128,-1,52
 1408 1446 1408 1446 1408 1472 c 256,53,54
 1408 1498 1408 1498 1427 1517 c 128,-1,55
 1446 1536 1446 1536 1472 1536 c 256,44,45
EndSplineSet
EndChar

StartChar: uniE78E
Encoding: 59278 59278 104
Width: 2048
Flags: W
LayerCount: 2
Fore
SplineSet
1939 813 m 1,0,-1
 2029 723 l 1,1,-1
 1344 37 l 1,2,-1
 979 403 l 1,3,-1
 1069 493 l 1,4,-1
 1344 219 l 1,5,-1
 1939 813 l 1,0,-1
0 64 m 256,6,7
 0 90 0 90 19 109 c 2,8,-1
 1235 1325 l 2,9,10
 1254 1344 1254 1344 1280 1344 c 256,11,12
 1306 1344 1306 1344 1325 1325 c 128,-1,13
 1344 1306 1344 1306 1344 1280 c 256,14,15
 1344 1254 1344 1254 1325 1235 c 2,16,-1
 109 19 l 2,17,18
 90 0 90 0 64 0 c 256,19,20
 38 0 38 0 19 19 c 128,-1,21
 0 38 0 38 0 64 c 256,6,7
1408 2048 m 1,22,-1
 1536 2048 l 1,23,-1
 1536 1792 l 1,24,-1
 1408 1792 l 1,25,-1
 1408 2048 l 1,22,-1
1201 1653 m 1,26,-1
 1019 1834 l 1,27,-1
 1110 1925 l 1,28,-1
 1291 1743 l 1,29,-1
 1201 1653 l 1,26,-1
1152 1408 m 1,30,-1
 896 1408 l 1,31,-1
 896 1536 l 1,32,-1
 1152 1536 l 1,33,-1
 1152 1408 l 1,30,-1
1408 1152 m 1,34,-1
 1536 1152 l 1,35,-1
 1536 896 l 1,36,-1
 1408 896 l 1,37,-1
 1408 1152 l 1,34,-1
1743 1291 m 1,38,-1
 1925 1110 l 1,39,-1
 1834 1019 l 1,40,-1
 1653 1201 l 1,41,-1
 1743 1291 l 1,38,-1
2048 1536 m 1,42,-1
 2048 1408 l 1,43,-1
 1792 1408 l 1,44,-1
 1792 1536 l 1,45,-1
 2048 1536 l 1,42,-1
1743 1653 m 1,46,-1
 1653 1743 l 1,47,-1
 1834 1925 l 1,48,-1
 1925 1834 l 1,49,-1
 1743 1653 l 1,46,-1
1472 1536 m 256,50,51
 1498 1536 1498 1536 1517 1517 c 128,-1,52
 1536 1498 1536 1498 1536 1472 c 256,53,54
 1536 1446 1536 1446 1517 1427 c 128,-1,55
 1498 1408 1498 1408 1472 1408 c 256,56,57
 1446 1408 1446 1408 1427 1427 c 128,-1,58
 1408 1446 1408 1446 1408 1472 c 256,59,60
 1408 1498 1408 1498 1427 1517 c 128,-1,61
 1446 1536 1446 1536 1472 1536 c 256,50,51
EndSplineSet
EndChar

StartChar: uniE790
Encoding: 59280 59280 105
Width: 2048
Flags: W
LayerCount: 2
Fore
SplineSet
1024 2048 m 0,0,1
 1165 2048 1165 2048 1296 2011.5 c 128,-1,2
 1427 1975 1427 1975 1541 1908.5 c 128,-1,3
 1655 1842 1655 1842 1748.5 1748.5 c 128,-1,4
 1842 1655 1842 1655 1908.5 1541 c 128,-1,5
 1975 1427 1975 1427 2011.5 1296 c 128,-1,6
 2048 1165 2048 1165 2048 1024 c 256,7,8
 2048 883 2048 883 2011.5 752 c 128,-1,9
 1975 621 1975 621 1908.5 507 c 128,-1,10
 1842 393 1842 393 1748.5 299.5 c 128,-1,11
 1655 206 1655 206 1541 139.5 c 128,-1,12
 1427 73 1427 73 1296 36.5 c 128,-1,13
 1165 0 1165 0 1024 0 c 0,14,15
 971 0 971 0 924.5 20.5 c 128,-1,16
 878 41 878 41 843.5 75.5 c 128,-1,17
 809 110 809 110 788.5 156.5 c 128,-1,18
 768 203 768 203 768 256 c 0,19,20
 768 305 768 305 777.5 341.5 c 128,-1,21
 787 378 787 378 801 408 c 128,-1,22
 815 438 815 438 832 464 c 128,-1,23
 849 490 849 490 863 516.5 c 128,-1,24
 877 543 877 543 886.5 572.5 c 128,-1,25
 896 602 896 602 896 640 c 0,26,27
 896 692 896 692 875.5 739 c 128,-1,28
 855 786 855 786 820.5 820.5 c 128,-1,29
 786 855 786 855 739 875.5 c 128,-1,30
 692 896 692 896 640 896 c 0,31,32
 602 896 602 896 572.5 886.5 c 128,-1,33
 543 877 543 877 516.5 863 c 128,-1,34
 490 849 490 849 464 832 c 128,-1,35
 438 815 438 815 408 801 c 128,-1,36
 378 787 378 787 341 777.5 c 128,-1,37
 304 768 304 768 256 768 c 0,38,39
 203 768 203 768 156.5 788.5 c 128,-1,40
 110 809 110 809 75.5 843.5 c 128,-1,41
 41 878 41 878 20.5 924.5 c 128,-1,42
 0 971 0 971 0 1024 c 0,43,44
 0 1165 0 1165 36.5 1296 c 128,-1,45
 73 1427 73 1427 139.5 1541 c 128,-1,46
 206 1655 206 1655 299.5 1748.5 c 128,-1,47
 393 1842 393 1842 507 1908.5 c 128,-1,48
 621 1975 621 1975 751.5 2011.5 c 128,-1,49
 882 2048 882 2048 1024 2048 c 0,0,1
1024 128 m 0,50,51
 1147 128 1147 128 1261.5 160 c 128,-1,52
 1376 192 1376 192 1475.5 250.5 c 128,-1,53
 1575 309 1575 309 1657 391 c 128,-1,54
 1739 473 1739 473 1797.5 572.5 c 128,-1,55
 1856 672 1856 672 1888 786.5 c 128,-1,56
 1920 901 1920 901 1920 1024 c 256,57,58
 1920 1147 1920 1147 1888 1261.5 c 128,-1,59
 1856 1376 1856 1376 1797.5 1475.5 c 128,-1,60
 1739 1575 1739 1575 1657 1657 c 128,-1,61
 1575 1739 1575 1739 1475.5 1797.5 c 128,-1,62
 1376 1856 1376 1856 1261.5 1888 c 128,-1,63
 1147 1920 1147 1920 1024 1920 c 256,64,65
 901 1920 901 1920 786.5 1888 c 128,-1,66
 672 1856 672 1856 572.5 1797.5 c 128,-1,67
 473 1739 473 1739 391 1657 c 128,-1,68
 309 1575 309 1575 250.5 1475.5 c 128,-1,69
 192 1376 192 1376 160 1261.5 c 128,-1,70
 128 1147 128 1147 128 1024 c 0,71,72
 128 997 128 997 138 974 c 128,-1,73
 148 951 148 951 165.5 933.5 c 128,-1,74
 183 916 183 916 206 906 c 128,-1,75
 229 896 229 896 256 896 c 0,76,77
 294 896 294 896 323.5 905.5 c 128,-1,78
 353 915 353 915 379.5 929 c 128,-1,79
 406 943 406 943 431.5 960 c 128,-1,80
 457 977 457 977 486.5 991 c 128,-1,81
 516 1005 516 1005 553 1014.5 c 128,-1,82
 590 1024 590 1024 640 1024 c 0,83,84
 720 1024 720 1024 790 994 c 128,-1,85
 860 964 860 964 912 912 c 128,-1,86
 964 860 964 860 994 790 c 128,-1,87
 1024 720 1024 720 1024 640 c 0,88,89
 1024 591 1024 591 1014.5 553.5 c 128,-1,90
 1005 516 1005 516 991 486.5 c 128,-1,91
 977 457 977 457 960 431.5 c 128,-1,92
 943 406 943 406 929 379.5 c 128,-1,93
 915 353 915 353 905.5 323.5 c 128,-1,94
 896 294 896 294 896 256 c 0,95,96
 896 229 896 229 906 206 c 128,-1,97
 916 183 916 183 933.5 165.5 c 128,-1,98
 951 148 951 148 974 138 c 128,-1,99
 997 128 997 128 1024 128 c 0,50,51
512 1408 m 256,100,101
 539 1408 539 1408 562 1398 c 128,-1,102
 585 1388 585 1388 602.5 1370.5 c 128,-1,103
 620 1353 620 1353 630 1330 c 128,-1,104
 640 1307 640 1307 640 1280 c 256,105,106
 640 1253 640 1253 630 1230 c 128,-1,107
 620 1207 620 1207 602.5 1189.5 c 128,-1,108
 585 1172 585 1172 562 1162 c 128,-1,109
 539 1152 539 1152 512 1152 c 256,110,111
 485 1152 485 1152 462 1162 c 128,-1,112
 439 1172 439 1172 421.5 1189.5 c 128,-1,113
 404 1207 404 1207 394 1230 c 128,-1,114
 384 1253 384 1253 384 1280 c 256,115,116
 384 1307 384 1307 394 1330 c 128,-1,117
 404 1353 404 1353 421.5 1370.5 c 128,-1,118
 439 1388 439 1388 462 1398 c 128,-1,119
 485 1408 485 1408 512 1408 c 256,100,101
896 1664 m 256,120,121
 923 1664 923 1664 946 1654 c 128,-1,122
 969 1644 969 1644 986.5 1626.5 c 128,-1,123
 1004 1609 1004 1609 1014 1586 c 128,-1,124
 1024 1563 1024 1563 1024 1536 c 256,125,126
 1024 1509 1024 1509 1014 1486 c 128,-1,127
 1004 1463 1004 1463 986.5 1445.5 c 128,-1,128
 969 1428 969 1428 946 1418 c 128,-1,129
 923 1408 923 1408 896 1408 c 256,130,131
 869 1408 869 1408 846 1418 c 128,-1,132
 823 1428 823 1428 805.5 1445.5 c 128,-1,133
 788 1463 788 1463 778 1486 c 128,-1,134
 768 1509 768 1509 768 1536 c 256,135,136
 768 1563 768 1563 778 1586 c 128,-1,137
 788 1609 788 1609 805.5 1626.5 c 128,-1,138
 823 1644 823 1644 846 1654 c 128,-1,139
 869 1664 869 1664 896 1664 c 256,120,121
1408 1280 m 256,140,141
 1381 1280 1381 1280 1358 1290 c 128,-1,142
 1335 1300 1335 1300 1317.5 1317.5 c 128,-1,143
 1300 1335 1300 1335 1290 1358 c 128,-1,144
 1280 1381 1280 1381 1280 1408 c 256,145,146
 1280 1435 1280 1435 1290 1458 c 128,-1,147
 1300 1481 1300 1481 1317.5 1498.5 c 128,-1,148
 1335 1516 1335 1516 1358 1526 c 128,-1,149
 1381 1536 1381 1536 1408 1536 c 256,150,151
 1435 1536 1435 1536 1458 1526 c 128,-1,152
 1481 1516 1481 1516 1498.5 1498.5 c 128,-1,153
 1516 1481 1516 1481 1526 1458 c 128,-1,154
 1536 1435 1536 1435 1536 1408 c 256,155,156
 1536 1381 1536 1381 1526 1358 c 128,-1,157
 1516 1335 1516 1335 1498.5 1317.5 c 128,-1,158
 1481 1300 1481 1300 1458 1290 c 128,-1,159
 1435 1280 1435 1280 1408 1280 c 256,140,141
1536 1024 m 256,160,161
 1563 1024 1563 1024 1586 1014 c 128,-1,162
 1609 1004 1609 1004 1626.5 986.5 c 128,-1,163
 1644 969 1644 969 1654 946 c 128,-1,164
 1664 923 1664 923 1664 896 c 256,165,166
 1664 869 1664 869 1654 846 c 128,-1,167
 1644 823 1644 823 1626.5 805.5 c 128,-1,168
 1609 788 1609 788 1586 778 c 128,-1,169
 1563 768 1563 768 1536 768 c 256,170,171
 1509 768 1509 768 1486 778 c 128,-1,172
 1463 788 1463 788 1445.5 805.5 c 128,-1,173
 1428 823 1428 823 1418 846 c 128,-1,174
 1408 869 1408 869 1408 896 c 256,175,176
 1408 923 1408 923 1418 946 c 128,-1,177
 1428 969 1428 969 1445.5 986.5 c 128,-1,178
 1463 1004 1463 1004 1486 1014 c 128,-1,179
 1509 1024 1509 1024 1536 1024 c 256,160,161
1280 640 m 256,180,181
 1307 640 1307 640 1330 630 c 128,-1,182
 1353 620 1353 620 1370.5 602.5 c 128,-1,183
 1388 585 1388 585 1398 562 c 128,-1,184
 1408 539 1408 539 1408 512 c 256,185,186
 1408 485 1408 485 1398 462 c 128,-1,187
 1388 439 1388 439 1370.5 421.5 c 128,-1,188
 1353 404 1353 404 1330 394 c 128,-1,189
 1307 384 1307 384 1280 384 c 256,190,191
 1253 384 1253 384 1230 394 c 128,-1,192
 1207 404 1207 404 1189.5 421.5 c 128,-1,193
 1172 439 1172 439 1162 462 c 128,-1,194
 1152 485 1152 485 1152 512 c 256,195,196
 1152 539 1152 539 1162 562 c 128,-1,197
 1172 585 1172 585 1189.5 602.5 c 128,-1,198
 1207 620 1207 620 1230 630 c 128,-1,199
 1253 640 1253 640 1280 640 c 256,180,181
EndSplineSet
EndChar

StartChar: uniE792
Encoding: 59282 59282 106
Width: 2048
Flags: W
LayerCount: 2
Fore
SplineSet
1848 1152 m 0,0,1
 1890 1152 1890 1152 1926.5 1137 c 128,-1,2
 1963 1122 1963 1122 1990 1095.5 c 128,-1,3
 2017 1069 2017 1069 2032.5 1032.5 c 128,-1,4
 2048 996 2048 996 2048 954 c 0,5,6
 2048 915 2048 915 2033 878 c 128,-1,7
 2018 841 2018 841 1990 813 c 2,8,-1
 1273 96 l 1,9,-1
 896 2 l 1,10,-1
 990 379 l 1,11,-1
 1707 1095 l 2,12,13
 1736 1124 1736 1124 1772 1138 c 128,-1,14
 1808 1152 1808 1152 1848 1152 c 0,0,1
1899 903 m 2,15,16
 1920 924 1920 924 1920 954 c 0,17,18
 1920 985 1920 985 1899.5 1004.5 c 128,-1,19
 1879 1024 1879 1024 1848 1024 c 0,20,21
 1834 1024 1834 1024 1821 1019.5 c 128,-1,22
 1808 1015 1808 1015 1798 1005 c 2,23,-1
 1106 313 l 1,24,-1
 1072 178 l 1,25,-1
 1207 212 l 1,26,-1
 1899 903 l 2,15,16
768 512 m 1,27,-1
 896 512 l 1,28,-1
 768 384 l 1,29,-1
 293 384 l 1,30,-1
 128 549 l 1,31,-1
 128 1792 l 2,32,33
 128 1819 128 1819 138 1842 c 128,-1,34
 148 1865 148 1865 165.5 1882.5 c 128,-1,35
 183 1900 183 1900 206 1910 c 128,-1,36
 229 1920 229 1920 256 1920 c 2,37,-1
 1536 1920 l 2,38,39
 1563 1920 1563 1920 1586 1910 c 128,-1,40
 1609 1900 1609 1900 1626.5 1882.5 c 128,-1,41
 1644 1865 1644 1865 1654 1842 c 128,-1,42
 1664 1819 1664 1819 1664 1792 c 2,43,-1
 1664 1280 l 1,44,-1
 1536 1152 l 1,45,-1
 1536 1792 l 1,46,-1
 1408 1792 l 1,47,-1
 1408 1152 l 1,48,-1
 384 1152 l 1,49,-1
 384 1792 l 1,50,-1
 256 1792 l 1,51,-1
 256 603 l 1,52,-1
 347 512 l 1,53,-1
 384 512 l 1,54,-1
 384 1024 l 1,55,-1
 1280 1024 l 1,56,-1
 1280 896 l 1,57,-1
 1152 768 l 1,58,-1
 1152 896 l 1,59,-1
 512 896 l 1,60,-1
 512 512 l 1,61,-1
 640 512 l 1,62,-1
 640 768 l 1,63,-1
 768 768 l 1,64,-1
 768 512 l 1,27,-1
512 1280 m 1,65,-1
 1280 1280 l 1,66,-1
 1280 1792 l 1,67,-1
 512 1792 l 1,68,-1
 512 1280 l 1,65,-1
EndSplineSet
EndChar

StartChar: uniE793
Encoding: 59283 59283 107
Width: 2048
Flags: W
LayerCount: 2
Fore
SplineSet
960 1536 m 256,0,1
 1053 1536 1053 1536 1134.5 1500.5 c 128,-1,2
 1216 1465 1216 1465 1276.5 1404.5 c 128,-1,3
 1337 1344 1337 1344 1372.5 1262.5 c 128,-1,4
 1408 1181 1408 1181 1408 1088 c 256,5,6
 1408 995 1408 995 1372.5 913.5 c 128,-1,7
 1337 832 1337 832 1276.5 771.5 c 128,-1,8
 1216 711 1216 711 1134.5 675.5 c 128,-1,9
 1053 640 1053 640 960 640 c 256,10,11
 867 640 867 640 785.5 675.5 c 128,-1,12
 704 711 704 711 643.5 771.5 c 128,-1,13
 583 832 583 832 547.5 913.5 c 128,-1,14
 512 995 512 995 512 1088 c 256,15,16
 512 1181 512 1181 547.5 1262.5 c 128,-1,17
 583 1344 583 1344 643.5 1404.5 c 128,-1,18
 704 1465 704 1465 785.5 1500.5 c 128,-1,19
 867 1536 867 1536 960 1536 c 256,0,1
960 768 m 0,20,21
 1026 768 1026 768 1084 793.5 c 128,-1,22
 1142 819 1142 819 1185.5 862.5 c 128,-1,23
 1229 906 1229 906 1254.5 964 c 128,-1,24
 1280 1022 1280 1022 1280 1088 c 256,25,26
 1280 1154 1280 1154 1254.5 1212 c 128,-1,27
 1229 1270 1229 1270 1185.5 1313.5 c 128,-1,28
 1142 1357 1142 1357 1084 1382.5 c 128,-1,29
 1026 1408 1026 1408 960 1408 c 0,30,31
 925 1408 925 1408 896 1401 c 1,32,-1
 896 775 l 1,33,34
 925 768 925 768 960 768 c 0,20,21
1024 1664 m 1,35,-1
 896 1664 l 1,36,-1
 896 2048 l 1,37,-1
 1024 2048 l 1,38,-1
 1024 1664 l 1,35,-1
896 512 m 1,39,-1
 1024 512 l 1,40,-1
 1024 128 l 1,41,-1
 896 128 l 1,42,-1
 896 512 l 1,39,-1
1920 1152 m 1,43,-1
 1920 1024 l 1,44,-1
 1536 1024 l 1,45,-1
 1536 1152 l 1,46,-1
 1920 1152 l 1,43,-1
384 1024 m 1,47,-1
 0 1024 l 1,48,-1
 0 1152 l 1,49,-1
 384 1152 l 1,50,-1
 384 1024 l 1,47,-1
507 1450 m 1,51,-1
 236 1722 l 1,52,-1
 326 1812 l 1,53,-1
 598 1541 l 1,54,-1
 507 1450 l 1,51,-1
1413 726 m 1,55,-1
 1684 454 l 1,56,-1
 1594 364 l 1,57,-1
 1322 635 l 1,58,-1
 1413 726 l 1,55,-1
1413 1450 m 1,59,-1
 1322 1541 l 1,60,-1
 1594 1812 l 1,61,-1
 1684 1722 l 1,62,-1
 1413 1450 l 1,59,-1
507 726 m 1,63,-1
 598 635 l 1,64,-1
 326 364 l 1,65,-1
 236 454 l 1,66,-1
 507 726 l 1,63,-1
EndSplineSet
EndChar

StartChar: uniE795
Encoding: 59285 59285 108
Width: 2048
Flags: W
LayerCount: 2
Fore
SplineSet
1600 2048 m 2,0,1
 1640 2048 1640 2048 1675 2033 c 128,-1,2
 1710 2018 1710 2018 1736 1992 c 128,-1,3
 1762 1966 1762 1966 1777 1931 c 128,-1,4
 1792 1896 1792 1896 1792 1856 c 2,5,-1
 1792 1792 l 1,6,-1
 1758 1792 l 2,7,8
 1741 1792 1741 1792 1724.5 1790 c 128,-1,9
 1708 1788 1708 1788 1694.5 1781.5 c 128,-1,10
 1681 1775 1681 1775 1672.5 1762.5 c 128,-1,11
 1664 1750 1664 1750 1664 1728 c 2,12,-1
 1664 896 l 2,13,14
 1664 869 1664 869 1654 846 c 128,-1,15
 1644 823 1644 823 1626.5 805.5 c 128,-1,16
 1609 788 1609 788 1586 778 c 128,-1,17
 1563 768 1563 768 1536 768 c 2,18,-1
 1280 768 l 1,19,-1
 1280 256 l 2,20,21
 1280 203 1280 203 1260 156.5 c 128,-1,22
 1240 110 1240 110 1205 75 c 128,-1,23
 1170 40 1170 40 1123.5 20 c 128,-1,24
 1077 0 1077 0 1024 0 c 256,25,26
 971 0 971 0 924.5 20 c 128,-1,27
 878 40 878 40 843 75 c 128,-1,28
 808 110 808 110 788 156.5 c 128,-1,29
 768 203 768 203 768 256 c 2,30,-1
 768 768 l 1,31,-1
 512 768 l 2,32,33
 485 768 485 768 462 778 c 128,-1,34
 439 788 439 788 421.5 805.5 c 128,-1,35
 404 823 404 823 394 846 c 128,-1,36
 384 869 384 869 384 896 c 2,37,-1
 384 1792 l 2,38,39
 384 1845 384 1845 404 1891.5 c 128,-1,40
 424 1938 424 1938 459 1973 c 128,-1,41
 494 2008 494 2008 540.5 2028 c 128,-1,42
 587 2048 587 2048 640 2048 c 2,43,-1
 1600 2048 l 2,0,1
1536 896 m 1,44,-1
 1536 1024 l 1,45,-1
 512 1024 l 1,46,-1
 512 896 l 1,47,-1
 896 896 l 1,48,-1
 896 256 l 2,49,50
 896 229 896 229 906 206 c 128,-1,51
 916 183 916 183 933.5 165.5 c 128,-1,52
 951 148 951 148 974 138 c 128,-1,53
 997 128 997 128 1024 128 c 256,54,55
 1051 128 1051 128 1074 138 c 128,-1,56
 1097 148 1097 148 1114.5 165.5 c 128,-1,57
 1132 183 1132 183 1142 206 c 128,-1,58
 1152 229 1152 229 1152 256 c 2,59,-1
 1152 896 l 1,60,-1
 1536 896 l 1,44,-1
1536 1728 m 2,61,62
 1536 1783 1536 1783 1565.5 1830 c 128,-1,63
 1595 1877 1595 1877 1645 1901 c 1,64,65
 1637 1911 1637 1911 1625 1915.5 c 128,-1,66
 1613 1920 1613 1920 1600 1920 c 2,67,-1
 640 1920 l 2,68,69
 613 1920 613 1920 590 1910 c 128,-1,70
 567 1900 567 1900 549.5 1882.5 c 128,-1,71
 532 1865 532 1865 522 1842 c 128,-1,72
 512 1819 512 1819 512 1792 c 2,73,-1
 512 1152 l 1,74,-1
 1536 1152 l 1,75,-1
 1536 1728 l 2,61,62
EndSplineSet
EndChar

StartChar: uniE799
Encoding: 59289 59289 109
Width: 2048
Flags: W
LayerCount: 2
Fore
SplineSet
0 1792 m 1,0,-1
 128 1792 l 1,1,-1
 128 1664 l 1,2,-1
 0 1664 l 1,3,-1
 0 1792 l 1,0,-1
0 1536 m 1,4,-1
 128 1536 l 1,5,-1
 128 1408 l 1,6,-1
 0 1408 l 1,7,-1
 0 1536 l 1,4,-1
0 1280 m 1,8,-1
 128 1280 l 1,9,-1
 128 1152 l 1,10,-1
 0 1152 l 1,11,-1
 0 1280 l 1,8,-1
0 1024 m 1,12,-1
 128 1024 l 1,13,-1
 128 896 l 1,14,-1
 0 896 l 1,15,-1
 0 1024 l 1,12,-1
0 512 m 1,16,-1
 128 512 l 1,17,-1
 128 384 l 1,18,-1
 0 384 l 1,19,-1
 0 512 l 1,16,-1
256 1792 m 1,20,-1
 384 1792 l 1,21,-1
 384 1664 l 1,22,-1
 256 1664 l 1,23,-1
 256 1792 l 1,20,-1
256 512 m 1,24,-1
 384 512 l 1,25,-1
 384 384 l 1,26,-1
 256 384 l 1,27,-1
 256 512 l 1,24,-1
1920 512 m 1,28,-1
 2048 512 l 1,29,-1
 2048 384 l 1,30,-1
 1920 384 l 1,31,-1
 1920 512 l 1,28,-1
0 768 m 1,32,-1
 128 768 l 1,33,-1
 128 640 l 1,34,-1
 0 640 l 1,35,-1
 0 768 l 1,32,-1
1920 768 m 1,36,-1
 2048 768 l 1,37,-1
 2048 640 l 1,38,-1
 1920 640 l 1,39,-1
 1920 768 l 1,36,-1
1920 1024 m 1,40,-1
 2048 1024 l 1,41,-1
 2048 896 l 1,42,-1
 1920 896 l 1,43,-1
 1920 1024 l 1,40,-1
1920 1280 m 1,44,-1
 2048 1280 l 1,45,-1
 2048 1152 l 1,46,-1
 1920 1152 l 1,47,-1
 1920 1280 l 1,44,-1
1920 1536 m 1,48,-1
 2048 1536 l 1,49,-1
 2048 1408 l 1,50,-1
 1920 1408 l 1,51,-1
 1920 1536 l 1,48,-1
2048 1792 m 1,52,-1
 2048 1664 l 1,53,-1
 1920 1664 l 1,54,-1
 1920 1792 l 1,55,-1
 2048 1792 l 1,52,-1
1664 512 m 1,56,-1
 1792 512 l 1,57,-1
 1792 384 l 1,58,-1
 1664 384 l 1,59,-1
 1664 512 l 1,56,-1
1664 1792 m 1,60,-1
 1792 1792 l 1,61,-1
 1792 1664 l 1,62,-1
 1664 1664 l 1,63,-1
 1664 1792 l 1,60,-1
512 1792 m 1,64,-1
 1536 1792 l 1,65,-1
 1536 384 l 1,66,-1
 512 384 l 1,67,-1
 512 1792 l 1,64,-1
640 512 m 1,68,-1
 1408 512 l 1,69,-1
 1408 1664 l 1,70,-1
 640 1664 l 1,71,-1
 640 512 l 1,68,-1
EndSplineSet
EndChar

StartChar: uniE7A1
Encoding: 59297 59297 110
Width: 2048
Flags: W
LayerCount: 2
Fore
SplineSet
1024 2048 m 0,0,1
 1165 2048 1165 2048 1296 2011.5 c 128,-1,2
 1427 1975 1427 1975 1541 1908.5 c 128,-1,3
 1655 1842 1655 1842 1748.5 1748.5 c 128,-1,4
 1842 1655 1842 1655 1908.5 1541 c 128,-1,5
 1975 1427 1975 1427 2011.5 1296 c 128,-1,6
 2048 1165 2048 1165 2048 1024 c 256,7,8
 2048 883 2048 883 2011.5 752 c 128,-1,9
 1975 621 1975 621 1908.5 507 c 128,-1,10
 1842 393 1842 393 1748.5 299.5 c 128,-1,11
 1655 206 1655 206 1541 139.5 c 128,-1,12
 1427 73 1427 73 1296 36.5 c 128,-1,13
 1165 0 1165 0 1024 0 c 256,14,15
 883 0 883 0 752 36.5 c 128,-1,16
 621 73 621 73 507 139.5 c 128,-1,17
 393 206 393 206 299.5 299.5 c 128,-1,18
 206 393 206 393 139.5 507 c 128,-1,19
 73 621 73 621 36.5 751.5 c 128,-1,20
 0 882 0 882 0 1024 c 0,21,22
 0 1165 0 1165 36.5 1296 c 128,-1,23
 73 1427 73 1427 139.5 1541 c 128,-1,24
 206 1655 206 1655 299.5 1748.5 c 128,-1,25
 393 1842 393 1842 507 1908.5 c 128,-1,26
 621 1975 621 1975 751.5 2011.5 c 128,-1,27
 882 2048 882 2048 1024 2048 c 0,0,1
1024 128 m 0,28,29
 1147 128 1147 128 1261.5 160 c 128,-1,30
 1376 192 1376 192 1475.5 250.5 c 128,-1,31
 1575 309 1575 309 1657 391 c 128,-1,32
 1739 473 1739 473 1797.5 572.5 c 128,-1,33
 1856 672 1856 672 1888 786.5 c 128,-1,34
 1920 901 1920 901 1920 1024 c 256,35,36
 1920 1147 1920 1147 1888 1261.5 c 128,-1,37
 1856 1376 1856 1376 1797.5 1475.5 c 128,-1,38
 1739 1575 1739 1575 1657 1657 c 128,-1,39
 1575 1739 1575 1739 1475.5 1797.5 c 128,-1,40
 1376 1856 1376 1856 1261.5 1888 c 128,-1,41
 1147 1920 1147 1920 1024 1920 c 0,42,43
 959 1920 959 1920 896 1911 c 1,44,-1
 896 137 l 1,45,46
 959 128 959 128 1024 128 c 0,28,29
EndSplineSet
EndChar

StartChar: uniE7A7
Encoding: 59303 59303 111
Width: 2048
Flags: W
LayerCount: 2
Fore
SplineSet
1088 2044 m 0,0,1
 1184 2044 1184 2044 1273 2019 c 128,-1,2
 1362 1994 1362 1994 1440 1948 c 128,-1,3
 1518 1902 1518 1902 1582 1838 c 128,-1,4
 1646 1774 1646 1774 1692 1696 c 128,-1,5
 1738 1618 1738 1618 1763 1529 c 128,-1,6
 1788 1440 1788 1440 1788 1344 c 0,7,8
 1788 1207 1788 1207 1735.5 1079.5 c 128,-1,9
 1683 952 1683 952 1586 855 c 2,10,-1
 749 19 l 1,11,-1
 659 109 l 1,12,-1
 1495 946 l 2,13,14
 1574 1025 1574 1025 1617 1128.5 c 128,-1,15
 1660 1232 1660 1232 1660 1344 c 0,16,17
 1660 1461 1660 1461 1614.5 1565 c 128,-1,18
 1569 1669 1569 1669 1491 1747 c 128,-1,19
 1413 1825 1413 1825 1309 1870.5 c 128,-1,20
 1205 1916 1205 1916 1088 1916 c 0,21,22
 980 1916 980 1916 897.5 1883.5 c 128,-1,23
 815 1851 815 1851 745 1797.5 c 128,-1,24
 675 1744 675 1744 610.5 1676 c 128,-1,25
 546 1608 546 1608 475 1536 c 1,26,-1
 896 1536 l 1,27,-1
 896 1408 l 1,28,-1
 256 1408 l 1,29,-1
 256 2048 l 1,30,-1
 384 2048 l 1,31,-1
 384 1627 l 1,32,33
 439 1683 439 1683 489.5 1735.5 c 128,-1,34
 540 1788 540 1788 590.5 1834.5 c 128,-1,35
 641 1881 641 1881 693.5 1919.5 c 128,-1,36
 746 1958 746 1958 805.5 1985.5 c 128,-1,37
 865 2013 865 2013 934.5 2028.5 c 128,-1,38
 1004 2044 1004 2044 1088 2044 c 0,0,1
EndSplineSet
EndChar

StartChar: uniE7AA
Encoding: 59306 59306 112
Width: 2048
Flags: W
LayerCount: 2
Fore
SplineSet
1472 1408 m 256,0,1
 1446 1408 1446 1408 1427 1427 c 128,-1,2
 1408 1446 1408 1446 1408 1472 c 256,3,4
 1408 1498 1408 1498 1427 1517 c 128,-1,5
 1446 1536 1446 1536 1472 1536 c 256,6,7
 1498 1536 1498 1536 1517 1517 c 128,-1,8
 1536 1498 1536 1498 1536 1472 c 256,9,10
 1536 1446 1536 1446 1517 1427 c 128,-1,11
 1498 1408 1498 1408 1472 1408 c 256,0,1
2048 1536 m 1,12,-1
 2048 256 l 1,13,-1
 256 256 l 1,14,-1
 256 512 l 1,15,-1
 0 512 l 1,16,-1
 0 1792 l 1,17,-1
 1792 1792 l 1,18,-1
 1792 1536 l 1,19,-1
 2048 1536 l 1,12,-1
1573 640 m 1,20,-1
 1216 998 l 1,21,-1
 1050 832 l 1,22,-1
 1243 640 l 1,23,-1
 1573 640 l 1,20,-1
128 1664 m 1,24,-1
 128 1115 l 1,25,-1
 448 1434 l 1,26,-1
 960 922 l 1,27,-1
 1216 1178 l 1,28,-1
 1664 731 l 1,29,-1
 1664 1664 l 1,30,-1
 128 1664 l 1,24,-1
1061 640 m 1,31,-1
 448 1254 l 1,32,-1
 128 933 l 1,33,-1
 128 640 l 1,34,-1
 1061 640 l 1,31,-1
1920 1408 m 1,35,-1
 1792 1408 l 1,36,-1
 1792 512 l 1,37,-1
 384 512 l 1,38,-1
 384 384 l 1,39,-1
 1920 384 l 1,40,-1
 1920 1408 l 1,35,-1
EndSplineSet
EndChar

StartChar: uniE7AB
Encoding: 59307 59307 113
Width: 2048
Flags: W
LayerCount: 2
Fore
SplineSet
1856 1792 m 2,0,1
 1896 1792 1896 1792 1931 1777 c 128,-1,2
 1966 1762 1966 1762 1992 1736 c 128,-1,3
 2018 1710 2018 1710 2033 1675 c 128,-1,4
 2048 1640 2048 1640 2048 1600 c 2,5,-1
 2048 448 l 2,6,7
 2048 408 2048 408 2033 373 c 128,-1,8
 2018 338 2018 338 1992 312 c 128,-1,9
 1966 286 1966 286 1931 271 c 128,-1,10
 1896 256 1896 256 1856 256 c 2,11,-1
 0 256 l 1,12,-1
 0 1792 l 1,13,-1
 1856 1792 l 2,0,1
128 384 m 1,14,-1
 256 384 l 1,15,-1
 256 1664 l 1,16,-1
 128 1664 l 1,17,-1
 128 384 l 1,14,-1
1920 1600 m 2,18,19
 1920 1626 1920 1626 1901 1645 c 128,-1,20
 1882 1664 1882 1664 1856 1664 c 2,21,-1
 384 1664 l 1,22,-1
 384 384 l 1,23,-1
 1856 384 l 2,24,25
 1882 384 1882 384 1901 403 c 128,-1,26
 1920 422 1920 422 1920 448 c 2,27,-1
 1920 1600 l 2,18,19
768 1408 m 1,28,-1
 1536 1408 l 1,29,-1
 1536 1024 l 1,30,-1
 768 1024 l 1,31,-1
 768 1408 l 1,28,-1
896 1152 m 1,32,-1
 1408 1152 l 1,33,-1
 1408 1280 l 1,34,-1
 896 1280 l 1,35,-1
 896 1152 l 1,32,-1
EndSplineSet
EndChar

StartChar: uniE7AD
Encoding: 59309 59309 114
Width: 2048
Flags: W
LayerCount: 2
Fore
SplineSet
1024 1280 m 256,0,1
 1077 1280 1077 1280 1123.5 1260 c 128,-1,2
 1170 1240 1170 1240 1205 1205 c 128,-1,3
 1240 1170 1240 1170 1260 1123.5 c 128,-1,4
 1280 1077 1280 1077 1280 1024 c 256,5,6
 1280 971 1280 971 1260 924.5 c 128,-1,7
 1240 878 1240 878 1205 843 c 128,-1,8
 1170 808 1170 808 1123.5 788 c 128,-1,9
 1077 768 1077 768 1024 768 c 256,10,11
 971 768 971 768 924.5 788 c 128,-1,12
 878 808 878 808 843 843 c 128,-1,13
 808 878 808 878 788 924.5 c 128,-1,14
 768 971 768 971 768 1024 c 256,15,16
 768 1077 768 1077 788 1123.5 c 128,-1,17
 808 1170 808 1170 843 1205 c 128,-1,18
 878 1240 878 1240 924.5 1260 c 128,-1,19
 971 1280 971 1280 1024 1280 c 256,0,1
1024 896 m 256,20,21
 1051 896 1051 896 1074 906 c 128,-1,22
 1097 916 1097 916 1114.5 933.5 c 128,-1,23
 1132 951 1132 951 1142 974 c 128,-1,24
 1152 997 1152 997 1152 1024 c 256,25,26
 1152 1051 1152 1051 1142 1074 c 128,-1,27
 1132 1097 1132 1097 1114.5 1114.5 c 128,-1,28
 1097 1132 1097 1132 1074 1142 c 128,-1,29
 1051 1152 1051 1152 1024 1152 c 256,30,31
 997 1152 997 1152 974 1142 c 128,-1,32
 951 1132 951 1132 933.5 1114.5 c 128,-1,33
 916 1097 916 1097 906 1074 c 128,-1,34
 896 1051 896 1051 896 1024 c 256,35,36
 896 997 896 997 906 974 c 128,-1,37
 916 951 916 951 933.5 933.5 c 128,-1,38
 951 916 951 916 974 906 c 128,-1,39
 997 896 997 896 1024 896 c 256,20,21
2048 1024 m 0,40,41
 2048 884 2048 884 2011 752 c 128,-1,42
 1974 620 1974 620 1905.5 503.5 c 128,-1,43
 1837 387 1837 387 1739 291 c 128,-1,44
 1641 195 1641 195 1518 128 c 1,45,-1
 1792 128 l 1,46,-1
 1792 0 l 1,47,-1
 1280 0 l 1,48,-1
 1280 512 l 1,49,-1
 1408 512 l 1,50,-1
 1408 215 l 1,51,52
 1525 270 1525 270 1619.5 355 c 128,-1,53
 1714 440 1714 440 1781 545.5 c 128,-1,54
 1848 651 1848 651 1884 773 c 128,-1,55
 1920 895 1920 895 1920 1024 c 0,56,57
 1920 1147 1920 1147 1888 1261.5 c 128,-1,58
 1856 1376 1856 1376 1797.5 1475.5 c 128,-1,59
 1739 1575 1739 1575 1657 1657 c 128,-1,60
 1575 1739 1575 1739 1475.5 1797.5 c 128,-1,61
 1376 1856 1376 1856 1261.5 1888 c 128,-1,62
 1147 1920 1147 1920 1024 1920 c 256,63,64
 901 1920 901 1920 786.5 1888 c 128,-1,65
 672 1856 672 1856 572.5 1797.5 c 128,-1,66
 473 1739 473 1739 391 1657 c 128,-1,67
 309 1575 309 1575 250.5 1475.5 c 128,-1,68
 192 1376 192 1376 160 1261.5 c 128,-1,69
 128 1147 128 1147 128 1024 c 1,70,-1
 0 1024 l 1,71,72
 0 1165 0 1165 36.5 1296 c 128,-1,73
 73 1427 73 1427 139.5 1541 c 128,-1,74
 206 1655 206 1655 299.5 1748.5 c 128,-1,75
 393 1842 393 1842 507 1908.5 c 128,-1,76
 621 1975 621 1975 751.5 2011.5 c 128,-1,77
 882 2048 882 2048 1024 2048 c 0,78,79
 1165 2048 1165 2048 1296 2011.5 c 128,-1,80
 1427 1975 1427 1975 1541 1908.5 c 128,-1,81
 1655 1842 1655 1842 1748.5 1748.5 c 128,-1,82
 1842 1655 1842 1655 1908.5 1541 c 128,-1,83
 1975 1427 1975 1427 2011.5 1296 c 128,-1,84
 2048 1165 2048 1165 2048 1024 c 0,40,41
EndSplineSet
EndChar

StartChar: uniE759
Encoding: 59225 59225 115
Width: 2048
Flags: W
LayerCount: 2
Fore
SplineSet
493 1299 m 1,0,-1
 219 1024 l 1,1,-1
 493 749 l 1,2,-1
 403 659 l 1,3,-1
 37 1024 l 1,4,-1
 403 1389 l 1,5,-1
 493 1299 l 1,0,-1
1299 493 m 1,6,-1
 1389 403 l 1,7,-1
 1024 37 l 1,8,-1
 659 403 l 1,9,-1
 749 493 l 1,10,-1
 1024 219 l 1,11,-1
 1299 493 l 1,6,-1
2011 1024 m 1,12,-1
 1645 659 l 1,13,-1
 1555 749 l 1,14,-1
 1829 1024 l 1,15,-1
 1555 1299 l 1,16,-1
 1645 1389 l 1,17,-1
 2011 1024 l 1,12,-1
749 1555 m 1,18,-1
 659 1645 l 1,19,-1
 1024 2011 l 1,20,-1
 1389 1645 l 1,21,-1
 1299 1555 l 1,22,-1
 1024 1829 l 1,23,-1
 749 1555 l 1,18,-1
1024 1408 m 0,24,25
 1103 1408 1103 1408 1173 1378 c 128,-1,26
 1243 1348 1243 1348 1295.5 1295.5 c 128,-1,27
 1348 1243 1348 1243 1378 1173 c 128,-1,28
 1408 1103 1408 1103 1408 1024 c 0,29,30
 1408 944 1408 944 1378 874.5 c 128,-1,31
 1348 805 1348 805 1295.5 752.5 c 128,-1,32
 1243 700 1243 700 1173 670 c 128,-1,33
 1103 640 1103 640 1024 640 c 0,34,35
 944 640 944 640 874.5 670 c 128,-1,36
 805 700 805 700 752.5 752.5 c 128,-1,37
 700 805 700 805 670 874.5 c 128,-1,38
 640 944 640 944 640 1024 c 0,39,40
 640 1103 640 1103 670 1173 c 128,-1,41
 700 1243 700 1243 752.5 1295.5 c 128,-1,42
 805 1348 805 1348 874.5 1378 c 128,-1,43
 944 1408 944 1408 1024 1408 c 0,24,25
1024 768 m 256,44,45
 1077 768 1077 768 1123.5 788 c 128,-1,46
 1170 808 1170 808 1205 843 c 128,-1,47
 1240 878 1240 878 1260 924.5 c 128,-1,48
 1280 971 1280 971 1280 1024 c 256,49,50
 1280 1077 1280 1077 1260 1123.5 c 128,-1,51
 1240 1170 1240 1170 1205 1205 c 128,-1,52
 1170 1240 1170 1240 1123.5 1260 c 128,-1,53
 1077 1280 1077 1280 1024 1280 c 256,54,55
 971 1280 971 1280 924.5 1260 c 128,-1,56
 878 1240 878 1240 843 1205 c 128,-1,57
 808 1170 808 1170 788 1123.5 c 128,-1,58
 768 1077 768 1077 768 1024 c 256,59,60
 768 971 768 971 788 924.5 c 128,-1,61
 808 878 808 878 843 843 c 128,-1,62
 878 808 878 808 924.5 788 c 128,-1,63
 971 768 971 768 1024 768 c 256,44,45
EndSplineSet
EndChar

StartChar: uniE7B0
Encoding: 59312 59312 116
Width: 2048
Flags: W
LayerCount: 2
Fore
SplineSet
1472 1152 m 256,0,1
 1446 1152 1446 1152 1427 1171 c 128,-1,2
 1408 1190 1408 1190 1408 1216 c 256,3,4
 1408 1242 1408 1242 1427 1261 c 128,-1,5
 1446 1280 1446 1280 1472 1280 c 256,6,7
 1498 1280 1498 1280 1517 1261 c 128,-1,8
 1536 1242 1536 1242 1536 1216 c 256,9,10
 1536 1190 1536 1190 1517 1171 c 128,-1,11
 1498 1152 1498 1152 1472 1152 c 256,0,1
0 1769 m 1,12,13
 241 1654 241 1654 499.5 1596.5 c 128,-1,14
 758 1539 758 1539 1024 1539 c 256,15,16
 1290 1539 1290 1539 1548.5 1596.5 c 128,-1,17
 1807 1654 1807 1654 2048 1769 c 1,18,-1
 2048 281 l 1,19,20
 1807 396 1807 396 1548.5 454 c 128,-1,21
 1290 512 1290 512 1024 512 c 256,22,23
 758 512 758 512 499.5 454 c 128,-1,24
 241 396 241 396 0 281 c 1,25,-1
 0 1769 l 1,12,13
128 471 m 1,26,27
 281 530 281 530 439 567 c 128,-1,28
 597 604 597 604 760 621 c 1,29,-1
 448 933 l 1,30,-1
 128 614 l 1,31,-1
 128 471 l 1,26,27
930 632 m 1,32,33
 954 633 954 633 978.5 633.5 c 128,-1,34
 1003 634 1003 634 1027 634 c 0,35,36
 1224 634 1224 634 1418 604 c 1,37,-1
 1088 933 l 1,38,-1
 859 704 l 1,39,-1
 930 632 l 1,32,33
1920 614 m 1,40,-1
 1728 805 l 1,41,-1
 1562 640 l 1,42,-1
 1645 557 l 1,43,44
 1715 539 1715 539 1783.5 518 c 128,-1,45
 1852 497 1852 497 1920 471 c 1,46,-1
 1920 614 l 1,40,-1
1920 1579 m 1,47,48
 1705 1496 1705 1496 1480 1452 c 128,-1,49
 1255 1408 1255 1408 1024 1408 c 256,50,51
 793 1408 793 1408 568 1452 c 128,-1,52
 343 1496 343 1496 128 1579 c 1,53,-1
 128 794 l 1,54,-1
 448 1115 l 1,55,-1
 768 794 l 1,56,-1
 1088 1115 l 1,57,-1
 1472 731 l 1,58,-1
 1728 987 l 1,59,-1
 1920 794 l 1,60,-1
 1920 1579 l 1,47,48
EndSplineSet
EndChar

StartChar: uniE7B3
Encoding: 59315 59315 117
Width: 2048
Flags: W
LayerCount: 2
Fore
SplineSet
1024 1536 m 256,0,1
 1174 1536 1174 1536 1316 1497 c 128,-1,2
 1458 1458 1458 1458 1588.5 1389.5 c 128,-1,3
 1719 1321 1719 1321 1834.5 1227 c 128,-1,4
 1950 1133 1950 1133 2048 1024 c 1,5,6
 1950 914 1950 914 1834.5 820.5 c 128,-1,7
 1719 727 1719 727 1588.5 658.5 c 128,-1,8
 1458 590 1458 590 1316 551 c 128,-1,9
 1174 512 1174 512 1024 512 c 256,10,11
 874 512 874 512 732 551 c 128,-1,12
 590 590 590 590 459.5 658.5 c 128,-1,13
 329 727 329 727 213 820.5 c 128,-1,14
 97 914 97 914 0 1024 c 1,15,16
 97 1133 97 1133 213 1227 c 128,-1,17
 329 1321 329 1321 459.5 1389.5 c 128,-1,18
 590 1458 590 1458 732 1497 c 128,-1,19
 874 1536 874 1536 1024 1536 c 256,0,1
1408 1024 m 256,20,21
 1408 1103 1408 1103 1377.5 1173 c 128,-1,22
 1347 1243 1347 1243 1295 1295 c 128,-1,23
 1243 1347 1243 1347 1173 1377.5 c 128,-1,24
 1103 1408 1103 1408 1024 1408 c 256,25,26
 945 1408 945 1408 875 1377.5 c 128,-1,27
 805 1347 805 1347 753 1295 c 128,-1,28
 701 1243 701 1243 670.5 1173 c 128,-1,29
 640 1103 640 1103 640 1024 c 256,30,31
 640 945 640 945 670.5 875 c 128,-1,32
 701 805 701 805 753 753 c 128,-1,33
 805 701 805 701 875 670.5 c 128,-1,34
 945 640 945 640 1024 640 c 256,35,36
 1103 640 1103 640 1173 670.5 c 128,-1,37
 1243 701 1243 701 1295 753 c 128,-1,38
 1347 805 1347 805 1377.5 875 c 128,-1,39
 1408 945 1408 945 1408 1024 c 256,20,21
177 1024 m 1,40,41
 271 933 271 933 377 857.5 c 128,-1,42
 483 782 483 782 604 731 c 1,43,44
 559 795 559 795 535.5 870.5 c 128,-1,45
 512 946 512 946 512 1024 c 256,46,47
 512 1102 512 1102 535.5 1177.5 c 128,-1,48
 559 1253 559 1253 604 1317 c 1,49,50
 483 1266 483 1266 377 1190.5 c 128,-1,51
 271 1115 271 1115 177 1024 c 1,40,41
1444 731 m 1,52,53
 1565 782 1565 782 1671 857.5 c 128,-1,54
 1777 933 1777 933 1871 1024 c 1,55,56
 1777 1115 1777 1115 1671 1190.5 c 128,-1,57
 1565 1266 1565 1266 1444 1317 c 1,58,59
 1489 1253 1489 1253 1512.5 1177.5 c 128,-1,60
 1536 1102 1536 1102 1536 1024 c 256,61,62
 1536 946 1536 946 1512.5 870.5 c 128,-1,63
 1489 795 1489 795 1444 731 c 1,52,53
1024 896 m 256,64,65
 997 896 997 896 974 906 c 128,-1,66
 951 916 951 916 933.5 933.5 c 128,-1,67
 916 951 916 951 906 974 c 128,-1,68
 896 997 896 997 896 1024 c 256,69,70
 896 1051 896 1051 906 1074 c 128,-1,71
 916 1097 916 1097 933.5 1114.5 c 128,-1,72
 951 1132 951 1132 974 1142 c 128,-1,73
 997 1152 997 1152 1024 1152 c 256,74,75
 1051 1152 1051 1152 1074 1142 c 128,-1,76
 1097 1132 1097 1132 1114.5 1114.5 c 128,-1,77
 1132 1097 1132 1097 1142 1074 c 128,-1,78
 1152 1051 1152 1051 1152 1024 c 256,79,80
 1152 997 1152 997 1142 974 c 128,-1,81
 1132 951 1132 951 1114.5 933.5 c 128,-1,82
 1097 916 1097 916 1074 906 c 128,-1,83
 1051 896 1051 896 1024 896 c 256,64,65
EndSplineSet
EndChar

StartChar: uniE7B6
Encoding: 59318 59318 118
Width: 2048
Flags: W
LayerCount: 2
Fore
SplineSet
0 896 m 1,0,-1
 640 896 l 1,1,-1
 640 256 l 1,2,-1
 0 256 l 1,3,-1
 0 896 l 1,0,-1
128 384 m 1,4,-1
 512 384 l 1,5,-1
 512 768 l 1,6,-1
 128 768 l 1,7,-1
 128 384 l 1,4,-1
0 1792 m 1,8,-1
 640 1792 l 1,9,-1
 640 1152 l 1,10,-1
 0 1152 l 1,11,-1
 0 1792 l 1,8,-1
128 1280 m 1,12,-1
 512 1280 l 1,13,-1
 512 1664 l 1,14,-1
 128 1664 l 1,15,-1
 128 1280 l 1,12,-1
2048 1664 m 1,16,-1
 2048 1536 l 1,17,-1
 896 1536 l 1,18,-1
 896 1664 l 1,19,-1
 2048 1664 l 1,16,-1
1664 1280 m 1,20,-1
 896 1280 l 1,21,-1
 896 1408 l 1,22,-1
 1664 1408 l 1,23,-1
 1664 1280 l 1,20,-1
896 768 m 1,24,-1
 2048 768 l 1,25,-1
 2048 640 l 1,26,-1
 896 640 l 1,27,-1
 896 768 l 1,24,-1
896 512 m 1,28,-1
 1664 512 l 1,29,-1
 1664 384 l 1,30,-1
 896 384 l 1,31,-1
 896 512 l 1,28,-1
EndSplineSet
EndChar

StartChar: uniE7BA
Encoding: 59322 59322 119
Width: 2048
Flags: W
LayerCount: 2
Fore
SplineSet
1920 128 m 1,0,-1
 0 128 l 1,1,-1
 960 2048 l 1,2,-1
 1920 128 l 1,0,-1
207 256 m 1,3,-1
 1713 256 l 1,4,-1
 960 1762 l 1,5,-1
 207 256 l 1,3,-1
1024 1280 m 1,6,-1
 1024 640 l 1,7,-1
 896 640 l 1,8,-1
 896 1280 l 1,9,-1
 1024 1280 l 1,6,-1
896 512 m 1,10,-1
 1024 512 l 1,11,-1
 1024 384 l 1,12,-1
 896 384 l 1,13,-1
 896 512 l 1,10,-1
EndSplineSet
EndChar

StartChar: uniE7BB
Encoding: 59323 59323 120
Width: 2048
Flags: W
LayerCount: 2
Fore
SplineSet
1792 1152 m 1,0,-1
 1920 1152 l 1,1,-1
 1920 0 l 1,2,-1
 1792 0 l 1,3,-1
 1792 1152 l 1,0,-1
512 704 m 1,4,-1
 640 832 l 1,5,-1
 640 0 l 1,6,-1
 512 0 l 1,7,-1
 512 704 l 1,4,-1
256 448 m 1,8,-1
 384 576 l 1,9,-1
 384 0 l 1,10,-1
 256 0 l 1,11,-1
 256 448 l 1,8,-1
768 960 m 1,12,-1
 896 1088 l 1,13,-1
 896 0 l 1,14,-1
 768 0 l 1,15,-1
 768 960 l 1,12,-1
1024 1088 m 1,16,-1
 1152 960 l 1,17,-1
 1152 1 l 1,18,-1
 1024 1 l 1,19,-1
 1024 1088 l 1,16,-1
1344 768 m 1,20,-1
 1408 832 l 1,21,-1
 1408 0 l 1,22,-1
 1280 0 l 1,23,-1
 1280 832 l 1,24,-1
 1344 768 l 1,20,-1
1536 960 m 1,25,-1
 1664 1088 l 1,26,-1
 1664 0 l 1,27,-1
 1536 0 l 1,28,-1
 1536 960 l 1,25,-1
0 192 m 1,29,-1
 128 320 l 1,30,-1
 128 0 l 1,31,-1
 0 0 l 1,32,-1
 0 192 l 1,29,-1
2048 1792 m 1,33,-1
 2048 1280 l 1,34,-1
 1920 1280 l 1,35,-1
 1920 1573 l 1,36,-1
 1344 998 l 1,37,-1
 960 1382 l 1,38,-1
 0 421 l 1,39,-1
 0 603 l 1,40,-1
 960 1562 l 1,41,-1
 1344 1178 l 1,42,-1
 1829 1664 l 1,43,-1
 1536 1664 l 1,44,-1
 1536 1792 l 1,45,-1
 2048 1792 l 1,33,-1
EndSplineSet
EndChar

StartChar: uniE7BE
Encoding: 59326 59326 121
Width: 2048
Flags: W
LayerCount: 2
Fore
SplineSet
1582 983 m 1,0,1
 1623 911 1623 911 1643.5 832.5 c 128,-1,2
 1664 754 1664 754 1664 672 c 2,3,-1
 1664 569 l 1,4,-1
 1024 248 l 1,5,-1
 384 569 l 1,6,7
 384 629 384 629 385.5 681 c 128,-1,8
 387 733 387 733 394.5 782.5 c 128,-1,9
 402 832 402 832 418.5 880.5 c 128,-1,10
 435 929 435 929 466 983 c 1,11,-1
 256 1088 l 1,12,-1
 256 501 l 1,13,14
 285 491 285 491 308.5 473 c 128,-1,15
 332 455 332 455 349 431 c 128,-1,16
 366 407 366 407 375 378.5 c 128,-1,17
 384 350 384 350 384 320 c 2,18,-1
 384 0 l 1,19,-1
 0 0 l 1,20,-1
 0 320 l 2,21,22
 0 350 0 350 9 378.5 c 128,-1,23
 18 407 18 407 35 431 c 128,-1,24
 52 455 52 455 75.5 473 c 128,-1,25
 99 491 99 491 128 501 c 1,26,-1
 128 1152 l 1,27,-1
 0 1216 l 1,28,-1
 1024 1728 l 1,29,-1
 2048 1216 l 1,30,-1
 1582 983 l 1,0,1
256 320 m 2,31,32
 256 346 256 346 237 365 c 128,-1,33
 218 384 218 384 192 384 c 256,34,35
 166 384 166 384 147 365 c 128,-1,36
 128 346 128 346 128 320 c 2,37,-1
 128 128 l 1,38,-1
 256 128 l 1,39,-1
 256 320 l 2,31,32
286 1216 m 1,40,-1
 1024 847 l 1,41,-1
 1762 1216 l 1,42,-1
 1024 1585 l 1,43,-1
 286 1216 l 1,40,-1
1536 648 m 1,44,45
 1536 725 1536 725 1521 791.5 c 128,-1,46
 1506 858 1506 858 1468 926 c 1,47,-1
 1024 704 l 1,48,-1
 580 926 l 1,49,50
 547 868 547 868 529.5 803.5 c 128,-1,51
 512 739 512 739 512 672 c 2,52,-1
 512 648 l 1,53,-1
 1024 392 l 1,54,-1
 1536 648 l 1,44,45
EndSplineSet
EndChar

StartChar: uniE7BF
Encoding: 59327 59327 122
Width: 2048
Flags: W
LayerCount: 2
Fore
SplineSet
1600 512 m 2,0,1
 1640 512 1640 512 1675 497 c 128,-1,2
 1710 482 1710 482 1736 456 c 128,-1,3
 1762 430 1762 430 1777 395 c 128,-1,4
 1792 360 1792 360 1792 320 c 256,5,6
 1792 280 1792 280 1777 245 c 128,-1,7
 1762 210 1762 210 1736 184 c 128,-1,8
 1710 158 1710 158 1675 143 c 128,-1,9
 1640 128 1640 128 1600 128 c 256,10,11
 1560 128 1560 128 1525 143 c 128,-1,12
 1490 158 1490 158 1464 184 c 128,-1,13
 1438 210 1438 210 1423 245 c 128,-1,14
 1408 280 1408 280 1408 320 c 0,15,16
 1408 351 1408 351 1419 384 c 1,17,-1
 885 384 l 1,18,19
 896 351 896 351 896 320 c 0,20,21
 896 280 896 280 881 245 c 128,-1,22
 866 210 866 210 840 184 c 128,-1,23
 814 158 814 158 779 143 c 128,-1,24
 744 128 744 128 704 128 c 256,25,26
 664 128 664 128 629 143 c 128,-1,27
 594 158 594 158 568 184 c 128,-1,28
 542 210 542 210 527 245 c 128,-1,29
 512 280 512 280 512 320 c 0,30,31
 512 375 512 375 541.5 422 c 128,-1,32
 571 469 571 469 621 493 c 1,33,-1
 189 1792 l 1,34,-1
 0 1792 l 1,35,-1
 0 1920 l 1,36,-1
 281 1920 l 1,37,-1
 366 1664 l 1,38,-1
 2048 1664 l 1,39,-1
 1750 768 l 1,40,-1
 665 768 l 1,41,-1
 750 512 l 1,42,-1
 1600 512 l 2,0,1
409 1536 m 1,43,-1
 622 896 l 1,44,-1
 1657 896 l 1,45,-1
 1870 1536 l 1,46,-1
 409 1536 l 1,43,-1
768 320 m 256,47,48
 768 346 768 346 749 365 c 128,-1,49
 730 384 730 384 704 384 c 256,50,51
 678 384 678 384 659 365 c 128,-1,52
 640 346 640 346 640 320 c 256,53,54
 640 294 640 294 659 275 c 128,-1,55
 678 256 678 256 704 256 c 256,56,57
 730 256 730 256 749 275 c 128,-1,58
 768 294 768 294 768 320 c 256,47,48
1600 256 m 256,59,60
 1626 256 1626 256 1645 275 c 128,-1,61
 1664 294 1664 294 1664 320 c 256,62,63
 1664 346 1664 346 1645 365 c 128,-1,64
 1626 384 1626 384 1600 384 c 256,65,66
 1574 384 1574 384 1555 365 c 128,-1,67
 1536 346 1536 346 1536 320 c 256,68,69
 1536 294 1536 294 1555 275 c 128,-1,70
 1574 256 1574 256 1600 256 c 256,59,60
EndSplineSet
EndChar

StartChar: uniE7C0
Encoding: 59328 59328 123
Width: 2048
Flags: W
LayerCount: 2
Fore
SplineSet
576 512 m 256,0,1
 550 512 550 512 531 531 c 128,-1,2
 512 550 512 550 512 576 c 256,3,4
 512 602 512 602 531 621 c 128,-1,5
 550 640 550 640 576 640 c 256,6,7
 602 640 602 640 621 621 c 128,-1,8
 640 602 640 602 640 576 c 256,9,10
 640 550 640 550 621 531 c 128,-1,11
 602 512 602 512 576 512 c 256,0,1
1472 512 m 256,12,13
 1446 512 1446 512 1427 531 c 128,-1,14
 1408 550 1408 550 1408 576 c 256,15,16
 1408 602 1408 602 1427 621 c 128,-1,17
 1446 640 1446 640 1472 640 c 256,18,19
 1498 640 1498 640 1517 621 c 128,-1,20
 1536 602 1536 602 1536 576 c 256,21,22
 1536 550 1536 550 1517 531 c 128,-1,23
 1498 512 1498 512 1472 512 c 256,12,13
1280 1664 m 1,24,-1
 768 1664 l 1,25,-1
 768 1792 l 1,26,-1
 1280 1792 l 1,27,-1
 1280 1664 l 1,24,-1
1445 256 m 1,28,-1
 603 256 l 1,29,-1
 347 0 l 1,30,-1
 165 0 l 1,31,-1
 423 258 l 1,32,33
 388 262 388 262 357.5 279 c 128,-1,34
 327 296 327 296 304.5 321.5 c 128,-1,35
 282 347 282 347 269 379.5 c 128,-1,36
 256 412 256 412 256 448 c 2,37,-1
 256 1856 l 2,38,39
 256 1896 256 1896 271 1931 c 128,-1,40
 286 1966 286 1966 312 1992 c 128,-1,41
 338 2018 338 2018 373 2033 c 128,-1,42
 408 2048 408 2048 448 2048 c 2,43,-1
 1600 2048 l 2,44,45
 1640 2048 1640 2048 1675 2033 c 128,-1,46
 1710 2018 1710 2018 1736 1992 c 128,-1,47
 1762 1966 1762 1966 1777 1931 c 128,-1,48
 1792 1896 1792 1896 1792 1856 c 2,49,-1
 1792 448 l 2,50,51
 1792 412 1792 412 1779 379.5 c 128,-1,52
 1766 347 1766 347 1743.5 321.5 c 128,-1,53
 1721 296 1721 296 1690.5 279 c 128,-1,54
 1660 262 1660 262 1625 258 c 1,55,-1
 1883 0 l 1,56,-1
 1701 0 l 1,57,-1
 1445 256 l 1,28,-1
1664 1408 m 1,58,-1
 384 1408 l 1,59,-1
 384 896 l 1,60,-1
 1664 896 l 1,61,-1
 1664 1408 l 1,58,-1
448 1920 m 2,62,63
 422 1920 422 1920 403 1901 c 128,-1,64
 384 1882 384 1882 384 1856 c 2,65,-1
 384 1536 l 1,66,-1
 1664 1536 l 1,67,-1
 1664 1856 l 2,68,69
 1664 1882 1664 1882 1645 1901 c 128,-1,70
 1626 1920 1626 1920 1600 1920 c 2,71,-1
 448 1920 l 2,62,63
384 448 m 2,72,73
 384 422 384 422 403 403 c 128,-1,74
 422 384 422 384 448 384 c 2,75,-1
 1600 384 l 2,76,77
 1626 384 1626 384 1645 403 c 128,-1,78
 1664 422 1664 422 1664 448 c 2,79,-1
 1664 768 l 1,80,-1
 384 768 l 1,81,-1
 384 448 l 2,72,73
EndSplineSet
EndChar

StartChar: uniE7C1
Encoding: 59329 59329 124
Width: 2048
Flags: W
LayerCount: 2
Fore
SplineSet
1920 1792 m 1,0,-1
 1920 768 l 1,1,-1
 1024 768 l 1,2,-1
 1024 1024 l 1,3,-1
 384 1024 l 1,4,-1
 384 0 l 1,5,-1
 256 0 l 1,6,-1
 256 2048 l 1,7,-1
 1152 2048 l 1,8,-1
 1152 1792 l 1,9,-1
 1920 1792 l 1,0,-1
1024 1152 m 1,10,-1
 1024 1920 l 1,11,-1
 384 1920 l 1,12,-1
 384 1152 l 1,13,-1
 1024 1152 l 1,10,-1
1792 1664 m 1,14,-1
 1152 1664 l 1,15,-1
 1152 896 l 1,16,-1
 1792 896 l 1,17,-1
 1792 1664 l 1,14,-1
EndSplineSet
EndChar

StartChar: uniE7C3
Encoding: 59331 59331 125
Width: 2048
Flags: W
LayerCount: 2
Fore
SplineSet
1792 1499 m 1,0,-1
 1792 0 l 1,1,-1
 128 0 l 1,2,-1
 128 2048 l 1,3,-1
 1243 2048 l 1,4,-1
 1792 1499 l 1,0,-1
1280 1536 m 1,5,-1
 1573 1536 l 1,6,-1
 1280 1829 l 1,7,-1
 1280 1536 l 1,5,-1
1664 128 m 1,8,-1
 1664 1408 l 1,9,-1
 1152 1408 l 1,10,-1
 1152 1920 l 1,11,-1
 256 1920 l 1,12,-1
 256 128 l 1,13,-1
 1664 128 l 1,8,-1
EndSplineSet
EndChar

StartChar: uniE7C9
Encoding: 59337 59337 126
Width: 2048
Flags: W
LayerCount: 2
Fore
SplineSet
1856 1280 m 0,0,1
 1896 1280 1896 1280 1931 1265 c 128,-1,2
 1966 1250 1966 1250 1992 1224 c 128,-1,3
 2018 1198 2018 1198 2033 1163 c 128,-1,4
 2048 1128 2048 1128 2048 1088 c 2,5,-1
 2048 704 l 2,6,7
 2048 585 2048 585 2002.5 480 c 128,-1,8
 1957 375 1957 375 1879 297 c 128,-1,9
 1801 219 1801 219 1696 173.5 c 128,-1,10
 1591 128 1591 128 1472 128 c 0,11,12
 1331 128 1331 128 1205.5 183.5 c 128,-1,13
 1080 239 1080 239 978 340 c 2,14,-1
 659 658 l 1,15,-1
 387 522 l 1,16,-1
 249 799 l 1,17,-1
 0 549 l 1,18,-1
 0 1883 l 1,19,-1
 896 987 l 1,20,-1
 896 1728 l 2,21,22
 896 1768 896 1768 911 1803 c 128,-1,23
 926 1838 926 1838 952 1864 c 128,-1,24
 978 1890 978 1890 1013 1905 c 128,-1,25
 1048 1920 1048 1920 1088 1920 c 256,26,27
 1128 1920 1128 1920 1163 1905 c 128,-1,28
 1198 1890 1198 1890 1224 1864 c 128,-1,29
 1250 1838 1250 1838 1265 1803 c 128,-1,30
 1280 1768 1280 1768 1280 1728 c 2,31,-1
 1280 1397 l 1,32,33
 1307 1407 1307 1407 1339 1407 c 0,34,35
 1388 1407 1388 1407 1434 1383.5 c 128,-1,36
 1480 1360 1480 1360 1506 1319 c 1,37,38
 1550 1344 1550 1344 1600 1344 c 0,39,40
 1651 1344 1651 1344 1693.5 1320 c 128,-1,41
 1736 1296 1736 1296 1762 1255 c 1,42,43
 1806 1280 1806 1280 1856 1280 c 0,0,1
424 1088 m 1,44,-1
 614 1088 l 1,45,-1
 128 1573 l 1,46,-1
 128 859 l 1,47,-1
 284 1015 l 1,48,-1
 445 694 l 1,49,-1
 586 765 l 1,50,-1
 424 1088 l 1,44,-1
1920 1088 m 2,51,52
 1920 1114 1920 1114 1901 1133 c 128,-1,53
 1882 1152 1882 1152 1856 1152 c 256,54,55
 1830 1152 1830 1152 1811 1133 c 128,-1,56
 1792 1114 1792 1114 1792 1088 c 2,57,-1
 1792 960 l 2,58,59
 1792 934 1792 934 1773 915 c 128,-1,60
 1754 896 1754 896 1728 896 c 256,61,62
 1702 896 1702 896 1683 915 c 128,-1,63
 1664 934 1664 934 1664 960 c 2,64,-1
 1664 1152 l 2,65,66
 1664 1178 1664 1178 1645 1197 c 128,-1,67
 1626 1216 1626 1216 1600 1216 c 256,68,69
 1574 1216 1574 1216 1555 1197 c 128,-1,70
 1536 1178 1536 1178 1536 1152 c 2,71,-1
 1536 1024 l 2,72,73
 1536 998 1536 998 1517 979 c 128,-1,74
 1498 960 1498 960 1472 960 c 256,75,76
 1446 960 1446 960 1427 979 c 128,-1,77
 1408 998 1408 998 1408 1024 c 2,78,-1
 1408 1216 l 2,79,80
 1408 1242 1408 1242 1389 1261 c 128,-1,81
 1370 1280 1370 1280 1344 1280 c 256,82,83
 1318 1280 1318 1280 1299 1261 c 128,-1,84
 1280 1242 1280 1242 1280 1216 c 2,85,-1
 1280 1088 l 2,86,87
 1280 1062 1280 1062 1261 1043 c 128,-1,88
 1242 1024 1242 1024 1216 1024 c 256,89,90
 1190 1024 1190 1024 1171 1043 c 128,-1,91
 1152 1062 1152 1062 1152 1088 c 2,92,-1
 1152 1728 l 2,93,94
 1152 1754 1152 1754 1133 1773 c 128,-1,95
 1114 1792 1114 1792 1088 1792 c 256,96,97
 1062 1792 1062 1792 1043 1773 c 128,-1,98
 1024 1754 1024 1754 1024 1728 c 2,99,-1
 1024 941 l 2,100,101
 1024 908 1024 908 1006 880.5 c 128,-1,102
 988 853 988 853 957 840 c 0,103,104
 938 832 938 832 915 832 c 0,105,106
 871 832 871 832 837 864 c 2,107,-1
 762 939 l 2,108,109
 741 960 741 960 712 960 c 0,110,111
 682 960 682 960 661 939 c 0,112,113
 650 928 650 928 645 915 c 128,-1,114
 640 902 640 902 640 888 c 0,115,116
 640 858 640 858 661 837 c 2,117,-1
 1069 429 l 2,118,119
 1150 344 1150 344 1253.5 300 c 128,-1,120
 1357 256 1357 256 1472 256 c 0,121,122
 1565 256 1565 256 1646.5 291.5 c 128,-1,123
 1728 327 1728 327 1788.5 387.5 c 128,-1,124
 1849 448 1849 448 1884.5 529.5 c 128,-1,125
 1920 611 1920 611 1920 704 c 2,126,-1
 1920 1088 l 2,51,52
EndSplineSet
EndChar

StartChar: uniE7D5
Encoding: 59349 59349 127
Width: 2048
Flags: W
LayerCount: 2
Fore
SplineSet
1792 256 m 1,0,-1
 1792 0 l 1,1,-1
 1749 0 l 2,2,3
 1524 0 1524 0 1340 122 c 0,4,5
 1177 229 1177 229 1061 423 c 0,6,7
 1039 460 1039 460 1019 499 c 128,-1,8
 999 538 999 538 981 580 c 1,9,10
 964 538 964 538 944 499 c 128,-1,11
 924 460 924 460 902 423 c 0,12,13
 786 229 786 229 623 122 c 0,14,15
 438 0 438 0 213 0 c 2,16,-1
 171 0 l 1,17,-1
 171 256 l 1,18,-1
 213 256 l 2,19,20
 504 256 504 256 682 554 c 0,21,22
 723 622 723 622 755 702 c 128,-1,23
 787 782 787 782 808.5 869.5 c 128,-1,24
 830 957 830 957 841.5 1049.5 c 128,-1,25
 853 1142 853 1142 853 1237 c 2,26,-1
 853 1636 l 1,27,-1
 613 1576 l 2,28,29
 605 1574 605 1574 600 1574 c 0,30,31
 580 1574 580 1574 567.5 1589 c 128,-1,32
 555 1604 555 1604 555 1622 c 0,33,34
 555 1641 555 1641 569 1655 c 2,35,-1
 948 2034 l 2,36,37
 962 2048 962 2048 981 2048 c 0,38,39
 999 2048 999 2048 1015 2034 c 2,40,-1
 1394 1655 l 2,41,42
 1408 1641 1408 1641 1408 1621 c 0,43,44
 1408 1603 1408 1603 1395 1588.5 c 128,-1,45
 1382 1574 1382 1574 1362 1574 c 0,46,47
 1357 1574 1357 1574 1349 1576 c 2,48,-1
 1109 1636 l 1,49,-1
 1109 1237 l 2,50,51
 1109 1142 1109 1142 1120.5 1049.5 c 128,-1,52
 1132 957 1132 957 1154 869.5 c 128,-1,53
 1176 782 1176 782 1208 702 c 128,-1,54
 1240 622 1240 622 1281 554 c 0,55,56
 1459 256 1459 256 1749 256 c 2,57,-1
 1792 256 l 1,0,-1
EndSplineSet
EndChar

StartChar: uniE7DB
Encoding: 59355 59355 128
Width: 2048
Flags: W
LayerCount: 2
Fore
SplineSet
1451 2005 m 0,0,1
 1460 2005 1460 2005 1495 1976 c 128,-1,2
 1530 1947 1530 1947 1577.5 1903 c 128,-1,3
 1625 1859 1625 1859 1677.5 1806 c 128,-1,4
 1730 1753 1730 1753 1774.5 1706 c 128,-1,5
 1819 1659 1819 1659 1848 1623.5 c 128,-1,6
 1877 1588 1877 1588 1877 1579 c 0,7,8
 1877 1572 1877 1572 1860 1550 c 128,-1,9
 1843 1528 1843 1528 1815.5 1496.5 c 128,-1,10
 1788 1465 1788 1465 1752 1427 c 128,-1,11
 1716 1389 1716 1389 1677.5 1351 c 128,-1,12
 1639 1313 1639 1313 1601.5 1277 c 128,-1,13
 1564 1241 1564 1241 1533 1213.5 c 128,-1,14
 1502 1186 1502 1186 1480 1169 c 128,-1,15
 1458 1152 1458 1152 1451 1152 c 0,16,17
 1431 1152 1431 1152 1417.5 1166.5 c 128,-1,18
 1404 1181 1404 1181 1404 1201 c 0,19,20
 1404 1204 1404 1204 1408 1222 c 128,-1,21
 1412 1240 1412 1240 1418 1265.5 c 128,-1,22
 1424 1291 1424 1291 1431.5 1320.5 c 128,-1,23
 1439 1350 1439 1350 1446 1376.5 c 128,-1,24
 1453 1403 1453 1403 1458 1423.5 c 128,-1,25
 1463 1444 1463 1444 1465 1451 c 1,26,-1
 725 1451 l 2,27,28
 699 1451 699 1451 676 1440.5 c 128,-1,29
 653 1430 653 1430 635.5 1412.5 c 128,-1,30
 618 1395 618 1395 607.5 1372 c 128,-1,31
 597 1349 597 1349 597 1323 c 2,32,-1
 597 0 l 1,33,-1
 341 0 l 1,34,-1
 341 1323 l 2,35,36
 341 1402 341 1402 371.5 1471.5 c 128,-1,37
 402 1541 402 1541 454.5 1593.5 c 128,-1,38
 507 1646 507 1646 576.5 1676.5 c 128,-1,39
 646 1707 646 1707 725 1707 c 2,40,-1
 1465 1707 l 1,41,42
 1463 1715 1463 1715 1458 1735 c 128,-1,43
 1453 1755 1453 1755 1446 1781.5 c 128,-1,44
 1439 1808 1439 1808 1431.5 1837.5 c 128,-1,45
 1424 1867 1424 1867 1418 1892.5 c 128,-1,46
 1412 1918 1412 1918 1408 1936 c 128,-1,47
 1404 1954 1404 1954 1404 1958 c 0,48,49
 1404 1978 1404 1978 1417.5 1991.5 c 128,-1,50
 1431 2005 1431 2005 1451 2005 c 0,0,1
EndSplineSet
EndChar

